<?xml version="1.0" encoding="UTF-8" standalone="no"?>
<!DOCTYPE svg PUBLIC "-//W3C//DTD SVG 1.1//EN" "http://www.w3.org/Graphics/SVG/1.1/DTD/svg11.dtd">
<svg width="100%" height="100%" viewBox="0 0 506 506" version="1.1" xmlns="http://www.w3.org/2000/svg" xmlns:xlink="http://www.w3.org/1999/xlink" xml:space="preserve" xmlns:serif="http://www.serif.com/" style="fill-rule:evenodd;clip-rule:evenodd;stroke-linejoin:round;stroke-miterlimit:2;">
    <g id="Layer-1" serif:id="Layer 1" transform="matrix(1,0,0,1,-107,-107)">
        <g transform="matrix(-0.406759,0.913536,0.913536,0.406759,520.385,356.942)">
            <path d="M29.017,-44.702C11.473,-44.705 -2.752,-30.473 -2.753,-12.931C-2.748,4.618 11.472,18.839 29.017,18.847C46.565,18.845 60.796,4.619 60.796,-12.93C60.797,-30.479 46.569,-44.699 29.017,-44.702" style="fill:rgb(116,116,116);fill-rule:nonzero;"/>
        </g>
        <g transform="matrix(-0.406701,0.913561,0.913561,0.406701,539.228,433.375)">
            <path d="M22.653,-34.886C8.958,-34.886 -2.147,-23.779 -2.142,-10.083C-2.138,3.614 8.96,14.71 22.653,14.715C36.358,14.713 47.454,3.609 47.457,-10.089C47.459,-23.781 36.35,-34.885 22.653,-34.886" style="fill:rgb(116,116,116);fill-rule:nonzero;"/>
        </g>
        <g transform="matrix(-0.406767,0.913532,0.913532,0.406767,527.749,499.671)">
            <path d="M17.865,-27.528C7.066,-27.53 -1.696,-18.772 -1.694,-7.966C-1.702,2.842 7.058,11.6 17.865,11.602C28.68,11.608 37.438,2.843 37.435,-7.96C37.44,-18.767 28.676,-27.529 17.865,-27.528" style="fill:rgb(116,116,116);fill-rule:nonzero;"/>
        </g>
        <g transform="matrix(-0.406789,0.913522,0.913522,0.406789,500.485,543.941)">
            <path d="M12.836,-19.76C5.075,-19.76 -1.211,-13.469 -1.215,-5.718C-1.21,2.045 5.077,8.332 12.836,8.336C20.595,8.335 26.877,2.046 26.883,-5.713C26.878,-13.467 20.592,-19.756 12.836,-19.76" style="fill:rgb(116,116,116);fill-rule:nonzero;"/>
        </g>
        <g transform="matrix(-0.406805,0.913515,0.913515,0.406805,466.692,569.321)">
            <path d="M8.451,-13.01C3.345,-13.013 -0.8,-8.872 -0.8,-3.771C-0.8,1.343 3.339,5.489 8.451,5.487C13.56,5.487 17.7,1.347 17.703,-3.764C17.708,-8.867 13.564,-13.01 8.451,-13.01" style="fill:rgb(116,116,116);fill-rule:nonzero;"/>
        </g>
        <g transform="matrix(0.766062,-0.642767,-0.642767,-0.766062,269.433,296.592)">
            <path d="M-20.421,-7.428C-37.963,-7.431 -52.191,6.8 -52.192,24.339C-52.187,41.891 -37.967,56.111 -20.421,56.119C-2.872,56.118 11.361,41.894 11.359,24.342C11.359,6.794 -2.87,-7.427 -20.421,-7.428" style="fill:rgb(116,116,116);fill-rule:nonzero;"/>
        </g>
        <g transform="matrix(0.766009,-0.64283,-0.64283,-0.766009,272.434,220.33)">
            <path d="M-15.941,-5.799C-29.638,-5.8 -40.741,5.309 -40.736,19.004C-40.732,32.7 -29.632,43.799 -15.941,43.804C-2.237,43.798 8.862,32.694 8.863,18.996C8.866,5.303 -2.244,-5.799 -15.941,-5.799" style="fill:rgb(116,116,116);fill-rule:nonzero;"/>
        </g>
        <g transform="matrix(0.76603,-0.642805,-0.642805,-0.76603,301.63,166.318)">
            <path d="M-12.579,-4.575C-23.382,-4.577 -32.142,4.183 -32.141,14.986C-32.145,25.797 -23.387,34.556 -12.579,34.557C-1.765,34.561 6.993,25.797 6.99,14.992C6.994,4.185 -1.768,-4.575 -12.579,-4.575" style="fill:rgb(116,116,116);fill-rule:nonzero;"/>
        </g>
        <g transform="matrix(0.766081,-0.642744,-0.642744,-0.766081,334.804,139.035)">
            <path d="M-9.031,-3.285C-16.786,-3.283 -23.074,3.005 -23.076,10.761C-23.074,18.521 -16.786,24.809 -9.031,24.809C-1.27,24.812 5.016,18.521 5.018,10.763C5.016,3.009 -1.273,-3.279 -9.031,-3.285" style="fill:rgb(116,116,116);fill-rule:nonzero;"/>
        </g>
        <g transform="matrix(0.766117,-0.642701,-0.642701,-0.766117,366.965,131.53)">
            <path d="M-5.945,-2.161C-11.05,-2.164 -15.195,1.978 -15.191,7.081C-15.195,12.193 -11.058,16.338 -5.945,16.337C-0.833,16.338 3.305,12.197 3.309,7.087C3.309,1.98 -0.831,-2.158 -5.945,-2.161" style="fill:rgb(116,116,116);fill-rule:nonzero;"/>
        </g>
        <g transform="matrix(-0.970294,0.241928,0.241928,0.970294,447.308,510.802)">
            <path d="M7.674,-62.595C-9.871,-62.601 -24.099,-48.37 -24.099,-30.825C-24.093,-13.278 -9.871,0.944 7.674,0.952C25.224,0.95 39.453,-13.275 39.455,-30.826C39.453,-48.375 25.223,-62.595 7.674,-62.595" style="fill:rgb(117,148,0);fill-rule:nonzero;"/>
        </g>
        <g transform="matrix(-0.970289,0.241947,0.241947,0.970289,402.272,567.771)">
            <path d="M5.992,-48.861C-7.704,-48.859 -18.807,-37.753 -18.805,-24.06C-18.804,-10.362 -7.7,0.74 5.992,0.741C19.695,0.734 30.793,-10.366 30.794,-24.063C30.797,-37.758 19.69,-48.858 5.992,-48.861" style="fill:rgb(117,148,0);fill-rule:nonzero;"/>
        </g>
        <g transform="matrix(-0.970299,0.24191,0.24191,0.970299,345.668,595.828)">
            <path d="M4.728,-38.557C-6.075,-38.556 -14.834,-29.798 -14.834,-18.993C-14.839,-8.184 -6.08,0.574 4.728,0.577C15.54,0.578 24.3,-8.183 24.297,-18.989C24.3,-29.796 15.54,-38.559 4.728,-38.557" style="fill:rgb(117,148,0);fill-rule:nonzero;"/>
        </g>
        <g transform="matrix(-0.970327,0.241798,0.241798,0.970327,296.832,597.688)">
            <path d="M3.393,-27.676C-4.36,-27.678 -10.651,-21.388 -10.651,-13.635C-10.65,-5.875 -4.363,0.414 3.393,0.413C11.153,0.417 17.44,-5.87 17.442,-13.631C17.44,-21.381 11.153,-27.673 3.393,-27.676" style="fill:rgb(117,148,0);fill-rule:nonzero;"/>
        </g>
        <g transform="matrix(-0.970292,0.241938,0.241938,0.970292,258.504,583.277)">
            <path d="M2.234,-18.222C-2.87,-18.222 -7.015,-14.085 -7.012,-8.979C-7.015,-3.865 -2.874,0.276 2.234,0.274C7.348,0.273 11.486,-3.865 11.488,-8.978C11.487,-14.081 7.349,-18.221 2.234,-18.222" style="fill:rgb(117,148,0);fill-rule:nonzero;"/>
        </g>
        <g transform="matrix(0.978154,0.207882,0.207882,-0.978154,328.908,254.337)">
            <path d="M6.606,-0.695C-10.943,-0.696 -25.168,13.536 -25.167,31.079C-25.164,48.627 -10.938,62.853 6.606,62.855C24.156,62.853 38.386,48.628 38.385,31.077C38.385,13.529 24.155,-0.692 6.606,-0.695" style="fill:rgb(117,148,0);fill-rule:nonzero;"/>
        </g>
        <g transform="matrix(0.978155,0.207877,0.207877,-0.978155,396.957,209.539)">
            <path d="M5.155,-0.542C-8.54,-0.542 -19.644,10.566 -19.642,24.259C-19.64,37.955 -8.536,49.059 5.155,49.06C18.858,49.057 29.957,37.953 29.957,24.257C29.96,10.561 18.855,-0.541 5.155,-0.542" style="fill:rgb(117,148,0);fill-rule:nonzero;"/>
        </g>
        <g transform="matrix(0.978148,0.207909,0.207909,-0.978148,462.076,199.133)">
            <path d="M4.068,-0.428C-6.737,-0.43 -15.495,8.33 -15.495,19.139C-15.501,29.949 -6.737,38.706 4.068,38.709C14.88,38.708 23.64,29.95 23.636,19.141C23.64,8.335 14.88,-0.428 4.068,-0.428" style="fill:rgb(117,148,0);fill-rule:nonzero;"/>
        </g>
        <g transform="matrix(0.978133,0.20798,0.20798,-0.978133,508.836,208.302)">
            <path d="M2.921,-0.307C-4.834,-0.309 -11.124,5.98 -11.124,13.737C-11.123,21.493 -4.835,27.783 2.921,27.782C10.681,27.784 16.969,21.497 16.97,13.739C16.967,5.983 10.682,-0.305 2.921,-0.307" style="fill:rgb(117,148,0);fill-rule:nonzero;"/>
        </g>
        <g transform="matrix(0.978139,0.207952,0.207952,-0.978139,538.755,228.883)">
            <path d="M1.924,-0.203C-3.183,-0.202 -7.325,3.941 -7.324,9.048C-7.325,14.158 -3.186,18.297 1.924,18.297C7.037,18.298 11.176,14.159 11.178,9.05C11.178,3.943 7.036,-0.197 1.924,-0.203" style="fill:rgb(117,148,0);fill-rule:nonzero;"/>
        </g>
        <g transform="matrix(-0.788035,-0.615631,-0.615631,0.788035,279.546,504.085)">
            <path d="M-19.57,-56.817C-37.118,-56.814 -51.341,-42.587 -51.342,-25.039C-51.34,-7.491 -37.113,6.734 -19.57,6.737C-2.018,6.733 12.21,-7.494 12.21,-25.046C12.209,-42.59 -2.022,-56.814 -19.57,-56.817" style="fill:rgb(116,116,116);fill-rule:nonzero;"/>
        </g>
        <g transform="matrix(-0.788036,-0.61563,-0.61563,0.788036,210.86,508.35)">
            <path d="M-15.272,-44.341C-28.968,-44.341 -40.072,-33.234 -40.07,-19.543C-40.068,-5.844 -28.963,5.258 -15.272,5.257C-1.569,5.256 9.533,-5.849 9.531,-19.545C9.534,-33.24 -1.575,-44.341 -15.272,-44.341" style="fill:rgb(116,116,116);fill-rule:nonzero;"/>
        </g>
        <g transform="matrix(-0.78805,-0.615611,-0.615611,0.78805,156.851,484.522)">
            <path d="M-12.054,-34.988C-22.86,-34.986 -31.62,-26.226 -31.618,-15.42C-31.621,-4.609 -22.859,4.148 -12.054,4.15C-1.242,4.15 7.52,-4.612 7.515,-15.42C7.518,-26.225 -1.244,-34.988 -12.054,-34.988" style="fill:rgb(116,116,116);fill-rule:nonzero;"/>
        </g>
        <g transform="matrix(-0.788016,-0.615654,-0.615654,0.788016,128.433,450.895)">
            <path d="M-8.651,-25.112C-16.41,-25.11 -22.697,-18.822 -22.698,-11.065C-22.696,-3.31 -16.407,2.979 -8.651,2.98C-0.891,2.981 5.398,-3.309 5.396,-11.064C5.393,-18.822 -0.893,-25.114 -8.651,-25.112" style="fill:rgb(116,116,116);fill-rule:nonzero;"/>
        </g>
        <g transform="matrix(-0.788011,-0.615661,-0.615661,0.788011,118.889,415.044)">
            <path d="M-5.698,-16.538C-10.805,-16.539 -14.946,-12.398 -14.946,-7.29C-14.948,-2.179 -10.807,1.96 -5.698,1.959C-0.584,1.959 3.555,-2.181 3.557,-7.29C3.555,-12.397 -0.586,-16.536 -5.698,-16.538" style="fill:rgb(116,116,116);fill-rule:nonzero;"/>
        </g>
        <g transform="matrix(0.438335,0.898812,0.898812,-0.438335,432.456,246.969)">
            <path d="M28.553,-17.85C11.009,-17.853 -3.216,-3.625 -3.216,13.92C-3.217,31.467 11.007,45.696 28.553,45.697C46.101,45.699 60.333,31.469 60.333,13.922C60.334,-3.624 46.105,-17.851 28.553,-17.85" style="fill:rgb(117,148,0);fill-rule:nonzero;"/>
        </g>
        <g transform="matrix(0.438467,0.898748,0.898748,-0.438467,508.373,278.997)">
            <path d="M22.288,-13.927C8.59,-13.926 -2.512,-2.819 -2.51,10.874C-2.51,24.57 8.596,35.673 22.288,35.673C35.988,35.671 47.093,24.563 47.089,10.869C47.088,-2.824 35.982,-13.927 22.288,-13.927" style="fill:rgb(117,148,0);fill-rule:nonzero;"/>
        </g>
        <g transform="matrix(0.438505,0.898729,0.898729,-0.438505,555.711,328.393)">
            <path d="M17.584,-10.99C6.777,-10.99 -1.982,-2.227 -1.982,8.579C-1.979,19.388 6.779,28.146 17.584,28.147C28.398,28.145 37.157,19.383 37.154,8.577C37.155,-2.232 28.396,-10.993 17.584,-10.99" style="fill:rgb(117,148,0);fill-rule:nonzero;"/>
        </g>
        <g transform="matrix(0.438321,0.898819,0.898819,-0.438321,576.27,375.617)">
            <path d="M12.624,-7.891C4.867,-7.892 -1.422,-1.602 -1.422,6.154C-1.424,13.912 4.868,20.2 12.624,20.2C20.381,20.204 26.671,13.915 26.673,6.154C26.674,-1.603 20.382,-7.89 12.624,-7.891" style="fill:rgb(117,148,0);fill-rule:nonzero;"/>
        </g>
        <g transform="matrix(0.438369,0.898795,0.898795,-0.438369,577.599,415.979)">
            <path d="M8.312,-5.195C3.202,-5.197 -0.934,-1.055 -0.937,4.053C-0.937,9.164 3.202,13.301 8.312,13.303C13.424,13.303 17.565,9.161 17.565,4.054C17.564,-1.053 13.424,-5.193 8.312,-5.195" style="fill:rgb(117,148,0);fill-rule:nonzero;"/>
        </g>
        <g transform="matrix(0,-1,-1,0,224.506,376.872)">
            <path d="M-31.776,-31.772C-49.32,-31.772 -63.547,-17.545 -63.547,0.003C-63.547,17.55 -49.32,31.776 -31.776,31.776C-14.226,31.776 -0.001,17.55 -0.001,0.003C-0.001,-17.545 -14.226,-31.772 -31.776,-31.772" style="fill:rgb(117,148,0);fill-rule:nonzero;"/>
        </g>
        <g transform="matrix(0,-1,-1,0,173.36,328.05)">
            <path d="M-24.804,-24.797C-38.497,-24.797 -49.599,-13.691 -49.599,0.002C-49.599,13.697 -38.497,24.804 -24.804,24.804C-11.104,24.804 -0.002,13.697 -0.002,0.002C-0.002,-13.691 -11.104,-24.797 -24.804,-24.797" style="fill:rgb(117,148,0);fill-rule:nonzero;"/>
        </g>
        <g transform="matrix(0,-1,-1,0,154.76,272.835)">
            <path d="M-19.571,-19.565C-30.378,-19.565 -39.135,-10.805 -39.135,0.002C-39.135,10.809 -30.378,19.571 -19.571,19.571C-8.758,19.571 -0.001,10.809 -0.001,0.002C-0.001,-10.805 -8.758,-19.565 -19.571,-19.565" style="fill:rgb(117,148,0);fill-rule:nonzero;"/>
        </g>
        <g transform="matrix(0,-1,-1,0,159.411,231.859)">
            <path d="M-14.05,-14.044C-21.805,-14.044 -28.094,-7.755 -28.094,0.003C-28.094,7.762 -21.805,14.05 -14.05,14.05C-6.29,14.05 0,7.762 0,0.003C0,-7.755 -6.29,-14.044 -14.05,-14.044" style="fill:rgb(117,148,0);fill-rule:nonzero;"/>
        </g>
        <g transform="matrix(0,-1,-1,0,178.008,204.108)">
            <path d="M-9.253,-9.247C-14.361,-9.247 -18.502,-5.106 -18.502,0.003C-18.502,5.112 -14.361,9.253 -9.253,9.253C-4.14,9.253 0.001,5.112 0.001,0.003C0.001,-5.106 -4.14,-9.247 -9.253,-9.247" style="fill:rgb(117,148,0);fill-rule:nonzero;"/>
        </g>
    </g>
</svg>
