<?xml version="1.0" encoding="UTF-8"?>
<svg width="288px" height="104px" viewBox="0 0 288 104" version="1.1" xmlns="http://www.w3.org/2000/svg" xmlns:xlink="http://www.w3.org/1999/xlink">
    <!-- Generator: Sketch 51.1 (57501) - http://www.bohemiancoding.com/sketch -->
    <title>COngratulations</title>
    <desc>Created with Sketch.</desc>
    <defs>
        <rect id="path-1" x="0" y="0" width="244" height="96"></rect>
        <filter x="-2.9%" y="-5.2%" width="105.7%" height="114.6%" filterUnits="objectBoundingBox" id="filter-2">
            <feOffset dx="0" dy="2" in="SourceAlpha" result="shadowOffsetOuter1"></feOffset>
            <feGaussianBlur stdDeviation="2" in="shadowOffsetOuter1" result="shadowBlurOuter1"></feGaussianBlur>
            <feColorMatrix values="0 0 0 0 0   0 0 0 0 0   0 0 0 0 0  0 0 0 0.1 0" type="matrix" in="shadowBlurOuter1"></feColorMatrix>
        </filter>
    </defs>
    <g id="Page-1" stroke="none" stroke-width="1" fill="none" fill-rule="evenodd">
        <g id="Landing-page" transform="translate(-774.000000, -1675.000000)">
            <g id="Group-2" transform="translate(320.000000, 1086.000000)">
                <g id="Step-3---colour" transform="translate(60.000000, 583.000000)">
                    <g id="COngratulations" transform="translate(394.000000, 8.000000)">
                        <g id="Group" transform="translate(40.000000, 0.000000)">
                            <g id="Combined-Shape">
                                <use fill="black" fill-opacity="1" filter="url(#filter-2)" xlink:href="#path-1"></use>
                                <use fill="#FFFFFF" fill-rule="evenodd" xlink:href="#path-1"></use>
                            </g>
                            <path d="M23.0750008,51.8909993 L23.0750008,56 L21.9550006,56 L21.9550006,51.8769993 L18.077,46.1999984 L19.4210002,46.1999984 L22.5220007,50.8479992 L25.6230012,46.1999984 L26.9320015,46.1999984 L23.0750008,51.8909993 Z M31.2160007,49.2379989 C33.211001,49.2379989 34.7090013,50.7219991 34.7090013,52.6819995 C34.7090013,54.6489998 33.211001,56.133 31.2160007,56.133 C29.2210004,56.133 27.7300001,54.6489998 27.7300001,52.6819995 C27.7300001,50.7219991 29.2210004,49.2379989 31.2160007,49.2379989 Z M31.2160007,50.2179991 C29.8440005,50.2179991 28.7940003,51.2539992 28.7940003,52.6819995 C28.7940003,54.1099997 29.8440005,55.1529999 31.2160007,55.1529999 C32.5880009,55.1529999 33.6380011,54.1099997 33.6380011,52.6819995 C33.6380011,51.2539992 32.5880009,50.2179991 31.2160007,50.2179991 Z M42.5980012,53.2349995 C42.5980012,55.2019999 41.1840009,56.133 39.5880007,56.133 C37.9850004,56.133 36.5780002,55.2019999 36.5780002,53.2349995 L36.5780002,49.3709989 L37.6210004,49.3709989 L37.6210004,53.1369995 C37.6210004,54.5089998 38.4470005,55.1529999 39.5880007,55.1529999 C40.7220009,55.1529999 41.548001,54.5089998 41.548001,53.1369995 L41.548001,49.3709989 L42.5980012,49.3709989 L42.5980012,53.2349995 Z M46.2730004,45.9199983 L45.5380003,49.4689989 L44.6350001,49.4689989 L45.0550002,45.9199983 L46.2730004,45.9199983 Z M51.4670007,56.014 L50.2420005,56.014 L47.414,49.3709989 L48.5480002,49.3709989 L50.8650006,54.9499998 L53.182001,49.3709989 L54.2880012,49.3709989 L51.4670007,56.014 Z M58.5090007,49.2379989 C60.308001,49.2379989 61.6030012,50.6449991 61.6240012,52.6609995 C61.6240012,52.8079995 61.6170012,52.9339995 61.6030012,53.0529995 L56.2900003,53.0529995 C56.4370003,54.4809998 57.4380005,55.2159999 58.6350007,55.2159999 C59.4540008,55.2159999 60.1680009,54.9079998 60.735001,54.3829997 L61.2950011,55.0969999 C60.469001,55.888 59.5520008,56.133 58.5720007,56.133 C56.6120003,56.133 55.2190001,54.7399998 55.2190001,52.6889995 C55.2190001,50.6589991 56.6260003,49.2379989 58.5090007,49.2379989 Z M58.4880007,50.168999 C57.2630005,50.168999 56.4720003,51.0089992 56.3040003,52.2059994 L60.560001,52.2059994 C60.427001,50.9669992 59.6150008,50.168999 58.4880007,50.168999 Z M70.3110007,49.2379989 C70.7870008,49.2379989 71.1720008,49.3009989 71.5290009,49.4619989 L71.2770009,50.4909991 C70.9480008,50.3159991 70.5210007,50.2249991 70.1290007,50.2249991 C69.0930005,50.2249991 68.3510004,51.0369992 68.3510004,52.2899994 L68.3510004,56 L67.3080002,56 L67.3080002,49.3709989 L68.3440004,49.3709989 L68.3440004,50.3019991 C68.7990004,49.622999 69.4920006,49.2379989 70.3110007,49.2379989 Z M75.9040007,49.2379989 C77.703001,49.2379989 78.9980012,50.6449991 79.0190012,52.6609995 C79.0190012,52.8079995 79.0120012,52.9339995 78.9980012,53.0529995 L73.6850003,53.0529995 C73.8320003,54.4809998 74.8330005,55.2159999 76.0300007,55.2159999 C76.8490008,55.2159999 77.5630009,54.9079998 78.130001,54.3829997 L78.6900011,55.0969999 C77.864001,55.888 76.9470008,56.133 75.9670007,56.133 C74.0070003,56.133 72.6140001,54.7399998 72.6140001,52.6889995 C72.6140001,50.6589991 74.0210003,49.2379989 75.9040007,49.2379989 Z M75.8830007,50.168999 C74.6580005,50.168999 73.8670003,51.0089992 73.6990003,52.2059994 L77.955001,52.2059994 C77.822001,50.9669992 77.0100008,50.168999 75.8830007,50.168999 Z M87.2370012,56 L86.1940011,56 L86.1940011,55.0129998 C85.662001,55.6919999 84.8710008,56.133 83.7720007,56.133 C81.9030004,56.133 80.4610001,54.6769998 80.4610001,52.6819995 C80.4610001,50.6939991 81.9030004,49.2379989 83.7720007,49.2379989 C84.8710008,49.2379989 85.662001,49.685999 86.1940011,50.3579991 L86.1940011,49.3709989 L87.2370012,49.3709989 L87.2370012,56 Z M83.8980007,50.2179991 C82.4770004,50.2179991 81.5250003,51.3169992 81.5250003,52.6819995 C81.5250003,54.0539997 82.4910005,55.1529999 83.8980007,55.1529999 C85.2770009,55.1529999 86.2570011,54.0889997 86.2570011,52.6819995 C86.2570011,51.2819992 85.2770009,50.2179991 83.8980007,50.2179991 Z M92.6130007,49.2379989 C93.6000008,49.2379989 94.475001,49.601999 95.0700011,50.2809991 L94.398001,50.9879992 C93.8940009,50.5049991 93.3130008,50.2179991 92.5850007,50.2179991 C91.2620005,50.2179991 90.2470003,51.2539992 90.2470003,52.6819995 C90.2470003,54.1099997 91.2620005,55.1529999 92.5850007,55.1529999 C93.3130008,55.1529999 93.9430009,54.8309998 94.419001,54.3759997 L95.0700011,55.0899999 C94.461001,55.769 93.6000008,56.133 92.6130007,56.133 C90.5690003,56.133 89.1830001,54.6489998 89.1830001,52.6819995 C89.1830001,50.7219991 90.5690003,49.2379989 92.6130007,49.2379989 Z M97.9050004,50.2949991 C98.4510005,49.5249989 99.3190006,49.2379989 100.124001,49.2379989 C101.762001,49.2379989 102.889001,50.2879991 102.889001,51.8909993 L102.889001,56 L101.846001,56 L101.846001,52.2339994 C101.846001,50.9669992 101.160001,50.2319991 99.9350007,50.2319991 C98.8220005,50.2319991 97.9050004,51.0019992 97.9050004,52.2619994 L97.9050004,56 L96.8550002,56 L96.8550002,45.9199983 L97.9050004,45.9199983 L97.9050004,50.2949991 Z M108.048001,49.2379989 C109.847001,49.2379989 111.142001,50.6449991 111.163001,52.6609995 C111.163001,52.8079995 111.156001,52.9339995 111.142001,53.0529995 L105.829,53.0529995 C105.976,54.4809998 106.977,55.2159999 108.174001,55.2159999 C108.993001,55.2159999 109.707001,54.9079998 110.274001,54.3829997 L110.834001,55.0969999 C110.008001,55.888 109.091001,56.133 108.111001,56.133 C106.151,56.133 104.758,54.7399998 104.758,52.6889995 C104.758,50.6589991 106.165,49.2379989 108.048001,49.2379989 Z M108.027001,50.168999 C106.802,50.168999 106.011,51.0089992 105.843,52.2059994 L110.099001,52.2059994 C109.966001,50.9669992 109.154001,50.168999 108.027001,50.168999 Z M115.916001,49.2379989 C117.015001,49.2379989 117.806001,49.685999 118.338001,50.3579991 L118.338001,45.9199983 L119.381001,45.9199983 L119.381001,56 L118.338001,56 L118.338001,55.0129998 C117.806001,55.6919999 117.015001,56.133 115.916001,56.133 C114.047,56.133 112.605,54.6769998 112.605,52.6819995 C112.605,50.6939991 114.047,49.2379989 115.916001,49.2379989 Z M116.042001,50.2179991 C114.621,50.2179991 113.669,51.3169992 113.669,52.6819995 C113.669,54.0539997 114.635,55.1529999 116.042001,55.1529999 C117.421001,55.1529999 118.401001,54.0889997 118.401001,52.6819995 C118.401001,51.2819992 117.421001,50.2179991 116.042001,50.2179991 Z M126.22,58.8280005 L125.065,58.8280005 L127.536001,54.5649998 L124.491,49.3709989 L125.66,49.3709989 L128.131001,53.5289996 L130.469001,49.3709989 L131.617001,49.3709989 L126.22,58.8280005 Z M135.929001,49.2379989 C137.924001,49.2379989 139.422001,50.7219991 139.422001,52.6819995 C139.422001,54.6489998 137.924001,56.133 135.929001,56.133 C133.934,56.133 132.443,54.6489998 132.443,52.6819995 C132.443,50.7219991 133.934,49.2379989 135.929001,49.2379989 Z M135.929001,50.2179991 C134.557,50.2179991 133.507,51.2539992 133.507,52.6819995 C133.507,54.1099997 134.557,55.1529999 135.929001,55.1529999 C137.301001,55.1529999 138.351001,54.1099997 138.351001,52.6819995 C138.351001,51.2539992 137.301001,50.2179991 135.929001,50.2179991 Z M147.311001,53.2349995 C147.311001,55.2019999 145.897001,56.133 144.301001,56.133 C142.698,56.133 141.291,55.2019999 141.291,53.2349995 L141.291,49.3709989 L142.334,49.3709989 L142.334,53.1369995 C142.334,54.5089998 143.16,55.1529999 144.301001,55.1529999 C145.435001,55.1529999 146.261001,54.5089998 146.261001,53.1369995 L146.261001,49.3709989 L147.311001,49.3709989 L147.311001,53.2349995 Z M152.687001,49.2379989 C153.163001,49.2379989 153.548001,49.3009989 153.905001,49.4619989 L153.653001,50.4909991 C153.324001,50.3159991 152.897001,50.2249991 152.505001,50.2249991 C151.469,50.2249991 150.727,51.0369992 150.727,52.2899994 L150.727,56 L149.684,56 L149.684,49.3709989 L150.72,49.3709989 L150.72,50.3019991 C151.175,49.622999 151.868001,49.2379989 152.687001,49.2379989 Z M162.011001,49.2379989 C163.082001,49.2379989 163.873001,49.671999 164.377001,50.3649991 L164.377001,49.3709989 L165.427001,49.3709989 L165.427001,55.5449999 C165.427001,57.7080003 163.971001,58.9050005 161.920001,58.9050005 C160.863,58.9050005 159.799,58.5760004 159.127,58.0160003 L159.589,57.1760002 C160.226,57.6520003 161.017,57.9530003 161.920001,57.9530003 C163.355001,57.9530003 164.377001,57.1340002 164.377001,55.5869999 L164.377001,54.9079998 C163.873001,55.6079999 163.082001,56.035 162.011001,56.035 C160.149,56.035 158.728,54.6419998 158.728,52.6329994 C158.728,50.6309991 160.149,49.2379989 162.011001,49.2379989 Z M162.130001,50.2179991 C160.723,50.2179991 159.792,51.2959992 159.792,52.6329994 C159.792,53.9769997 160.723,55.0549998 162.130001,55.0549998 C163.495001,55.0549998 164.468001,54.0049997 164.468001,52.6329994 C164.468001,51.2679992 163.495001,50.2179991 162.130001,50.2179991 Z M170.859001,49.2379989 C172.854001,49.2379989 174.352001,50.7219991 174.352001,52.6819995 C174.352001,54.6489998 172.854001,56.133 170.859001,56.133 C168.864,56.133 167.373,54.6489998 167.373,52.6819995 C167.373,50.7219991 168.864,49.2379989 170.859001,49.2379989 Z M170.859001,50.2179991 C169.487,50.2179991 168.437,51.2539992 168.437,52.6819995 C168.437,54.1099997 169.487,55.1529999 170.859001,55.1529999 C172.231001,55.1529999 173.281001,54.1099997 173.281001,52.6819995 C173.281001,51.2539992 172.231001,50.2179991 170.859001,50.2179991 Z M182.570001,56 L181.527001,56 L181.527001,55.0129998 C180.995001,55.6919999 180.204001,56.133 179.105001,56.133 C177.236,56.133 175.794,54.6769998 175.794,52.6819995 C175.794,50.6939991 177.236,49.2379989 179.105001,49.2379989 C180.204001,49.2379989 180.995001,49.685999 181.527001,50.3579991 L181.527001,49.3709989 L182.570001,49.3709989 L182.570001,56 Z M179.231001,50.2179991 C177.81,50.2179991 176.858,51.3169992 176.858,52.6819995 C176.858,54.0539997 177.824,55.1529999 179.231001,55.1529999 C180.610001,55.1529999 181.590001,54.0889997 181.590001,52.6819995 C181.590001,51.2819992 180.610001,50.2179991 179.231001,50.2179991 Z M186.07,56 L185.02,56 L185.02,45.9199983 L186.07,45.9199983 L186.07,56 Z M18.9520002,65.6979986 C19.4140002,65.0119985 20.2750004,64.0739984 21.9550006,64.0739984 C23.943001,64.0739984 25.0840012,65.3759986 25.0840012,67.1049989 C25.0840012,68.3159991 24.405001,69.2049992 23.7680009,69.8769993 L20.8420005,72.9709998 L25.4060012,72.9709998 L25.4060012,74 L19.2390002,74 L19.2390002,73.1529999 L22.9420008,69.2469992 C23.5370009,68.6239991 23.950001,67.944999 23.950001,67.1049989 C23.950001,65.9779987 23.2290009,65.1029985 21.9200006,65.1029985 C20.8070005,65.1029985 20.2050004,65.6839986 19.7360003,66.3279987 L18.9520002,65.6979986 Z M39.6160016,67.2379989 C41.2610018,67.2379989 42.388002,68.2879991 42.388002,69.8909993 L42.388002,74 L41.3450018,74 L41.3450018,70.2339994 C41.3450018,68.9669992 40.6520017,68.2319991 39.4270015,68.2319991 C38.3140013,68.2319991 37.3970012,69.0019992 37.3970012,70.2619994 L37.3970012,74 L36.354001,74 L36.354001,70.2339994 C36.354001,68.9669992 35.6680009,68.2319991 34.4430007,68.2319991 C33.3300005,68.2319991 32.4130004,69.0019992 32.4130004,70.2619994 L32.4130004,74 L31.3630002,74 L31.3630002,67.3709989 L32.3990004,67.3709989 L32.3990004,68.3159991 C32.9450005,67.5249989 33.8130006,67.2379989 34.6320007,67.2379989 C35.8010009,67.2379989 36.6900011,67.755999 37.1170011,68.6309991 C37.6420012,67.601999 38.6850014,67.2379989 39.6160016,67.2379989 Z M47.7430007,67.2379989 C49.738001,67.2379989 51.2360013,68.7219991 51.2360013,70.6819995 C51.2360013,72.6489998 49.738001,74.133 47.7430007,74.133 C45.7480004,74.133 44.2570001,72.6489998 44.2570001,70.6819995 C44.2570001,68.7219991 45.7480004,67.2379989 47.7430007,67.2379989 Z M47.7430007,68.2179991 C46.3710005,68.2179991 45.3210003,69.2539992 45.3210003,70.6819995 C45.3210003,72.1099997 46.3710005,73.1529999 47.7430007,73.1529999 C49.1150009,73.1529999 50.1650011,72.1099997 50.1650011,70.6819995 C50.1650011,69.2539992 49.1150009,68.2179991 47.7430007,68.2179991 Z M56.4510007,67.2379989 C58.089001,67.2379989 59.2160012,68.2879991 59.2160012,69.8909993 L59.2160012,74 L58.173001,74 L58.173001,70.2339994 C58.173001,68.9669992 57.4870009,68.2319991 56.2620007,68.2319991 C55.1490005,68.2319991 54.2320004,69.0019992 54.2320004,70.2619994 L54.2320004,74 L53.1820002,74 L53.1820002,67.3709989 L54.2180004,67.3709989 L54.2180004,68.3159991 C54.7640005,67.5249989 55.6320006,67.2379989 56.4510007,67.2379989 Z M66.0900009,68.3159991 L63.2270005,68.3159991 L63.2270005,71.6619996 C63.2270005,72.6979998 63.7800006,73.1529999 64.5430007,73.1529999 C65.0540008,73.1529999 65.5440008,72.9639998 65.9360009,72.6839998 L66.426001,73.4749999 C65.9220009,73.86 65.2780008,74.133 64.4590007,74.133 C63.0310004,74.133 62.1840003,73.3489999 62.1840003,71.6829996 L62.1840003,68.3159991 L60.7350001,68.3159991 L60.7350001,67.3709989 L62.1840003,67.3709989 L62.1840003,65.2639986 L63.2270005,65.2639986 L63.2270005,67.3709989 L66.0900009,67.3709989 L66.0900009,68.3159991 Z M68.9810004,68.2949991 C69.5270005,67.5249989 70.3950006,67.2379989 71.2000007,67.2379989 C72.838001,67.2379989 73.9650012,68.2879991 73.9650012,69.8909993 L73.9650012,74 L72.922001,74 L72.922001,70.2339994 C72.922001,68.9669992 72.2360009,68.2319991 71.0110007,68.2319991 C69.8980005,68.2319991 68.9810004,69.0019992 68.9810004,70.2619994 L68.9810004,74 L67.9310002,74 L67.9310002,63.9199983 L68.9810004,63.9199983 L68.9810004,68.2949991 Z M80.7900009,68.7779991 C80.3700009,68.4839991 79.5160007,68.154999 78.6200006,68.154999 C77.6750004,68.154999 77.0520003,68.5539991 77.0520003,69.1979992 C77.0520003,69.7579993 77.5280004,70.0239993 78.4030005,70.1289994 L79.1870007,70.2269994 C80.5940009,70.4159994 81.413001,70.9899995 81.413001,72.0749997 C81.413001,73.3349999 80.2790008,74.126 78.4940006,74.126 C77.6400004,74.126 76.5690002,73.909 75.7290001,73.2789999 L76.2120002,72.4949998 C76.7160003,72.8869998 77.3880004,73.2159999 78.5080006,73.2159999 C79.6280007,73.2159999 80.3350009,72.8449998 80.3350009,72.1449997 C80.3350009,71.6129996 79.8940008,71.2909996 78.9490006,71.1789995 L78.1580005,71.0879995 C76.6530003,70.8989995 75.9670001,70.2409994 75.9670001,69.2539992 C75.9670001,67.993999 77.0170003,67.2449989 78.6130006,67.2449989 C79.6560007,67.2449989 80.6010009,67.5389989 81.245001,67.965999 L80.7900009,68.7779991 Z M89.7710007,67.2379989 C91.570001,67.2379989 92.8650012,68.6449991 92.8860012,70.6609995 C92.8860012,70.8079995 92.8790012,70.9339995 92.8650012,71.0529995 L87.5520003,71.0529995 C87.6990003,72.4809998 88.7000005,73.2159999 89.8970007,73.2159999 C90.7160008,73.2159999 91.4300009,72.9079998 91.997001,72.3829997 L92.5570011,73.0969999 C91.731001,73.888 90.8140008,74.133 89.8340007,74.133 C87.8740003,74.133 86.4810001,72.7399998 86.4810001,70.6889995 C86.4810001,68.6589991 87.8880003,67.2379989 89.7710007,67.2379989 Z M89.7500007,68.168999 C88.5250005,68.168999 87.7340003,69.0089992 87.5660003,70.2059994 L91.822001,70.2059994 C91.689001,68.9669992 90.8770008,68.168999 89.7500007,68.168999 Z M101.104001,74 L100.061001,74 L100.061001,73.0129998 C99.529001,73.6919999 98.7380008,74.133 97.6390007,74.133 C95.7700004,74.133 94.3280001,72.6769998 94.3280001,70.6819995 C94.3280001,68.6939991 95.7700004,67.2379989 97.6390007,67.2379989 C98.7380008,67.2379989 99.529001,67.685999 100.061001,68.3579991 L100.061001,67.3709989 L101.104001,67.3709989 L101.104001,74 Z M97.7650007,68.2179991 C96.3440004,68.2179991 95.3920003,69.3169992 95.3920003,70.6819995 C95.3920003,72.0539997 96.3580005,73.1529999 97.7650007,73.1529999 C99.1440009,73.1529999 100.124001,72.0889997 100.124001,70.6819995 C100.124001,69.2819992 99.1440009,68.2179991 97.7650007,68.2179991 Z M106.557001,67.2379989 C107.033001,67.2379989 107.418001,67.3009989 107.775001,67.4619989 L107.523001,68.4909991 C107.194001,68.3159991 106.767001,68.2249991 106.375001,68.2249991 C105.339,68.2249991 104.597,69.0369992 104.597,70.2899994 L104.597,74 L103.554,74 L103.554,67.3709989 L104.59,67.3709989 L104.59,68.3019991 C105.045,67.622999 105.738001,67.2379989 106.557001,67.2379989 Z M110.414,74 L109.364,74 L109.364,63.9199983 L110.414,63.9199983 L110.414,74 Z M113.515,76.8280005 L112.36,76.8280005 L114.831001,72.5649998 L111.786,67.3709989 L112.955,67.3709989 L115.426001,71.5289996 L117.764001,67.3709989 L118.912001,67.3709989 L113.515,76.8280005 Z M120.851,72.3759997 C121.32,72.3759997 121.726,72.7819998 121.726,73.2509999 C121.726,73.72 121.32,74.133 120.851,74.133 C120.382,74.133 119.976,73.72 119.976,73.2509999 C119.976,72.7819998 120.382,72.3759997 120.851,72.3759997 Z" id="You’ve-reached-your" fill="#939598"></path>
                            <path d="M23.929001,20.0179984 C25.6720013,20.0179984 27.2190015,20.7949985 27.9890016,22.0689987 L26.6660014,22.9509988 C26.0710013,22.0759987 25.1050012,21.5369986 23.929001,21.5369986 C21.9340006,21.5369986 20.4570004,22.9859989 20.4570004,25.0999992 C20.4570004,27.2139995 21.9340006,28.6629998 23.929001,28.6629998 C25.0980012,28.6629998 26.0430013,28.1449997 26.6590014,27.2559996 L27.9470016,28.2009997 C27.1140015,29.4259999 25.6510013,30.182 23.929001,30.182 C20.9190005,30.182 18.7980001,28.0329997 18.7980001,25.0999992 C18.7980001,22.1669987 20.9190005,20.0179984 23.929001,20.0179984 Z M32.9940007,23.1189989 C35.066001,23.1189989 36.6060013,24.6379991 36.6060013,26.6469995 C36.6060013,28.6559998 35.066001,30.175 32.9940007,30.175 C30.9220004,30.175 29.3890001,28.6559998 29.3890001,26.6469995 C29.3890001,24.6379991 30.9220004,23.1189989 32.9940007,23.1189989 Z M32.9940007,24.4979991 C31.7970005,24.4979991 30.8940004,25.3799992 30.8940004,26.6469995 C30.8940004,27.9139997 31.7970005,28.7959998 32.9940007,28.7959998 C34.1910009,28.7959998 35.101001,27.9139997 35.101001,26.6469995 C35.101001,25.3799992 34.1910009,24.4979991 32.9940007,24.4979991 Z M41.9330008,23.1189989 C43.529001,23.1189989 44.6560012,24.2179991 44.6560012,25.7859993 L44.6560012,30 L43.186001,30 L43.186001,26.2689994 C43.186001,25.1419992 42.6120009,24.5119991 41.6250007,24.5119991 C40.6800006,24.5119991 39.8890004,25.1349992 39.8890004,26.2829994 L39.8890004,30 L38.4190002,30 L38.4190002,23.2939989 L39.8750004,23.2939989 L39.8750004,24.112999 C40.4140005,23.3289989 41.2470007,23.1189989 41.9330008,23.1189989 Z M49.5070006,23.1189989 C50.4870008,23.1189989 51.2360009,23.4549989 51.740001,24.098999 L51.740001,23.2939989 L53.2100012,23.2939989 L53.2100012,29.5309999 C53.2100012,31.6380003 51.852001,32.9330005 49.6120006,32.9330005 C48.6040005,32.9330005 47.5120003,32.6600004 46.8050002,32.1560004 L47.3370003,30.9170002 C48.0160004,31.3370002 48.7930005,31.5960003 49.6120006,31.5960003 C50.9910009,31.5960003 51.740001,30.8470001 51.740001,29.5939999 L51.740001,29.0549998 C51.2360009,29.699 50.4870008,30.035 49.5070006,30.035 C47.9740004,30.035 46.3990001,28.7469998 46.3990001,26.5769994 C46.3990001,24.4069991 47.9740004,23.1189989 49.5070006,23.1189989 Z M49.8850007,24.4979991 C48.6530005,24.4979991 47.9040004,25.4359993 47.9040004,26.5769994 C47.9040004,27.6969996 48.6530005,28.6559998 49.8850007,28.6559998 C51.0680009,28.6559998 51.866001,27.7529996 51.866001,26.5769994 C51.866001,25.4009992 51.0680009,24.4979991 49.8850007,24.4979991 Z M58.9010007,23.1189989 C59.3490008,23.1189989 59.6920009,23.1749989 60.0280009,23.3079989 L59.6780009,24.7569991 C59.3700008,24.5959991 58.9220007,24.5119991 58.5650007,24.5119991 C57.6340005,24.5119991 56.9690004,25.1629992 56.9690004,26.3109994 L56.9690004,30 L55.5060002,30 L55.5060002,23.2939989 L56.9550004,23.2939989 L56.9550004,24.049999 C57.4030005,23.4059989 58.0820006,23.1189989 58.9010007,23.1189989 Z M67.9590012,30 L66.496001,30 L66.496001,29.1949999 C66.0270009,29.79 65.3480008,30.175 64.3890007,30.175 C62.5130004,30.175 61.0360001,28.6979998 61.0360001,26.6469995 C61.0360001,24.5959991 62.5130004,23.1189989 64.3890007,23.1189989 C65.3480008,23.1189989 66.0270009,23.5109989 66.496001,24.105999 L66.496001,23.2939989 L67.9590012,23.2939989 L67.9590012,30 Z M64.5640007,24.4979991 C63.3040005,24.4979991 62.5410004,25.4709993 62.5410004,26.6469995 C62.5410004,27.8229996 63.3040005,28.7959998 64.5640007,28.7959998 C65.7680009,28.7959998 66.587001,27.8719997 66.587001,26.6469995 C66.587001,25.4219992 65.7680009,24.4979991 64.5640007,24.4979991 Z M74.8260009,24.6239991 L72.2570005,24.6239991 L72.2570005,27.5429996 C72.2570005,28.4389997 72.7330006,28.7959998 73.3210007,28.7959998 C73.7760008,28.7959998 74.2730008,28.5929998 74.6720009,28.3409997 L75.253001,29.5099999 C74.7140009,29.874 74.0420008,30.175 73.1950007,30.175 C71.6760004,30.175 70.7870003,29.3559999 70.7870003,27.5709996 L70.7870003,24.6239991 L69.4500001,24.6239991 L69.4500001,23.2939989 L70.7870003,23.2939989 L70.7870003,21.2639986 L72.2570005,21.2639986 L72.2570005,23.2939989 L74.8260009,23.2939989 L74.8260009,24.6239991 Z M82.7570012,27.1579995 C82.7570012,29.2929999 81.2170009,30.175 79.6490007,30.175 C78.0740004,30.175 76.5410002,29.2929999 76.5410002,27.1579995 L76.5410002,23.2939989 L78.0110004,23.2939989 L78.0110004,27.0249995 C78.0110004,28.3199997 78.7250005,28.7959998 79.6490007,28.7959998 C80.5730008,28.7959998 81.287001,28.3199997 81.287001,27.0249995 L81.287001,23.2939989 L82.7570012,23.2939989 L82.7570012,27.1579995 Z M86.4530004,30 L84.9830002,30 L84.9830002,19.9199983 L86.4530004,19.9199983 L86.4530004,30 Z M95.1890012,30 L93.726001,30 L93.726001,29.1949999 C93.2570009,29.79 92.5780008,30.175 91.6190007,30.175 C89.7430004,30.175 88.2660001,28.6979998 88.2660001,26.6469995 C88.2660001,24.5959991 89.7430004,23.1189989 91.6190007,23.1189989 C92.5780008,23.1189989 93.2570009,23.5109989 93.726001,24.105999 L93.726001,23.2939989 L95.1890012,23.2939989 L95.1890012,30 Z M91.7940007,24.4979991 C90.5340005,24.4979991 89.7710004,25.4709993 89.7710004,26.6469995 C89.7710004,27.8229996 90.5340005,28.7959998 91.7940007,28.7959998 C92.9980009,28.7959998 93.817001,27.8719997 93.817001,26.6469995 C93.817001,25.4219992 92.9980009,24.4979991 91.7940007,24.4979991 Z M102.056001,24.6239991 L99.4870005,24.6239991 L99.4870005,27.5429996 C99.4870005,28.4389997 99.9630006,28.7959998 100.551001,28.7959998 C101.006001,28.7959998 101.503001,28.5929998 101.902001,28.3409997 L102.483001,29.5099999 C101.944001,29.874 101.272001,30.175 100.425001,30.175 C98.9060004,30.175 98.0170003,29.3559999 98.0170003,27.5709996 L98.0170003,24.6239991 L96.6800001,24.6239991 L96.6800001,23.2939989 L98.0170003,23.2939989 L98.0170003,21.2639986 L99.4870005,21.2639986 L99.4870005,23.2939989 L102.056001,23.2939989 L102.056001,24.6239991 Z M105.311,30 L103.841,30 L103.841,23.2939989 L105.311,23.2939989 L105.311,30 Z M104.569,19.9409984 C105.15,19.9409984 105.605,20.3959984 105.605,20.9769985 C105.605,21.5649986 105.15,21.9989987 104.569,21.9989987 C103.981,21.9989987 103.547,21.5649986 103.547,20.9769985 C103.547,20.3959984 103.981,19.9409984 104.569,19.9409984 Z M110.729001,23.1189989 C112.801001,23.1189989 114.341001,24.6379991 114.341001,26.6469995 C114.341001,28.6559998 112.801001,30.175 110.729001,30.175 C108.657,30.175 107.124,28.6559998 107.124,26.6469995 C107.124,24.6379991 108.657,23.1189989 110.729001,23.1189989 Z M110.729001,24.4979991 C109.532001,24.4979991 108.629,25.3799992 108.629,26.6469995 C108.629,27.9139997 109.532001,28.7959998 110.729001,28.7959998 C111.926001,28.7959998 112.836001,27.9139997 112.836001,26.6469995 C112.836001,25.3799992 111.926001,24.4979991 110.729001,24.4979991 Z M119.668001,23.1189989 C121.264001,23.1189989 122.391001,24.2179991 122.391001,25.7859993 L122.391001,30 L120.921001,30 L120.921001,26.2689994 C120.921001,25.1419992 120.347001,24.5119991 119.360001,24.5119991 C118.415001,24.5119991 117.624,25.1349992 117.624,26.2829994 L117.624,30 L116.154,30 L116.154,23.2939989 L117.61,23.2939989 L117.61,24.112999 C118.149001,23.3289989 118.982001,23.1189989 119.668001,23.1189989 Z M129.181001,24.9739992 C128.775001,24.7289991 127.949001,24.3999991 127.109001,24.3999991 C126.304,24.3999991 125.842,24.7219991 125.842,25.1979992 C125.842,25.6739993 126.332,25.7999993 126.948001,25.8909993 L127.641001,25.9959993 C129.104001,26.2129994 129.972001,26.8289995 129.972001,27.9769997 C129.972001,29.2649999 128.852001,30.168 126.920001,30.168 C126.234,30.168 125.016,30.035 124.043,29.3069999 L124.722,28.2079997 C125.198,28.5789998 125.849,28.8939998 126.934001,28.8939998 C127.942001,28.8939998 128.460001,28.5789998 128.460001,28.0749997 C128.460001,27.6899996 128.103001,27.4449996 127.298001,27.3329996 L126.598001,27.2419995 C125.107,27.0389995 124.323,26.3599994 124.323,25.2749992 C124.323,23.951999 125.387,23.1259989 127.095001,23.1259989 C128.152001,23.1259989 129.111001,23.3849989 129.811001,23.832999 L129.181001,24.9739992 Z" id="Congratulations" fill-opacity="0.85" fill="#000000"></path>
                        </g>
                        <circle id="Oval-5" fill="#78BE20" cx="13" cy="17" r="13"></circle>
                        <polyline id="Rectangle-15" stroke="#FFFFFF" stroke-width="2" stroke-linecap="round" transform="translate(12.550658, 15.550658) rotate(-45.000000) translate(-12.550658, -15.550658) " points="16.7148719 17.8220476 8.3864448 17.8220476 8.3864448 13.2792691 8.3864448 13.2792691"></polyline>
                    </g>
                </g>
            </g>
        </g>
    </g>
</svg>