<?xml version="1.0" encoding="UTF-8" standalone="no"?>
<svg width="290px" height="124px" viewBox="0 0 290 124" version="1.1" xmlns="http://www.w3.org/2000/svg" xmlns:xlink="http://www.w3.org/1999/xlink">
    <!-- Generator: Sketch 47 (45396) - http://www.bohemiancoding.com/sketch -->
    <title>Graph@1,5x</title>
    <desc>Created with Sketch.</desc>
    <defs>
        <path d="M147.45455,35 L191,35 L191,0 L88,0 L88,35 L132.428096,35 L139.941323,42.5132272 L147.45455,35 Z" id="path-1"></path>
        <filter x="-6.8%" y="-11.8%" width="113.6%" height="132.9%" filterUnits="objectBoundingBox" id="filter-2">
            <feOffset dx="0" dy="2" in="SourceAlpha" result="shadowOffsetOuter1"></feOffset>
            <feGaussianBlur stdDeviation="2" in="shadowOffsetOuter1" result="shadowBlurOuter1"></feGaussianBlur>
            <feColorMatrix values="0 0 0 0 0   0 0 0 0 0   0 0 0 0 0  0 0 0 0.1 0" type="matrix" in="shadowBlurOuter1"></feColorMatrix>
        </filter>
    </defs>
    <g id="Page-1" stroke="none" stroke-width="1" fill="none" fill-rule="evenodd">
        <g id="Landing-page-v2" transform="translate(-578.000000, -1724.000000)">
            <g id="We’ll-help-you-do-it-in-three-easy-steps…-We’ll-help-you-do-it-in-three-easy-steps…" transform="translate(-172.000000, 798.000000)">
                <g id="Step-2" transform="translate(422.000000, 792.000000)">
                    <g id="Dash-O6---overview@2x" transform="translate(216.000000, 39.000000)">
                        <g id="Graph" transform="translate(112.000000, 95.000000)">
                            <path d="M141.5,122.5 L141.5,0.5" id="Line" stroke="#939598" stroke-linecap="square" stroke-dasharray="3,5"></path>
                            <circle id="Oval-3" stroke="#78BE20" fill="#FFFFFF" cx="142" cy="91" r="7"></circle>
                            <circle id="Oval-3" fill="#78BE20" cx="142" cy="91" r="4"></circle>
                            <g id="On-track" transform="translate(1.000000, 33.000000)">
                                <g id="Combined-Shape">
                                    <use fill="black" fill-opacity="1" filter="url(#filter-2)" xlink:href="#path-1"></use>
                                    <use fill="#333333" fill-rule="evenodd" xlink:href="#path-1"></use>
                                </g>
                                <path d="M115.884001,12.0179984 C118.894001,12.0179984 121.015002,14.1669987 121.015002,17.0999992 C121.015002,20.0329997 118.894001,22.182 115.884001,22.182 C112.874,22.182 110.753,20.0329997 110.753,17.0999992 C110.753,14.1669987 112.874,12.0179984 115.884001,12.0179984 Z M115.884001,13.5369986 C113.889001,13.5369986 112.412,14.9859989 112.412,17.0999992 C112.412,19.2139995 113.889001,20.6629998 115.884001,20.6629998 C117.879001,20.6629998 119.356002,19.2139995 119.356002,17.0999992 C119.356002,14.9859989 117.879001,13.5369986 115.884001,13.5369986 Z M126.475001,15.1189989 C125.789001,15.1189989 124.956001,15.3289989 124.417,16.112999 L124.417,15.2939989 L122.961,15.2939989 L122.961,22 L124.431,22 L124.431,18.2829994 C124.431,17.1349992 125.222001,16.5119991 126.167001,16.5119991 C127.154001,16.5119991 127.728001,17.1419992 127.728001,18.2689994 L127.728001,22 L129.198001,22 L129.198001,17.7859993 C129.198001,16.2179991 128.071001,15.1189989 126.475001,15.1189989 Z M142.246001,13.6979986 L142.246001,12.1999984 L134.322,12.1999984 L134.322,13.6979986 L137.493001,13.6979986 L137.493001,22 L139.075001,22 L139.075001,13.6979986 L142.246001,13.6979986 Z M147.055001,15.1189989 C146.236001,15.1189989 145.557,15.4059989 145.109,16.049999 L145.109,15.2939989 L143.66,15.2939989 L143.66,22 L145.123,22 L145.123,18.3109994 C145.123,17.1629992 145.788001,16.5119991 146.719001,16.5119991 C147.076001,16.5119991 147.524001,16.5959991 147.832001,16.7569991 L148.182001,15.3079989 C147.846001,15.1749989 147.503001,15.1189989 147.055001,15.1189989 Z M156.113001,22 L154.650001,22 L154.650001,21.1949999 C154.181001,21.79 153.502001,22.175 152.543001,22.175 C150.667,22.175 149.19,20.6979998 149.19,18.6469995 C149.19,16.5959991 150.667,15.1189989 152.543001,15.1189989 C153.502001,15.1189989 154.181001,15.5109989 154.650001,16.105999 L154.650001,15.2939989 L156.113001,15.2939989 L156.113001,22 Z M152.718001,16.4979991 C151.458,16.4979991 150.695,17.4709993 150.695,18.6469995 C150.695,19.8229996 151.458,20.7959998 152.718001,20.7959998 C153.922001,20.7959998 154.741001,19.8719997 154.741001,18.6469995 C154.741001,17.4219992 153.922001,16.4979991 152.718001,16.4979991 Z M161.454001,15.1189989 C159.326,15.1189989 157.926,16.6379991 157.926,18.6469995 C157.926,20.6559998 159.326,22.175 161.454001,22.175 C162.462001,22.175 163.344001,21.811 163.960001,21.1039999 L163.057001,20.0959997 C162.630001,20.4949998 162.056001,20.7959998 161.412001,20.7959998 C160.285,20.7959998 159.431,19.9139997 159.431,18.6469995 C159.431,17.3799992 160.285,16.4979991 161.412001,16.4979991 C162.056001,16.4979991 162.546001,16.7429991 163.022001,17.1909992 L163.960001,16.189999 C163.365001,15.4829989 162.462001,15.1189989 161.454001,15.1189989 Z M167.068,17.8419993 L167.068,11.9199983 L165.598,11.9199983 L165.598,22 L167.068,22 L167.068,19.1719995 L167.796001,19.1719995 L170.029001,22 L171.884001,22 L169.049001,18.4509994 L171.856001,15.2939989 L170.015001,15.2939989 L167.803001,17.8419993 L167.068,17.8419993 Z" id="On-Track" fill-opacity="0.85" fill="#FFFFFF"></path>
                            </g>
                            <path d="M287.179855,6.15693892 C287.500782,6.09600055 287.692061,6.08153215 287.753691,6.11353375 C289.415436,6.97639896 289.415436,46.0183329 287.753691,123.239336 L0,123.239336 L0,111.690437 C4.28869455,111.811133 8.59802392,111.872026 12.9265176,111.872026 C126.299734,111.872026 226.525555,70.0969402 287.179855,6.15693892 Z" id="Combined-Shape" fill-opacity="0.1" fill="#78BE20"></path>
                            <path d="M1,111.586042 C118.555823,112.028057 214.555823,77.1660427 289,7" id="Path-3" stroke="#78BE20" stroke-width="2" opacity="0.398041214" stroke-linecap="round"></path>
                        </g>
                    </g>
                </g>
            </g>
        </g>
    </g>
</svg>