<svg id="svg2" xmlns="http://www.w3.org/2000/svg" xmlns:xlink="http://www.w3.org/1999/xlink" viewBox="0 0 2036.52 598.33"><defs><style>.cls-1{fill:none;}.cls-2{clip-path:url(#clip-path);}.cls-3{fill:#737373;}.cls-4{fill:#759400;}.cls-5{fill:#535353;}</style><clipPath id="clip-path" transform="translate(-61.36 -144.45)"><rect class="cls-1" x="-320.69" width="2767.5" height="886.5"/></clipPath></defs><title>logo</title><g id="g10"><g id="g12"><g class="cls-2"><g id="g14"><g id="g20"><path id="path22" class="cls-3" d="M497.77,450.2a39.72,39.72,0,1,1,20.12,52.44,39.72,39.72,0,0,1-20.12-52.44" transform="translate(-61.36 -144.45)"/></g><g id="g24"><path id="path26" class="cls-3" d="M535.77,543.47a31,31,0,1,1,15.71,40.93,31,31,0,0,1-15.71-40.93" transform="translate(-61.36 -144.45)"/></g><g id="g28"><path id="path30" class="cls-3" d="M532.26,624.61a24.46,24.46,0,1,1,12.39,32.3,24.45,24.45,0,0,1-12.39-32.3" transform="translate(-61.36 -144.45)"/></g><g id="g32"><path id="path34" class="cls-3" d="M509.61,678.15a17.56,17.56,0,1,1,8.9,23.18,17.56,17.56,0,0,1-8.9-23.18" transform="translate(-61.36 -144.45)"/></g><g id="g36"><path id="path38" class="cls-3" d="M477.3,708.3a11.56,11.56,0,1,1,5.85,15.27,11.56,11.56,0,0,1-5.85-15.27" transform="translate(-61.36 -144.45)"/></g><g id="g40"><path id="path42" class="cls-3" d="M236.29,387.87a39.72,39.72,0,1,1,4.91-56,39.72,39.72,0,0,1-4.91,56" transform="translate(-61.36 -144.45)"/></g><g id="g44"><path id="path46" class="cls-3" d="M243,287.39a31,31,0,1,1,3.83-43.67A31,31,0,0,1,243,287.39" transform="translate(-61.36 -144.45)"/></g><g id="g48"><path id="path50" class="cls-3" d="M281.76,216a24.46,24.46,0,1,1,3-34.46,24.45,24.45,0,0,1-3,34.46" transform="translate(-61.36 -144.45)"/></g><g id="g52"><path id="path54" class="cls-3" d="M325.59,177.81a17.56,17.56,0,1,1,2.17-24.74,17.56,17.56,0,0,1-2.17,24.74" transform="translate(-61.36 -144.45)"/></g><g id="g56"><path id="path58" class="cls-3" d="M367.84,164.87a11.56,11.56,0,1,1,1.43-16.29,11.55,11.55,0,0,1-1.43,16.29" transform="translate(-61.36 -144.45)"/></g><g id="g60"><path id="path62" class="cls-4" d="M444,558.52A39.72,39.72,0,1,1,415,606.66,39.71,39.71,0,0,1,444,558.52" transform="translate(-61.36 -144.45)"/></g><g id="g64"><path id="path66" class="cls-4" d="M393.89,645.88a31,31,0,1,1-22.58,37.58,31,31,0,0,1,22.58-37.58" transform="translate(-61.36 -144.45)"/></g><g id="g68"><path id="path70" class="cls-4" d="M327.78,693.06A24.46,24.46,0,1,1,310,722.71a24.46,24.46,0,0,1,17.82-29.65" transform="translate(-61.36 -144.45)"/></g><g id="g72"><path id="path74" class="cls-4" d="M271.65,708.18a17.56,17.56,0,1,1-12.8,21.28,17.56,17.56,0,0,1,12.8-21.28" transform="translate(-61.36 -144.45)"/></g><g id="g76"><path id="path78" class="cls-4" d="M228,701.28a11.56,11.56,0,1,1-8.43,14,11.55,11.55,0,0,1,8.43-14" transform="translate(-61.36 -144.45)"/></g><g id="g80"><path id="path82" class="cls-4" d="M332.12,314.1a39.72,39.72,0,1,1,47.11-30.59,39.72,39.72,0,0,1-47.11,30.59" transform="translate(-61.36 -144.45)"/></g><g id="g84"><path id="path86" class="cls-4" d="M415.45,257.54a31,31,0,1,1,36.77-23.88,31,31,0,0,1-36.77,23.88" transform="translate(-61.36 -144.45)"/></g><g id="g88"><path id="path90" class="cls-4" d="M495.55,244.11a24.46,24.46,0,1,1,29-18.84,24.45,24.45,0,0,1-29,18.84" transform="translate(-61.36 -144.45)"/></g><g id="g92"><path id="path94" class="cls-4" d="M552.63,255.13a17.56,17.56,0,1,1,20.83-13.52,17.56,17.56,0,0,1-20.83,13.52" transform="translate(-61.36 -144.45)"/></g><g id="g96"><path id="path98" class="cls-4" d="M588.83,280.46a11.56,11.56,0,1,1,13.72-8.91,11.56,11.56,0,0,1-13.72,8.91" transform="translate(-61.36 -144.45)"/></g><g id="g100"><path id="path102" class="cls-3" d="M325.52,582.81a39.72,39.72,0,1,1-55.76,6.84,39.72,39.72,0,0,1,55.76-6.84" transform="translate(-61.36 -144.45)"/></g><g id="g104"><path id="path106" class="cls-3" d="M225.83,597.13a31,31,0,1,1-43.51,5.34,31,31,0,0,1,43.51-5.34" transform="translate(-61.36 -144.45)"/></g><g id="g108"><path id="path110" class="cls-3" d="M148,574.08a24.46,24.46,0,1,1-34.34,4.22A24.46,24.46,0,0,1,148,574.08" transform="translate(-61.36 -144.45)"/></g><g id="g112"><path id="path114" class="cls-3" d="M101.48,539.16a17.56,17.56,0,1,1-24.65,3,17.56,17.56,0,0,1,24.65-3" transform="translate(-61.36 -144.45)"/></g><g id="g116"><path id="path118" class="cls-3" d="M80,500.51a11.56,11.56,0,1,1-16.23,2,11.56,11.56,0,0,1,16.23-2" transform="translate(-61.36 -144.45)"/></g><g id="g120"><path id="path122" class="cls-4" d="M449.25,344.18a39.72,39.72,0,1,1,53.11,18.3,39.71,39.71,0,0,1-53.11-18.3" transform="translate(-61.36 -144.45)"/></g><g id="g124"><path id="path126" class="cls-4" d="M545.13,375a31,31,0,1,1,41.45,14.27A31,31,0,0,1,545.13,375" transform="translate(-61.36 -144.45)"/></g><g id="g128"><path id="path130" class="cls-4" d="M605,429.88a24.46,24.46,0,1,1,32.71,11.26A24.46,24.46,0,0,1,605,429.88" transform="translate(-61.36 -144.45)"/></g><g id="g132"><path id="path134" class="cls-4" d="M631.48,481.64A17.56,17.56,0,1,1,655,489.73a17.56,17.56,0,0,1-23.48-8.09" transform="translate(-61.36 -144.45)"/></g><g id="g136"><path id="path138" class="cls-4" d="M633.81,525.77a11.56,11.56,0,1,1,15.46,5.33,11.56,11.56,0,0,1-15.46-5.33" transform="translate(-61.36 -144.45)"/></g><g id="g140"><path id="path142" class="cls-4" d="M233.44,504.42a39.72,39.72,0,1,1-39.72-39.72,39.72,39.72,0,0,1,39.72,39.72" transform="translate(-61.36 -144.45)"/></g><g id="g144"><path id="path146" class="cls-4" d="M160.79,434.68a31,31,0,1,1-31-31,31,31,0,0,1,31,31" transform="translate(-61.36 -144.45)"/></g><g id="g148"><path id="path150" class="cls-4" d="M131,359.12a24.46,24.46,0,1,1-24.46-24.46A24.45,24.45,0,0,1,131,359.12" transform="translate(-61.36 -144.45)"/></g><g id="g152"><path id="path154" class="cls-4" d="M129.91,301a17.56,17.56,0,1,1-17.56-17.56A17.56,17.56,0,0,1,129.91,301" transform="translate(-61.36 -144.45)"/></g><g id="g156"><path id="path158" class="cls-4" d="M147.16,260.31a11.56,11.56,0,1,1-11.56-11.57,11.56,11.56,0,0,1,11.56,11.57" transform="translate(-61.36 -144.45)"/></g></g></g></g><g id="text160"><path id="path3525" class="cls-5" d="M868.1,657.15v79.67H843.28V529.46H868.1v22.8q7.78-13.41,19.58-19.85t28.43-6.57q27.36,0,44.4,21.73t17.17,57.14q0,35.41-17.17,57.14t-44.4,21.73q-16.5,0-28.43-6.44T868.1,657.15Zm84-52.44q0-27.23-11.27-42.65T910.08,546.5q-19.58,0-30.85,15.56T868.1,604.71q0,27.23,11.13,42.79t30.85,15.42q19.58,0,30.71-15.42T952.06,604.71Z" transform="translate(-61.36 -144.45)"/><path id="path3527" class="cls-5" d="M1106.86,604.17q-29.91,0-41.44,6.84t-11.53,23.34q0,13.14,8.58,20.92t23.61,7.65q20.52,0,32.86-14.49t12.47-38.76v-5.5h-24.54ZM1156.09,594v85.71h-24.68v-22.8q-8.45,13.68-21.06,20.25t-30.85,6.44q-23.07,0-36.75-12.88T1029.2,636q0-25.35,16.9-38.23t50.7-12.88h34.6v-2.41q0-17-11.27-26.29t-31.39-9.39a102,102,0,0,0-25.08,3.08,99.42,99.42,0,0,0-23.47,9.25V536.3a160.5,160.5,0,0,1,26.29-7.78,120.3,120.3,0,0,1,24.81-2.68q32.59,0,48.69,16.9T1156.09,594Z" transform="translate(-61.36 -144.45)"/><path id="path3529" class="cls-5" d="M1303.64,552.53a31.14,31.14,0,0,0-9.12-3.49,44.26,44.26,0,0,0-10.73-1.21q-20.92,0-32.19,13.68t-11.13,39v79.13h-24.81V529.46h24.81V552.8q7.78-13.68,20.25-20.25t30.31-6.71a43.85,43.85,0,0,1,5.63.4q3.08.27,6.84.94Z" transform="translate(-61.36 -144.45)"/><path id="path3531" class="cls-5" d="M1382.38,486.81v42.65h50.83v19.18h-50.83v81.55q0,18.38,5,23.61t20.52,5.23h25.35v20.66h-25.35q-28.57,0-39.43-10.6t-10.86-38.9V548.64h-18.11V529.46h18.11V486.81Z" transform="translate(-61.36 -144.45)"/><path id="path3533" class="cls-5" d="M1610.57,589v90.67h-24.68V589.82q0-21.33-8.32-31.92t-24.95-10.6q-20,0-31.52,12.74t-11.53,34.74v84.9h-24.81V529.46h24.81V552.8q8.85-13.55,20.79-20.25t27.76-6.71q25.89,0,39.16,16.09T1610.57,589Z" transform="translate(-61.36 -144.45)"/><path id="path3535" class="cls-5" d="M1805.65,598.4v12.07H1692.18q1.61,25.48,15.29,38.9t38.36,13.28a107.79,107.79,0,0,0,27.5-3.49,122.24,122.24,0,0,0,26.56-10.46V672a148,148,0,0,1-27.23,8.58,136.37,136.37,0,0,1-28.3,3q-35.95,0-57-20.92T1666.43,606q0-36.88,19.85-58.48t53.78-21.73q30.31,0,47.88,19.58T1805.65,598.4ZM1781,591.16q-.27-20.25-11.4-32.32t-29.24-12.07q-20.66,0-33.13,11.67T1693,591.3Z" transform="translate(-61.36 -144.45)"/><path id="path3537" class="cls-5" d="M1945.77,552.53a31.14,31.14,0,0,0-9.12-3.49,44.26,44.26,0,0,0-10.73-1.21q-20.92,0-32.19,13.68t-11.13,39v79.13h-24.81V529.46h24.81V552.8q7.78-13.68,20.25-20.25t30.31-6.71a43.85,43.85,0,0,1,5.63.4q3.08.27,6.84.94Z" transform="translate(-61.36 -144.45)"/><path id="path3539" class="cls-5" d="M2089.83,533.89v23.34a96.39,96.39,0,0,0-21.73-8,100.42,100.42,0,0,0-23.34-2.68q-18.38,0-27.63,5.63T2008,569a16.06,16.06,0,0,0,6.57,13.55q6.57,4.83,26.42,9.25l8.45,1.88q26.29,5.63,37.29,16t11.13,28.57q0,20.92-16.63,33.13t-45.47,12.21a139.63,139.63,0,0,1-25.22-2.41,203.45,203.45,0,0,1-27.5-7V648.7a136.45,136.45,0,0,0,27,10.73,103.17,103.17,0,0,0,26.29,3.49q17.44,0,26.82-5.9t9.39-16.9q0-10.06-6.84-15.42T2036,614.36l-8.58-2q-22.94-4.83-33.13-14.75t-10.19-27.5q0-21.19,15-32.73t42.65-11.53a156.68,156.68,0,0,1,25.75,2A109.58,109.58,0,0,1,2089.83,533.89Z" transform="translate(-61.36 -144.45)"/></g><g id="g164"><g class="cls-2"><g id="g166"><g id="g172"><path id="path174" class="cls-5" d="M974.06,337.76q0-47-38-47-16.24,0-28.09,13.46t-14.42,33.54Zm62.59,41.44H893.95q3.41,47.64,60,47.64,36.1,0,63.45-17.09v48.71q-30.34,16.24-78.83,16.23-53,0-82.25-29.37t-29.27-81.92q0-54.47,31.62-86.3t77.76-31.83q47.85,0,74,28.41t26.17,77.12V379.2Z" transform="translate(-61.36 -144.45)"/></g><g id="g176"><path id="path178" class="cls-5" d="M1283.27,469.35H1216V347.8q0-50.84-36.32-50.84a36,36,0,0,0-28.84,13.46q-11.33,13.46-11.32,34.18V469.35H1072V250.6h67.5v34.61h.85q24.14-39.95,70.28-39.95,72.63,0,72.63,90.15Z" transform="translate(-61.36 -144.45)"/></g><g id="g180"><path id="path182" class="cls-5" d="M1474.57,311.48q-12.18-6.62-28.41-6.62-22,0-34.39,16.13t-12.39,43.9V469.35h-67.51V250.6h67.51v40.59h.85q16-44.43,57.68-44.43,10.68,0,16.66,2.56Z" transform="translate(-61.36 -144.45)"/></g><path id="path184" class="cls-5" d="M1568.66,469.35h-67.51V250.6h67.51Z" transform="translate(-61.36 -144.45)"/><g id="g186"><path id="path188" class="cls-5" d="M1739.23,380.48V365.74l-39.73,5.13q-32.9,4.28-32.9,29.69,0,11.54,8,18.91t21.68,7.37q19,0,31-13.14t12-33.22m63.45,88.87H1738.8v-31.4H1738q-22,36.74-65.15,36.74-31.83,0-50.1-18.05t-18.26-48.17q0-63.66,75.41-73.49l59.39-7.9q0-35.89-38.88-35.89-39.09,0-74.34,23.28V263.63q14.1-7.26,38.56-12.82t44.54-5.56q93.57,0,93.57,93.35Z" transform="translate(-61.36 -144.45)"/></g><g id="g190"><path id="path192" class="cls-5" d="M2062.54,469.35h-67.29V347.8q0-50.84-36.32-50.84a36,36,0,0,0-28.84,13.46q-11.33,13.46-11.32,34.18V469.35h-67.5V250.6h67.5v34.61h.85q24.14-39.95,70.28-39.95,72.63,0,72.63,90.15Z" transform="translate(-61.36 -144.45)"/></g><g id="g194"><path id="path196" class="cls-4" d="M1499.68,201.58a39.72,39.72,0,1,1,53.11,18.3,39.71,39.71,0,0,1-53.11-18.3" transform="translate(-61.36 -144.45)"/></g></g></g></g></g></svg>