<?xml version="1.0" encoding="UTF-8" standalone="no"?><!DOCTYPE svg PUBLIC "-//W3C//DTD SVG 1.1//EN" "http://www.w3.org/Graphics/SVG/1.1/DTD/svg11.dtd"><svg width="100%" height="100%" viewBox="0 0 631 786" version="1.1" xmlns="http://www.w3.org/2000/svg" xmlns:xlink="http://www.w3.org/1999/xlink" xml:space="preserve" style="fill-rule:evenodd;clip-rule:evenodd;stroke-linejoin:round;stroke-miterlimit:1.41421;"><rect id="Artboard1" x="0" y="0" width="630.324" height="785.962" style="fill:none;"/><clipPath id="_clip1"><rect x="0" y="0" width="630.324" height="785.962"/></clipPath><g clip-path="url(#_clip1)"><g><path d="M242.569,689.809c-6.832,0 -12.401,-5.543 -12.401,-12.375c0,-6.832 5.543,-12.375 12.401,-12.375l143.86,0c6.832,0 12.375,5.543 12.375,12.375c0,6.832 -5.543,12.375 -12.375,12.375l-143.86,0Z" style="fill-rule:nonzero;"/><path d="M258.553,738.922c-6.832,0 -12.375,-5.543 -12.375,-12.375c0,-6.832 5.569,-12.375 12.375,-12.375l111.891,0c6.832,0 12.375,5.543 12.375,12.375c0,6.832 -5.543,12.375 -12.375,12.375l-111.891,0Z" style="fill-rule:nonzero;"/><path d="M302.845,567.838c0,6.807 -5.517,12.323 -12.323,12.323c-6.806,0 -12.323,-5.518 -12.323,-12.323c-0.052,-52.104 -1.547,-91.033 -8.74,-127.076c-7.115,-35.629 -19.852,-68.655 -42.461,-109.39c-3.3,-5.955 -1.16,-13.458 4.77,-16.758c5.956,-3.3 13.458,-1.16 16.784,4.77c24.002,43.261 37.589,78.479 45.168,116.558c7.501,37.589 9.074,77.962 9.125,131.896Z" style="fill-rule:nonzero;"/><path d="M350.799,567.838c0,6.807 -5.518,12.323 -12.323,12.323c-6.805,0 -12.323,-5.518 -12.323,-12.323c0.053,-53.936 1.624,-94.282 9.126,-131.896c7.58,-38.079 21.167,-73.295 45.169,-116.558c3.301,-5.955 10.828,-8.095 16.759,-4.77c5.956,3.3 8.068,10.828 4.77,16.758c-22.61,40.734 -35.346,73.787 -42.462,109.39c-7.169,36.043 -8.689,74.973 -8.716,127.076Z" style="fill-rule:nonzero;"/><path d="M234.01,337.122c-6.497,-2.063 -10.055,-9.023 -7.992,-15.521c2.088,-6.497 9.023,-10.055 15.521,-7.992c8.611,2.785 16.062,6.523 22.945,9.978l0.67,0.361c10.75,5.414 19.697,9.642 26.348,4.228l15.211,-12.401c5.285,-4.279 13.073,-3.48 17.351,1.805c4.28,5.285 3.48,13.071 -1.805,17.351l-15.211,12.401c-18.949,15.417 -34.444,7.915 -53.109,-1.444l-0.567,-0.258c-6.033,-3.043 -12.582,-6.317 -19.362,-8.508Z" style="fill-rule:nonzero;"/><path d="M326.875,56.338c0,6.832 -5.543,12.375 -12.376,12.375c-6.832,0 -12.375,-5.543 -12.375,-12.375l0,-47.953c0,-6.832 5.543,-12.375 12.375,-12.375c6.834,0 12.376,5.543 12.376,12.375l0,47.953Z" style="fill-rule:nonzero;"/><path d="M387.461,313.609c6.497,-2.088 13.458,1.496 15.521,7.992c2.088,6.497 -1.495,13.458 -7.992,15.521c-6.779,2.191 -13.328,5.491 -19.388,8.534l-0.566,0.258c-18.641,9.358 -34.16,16.887 -53.109,1.443l-15.211,-12.4c-5.285,-4.28 -6.084,-12.066 -1.805,-17.351c4.28,-5.285 12.066,-6.084 17.352,-1.805l15.211,12.401c6.652,5.414 15.572,1.16 26.349,-4.228l0.672,-0.361c6.904,-3.481 14.354,-7.219 22.966,-10.004Z" style="fill-rule:nonzero;"/><path d="M470.193,188.364c39.832,39.832 64.505,94.901 64.505,155.693c0,23.771 -3.815,46.741 -10.828,68.27c-7.244,22.249 -17.995,43.003 -31.53,61.515c-22.713,31.066 -41.146,51.459 -55.455,67.313c-25.756,28.488 -37.048,40.968 -37.048,82.63c0,6.832 -5.543,12.375 -12.375,12.375l-0.311,0l-72.11,0l-72.445,0c-6.832,0 -12.401,-5.543 -12.401,-12.375c0,-41.25 -11.524,-53.857 -37.099,-81.882l-0.026,-0.025l-0.026,0.025c-14.463,-15.829 -33.077,-36.223 -56.358,-68.062c-13.535,-18.512 -24.286,-39.291 -31.53,-61.54c-7.013,-21.502 -10.828,-44.499 -10.828,-68.243c0,-29.751 5.956,-58.214 16.732,-84.202l0.232,-0.49c11.189,-26.813 27.483,-50.944 47.566,-71.001c20.213,-20.212 44.473,-36.558 71.492,-47.747l0,-0.026c25.987,-10.776 54.45,-16.732 84.202,-16.732c29.702,0 58.137,5.956 84.151,16.732c26.966,11.189 51.277,27.56 71.49,47.772m39.729,155.693c0,-53.96 -21.89,-102.815 -57.234,-138.188c-18.071,-18.073 -39.6,-32.613 -63.422,-42.462c-22.945,-9.513 -48.211,-14.772 -74.767,-14.772c-26.529,0 -51.794,5.259 -74.714,14.772l0,-0.025l-0.052,0.025c-23.822,9.849 -45.323,24.389 -63.396,42.462c-17.892,17.892 -32.355,39.239 -42.23,62.803l-0.258,0.67c-9.487,22.919 -14.772,48.185 -14.772,74.714c0,21.192 3.377,41.611 9.565,60.611c6.471,19.773 15.984,38.183 27.947,54.579c22.353,30.576 40.554,50.506 54.708,66.025l-0.026,0.025c27.534,30.087 41.224,45.143 43.364,86.135l120.708,0c2.114,-41.275 15.546,-56.177 43.209,-86.754c13.819,-15.288 31.582,-34.959 53.832,-65.381c11.962,-16.371 21.476,-34.779 27.921,-54.553c6.24,-19.075 9.617,-39.468 9.617,-60.686" style="fill-rule:nonzero;"/><path d="M274.538,788.01c-6.832,0 -12.375,-5.543 -12.375,-12.375c0,-6.832 5.543,-12.375 12.375,-12.375l79.923,0c6.832,0 12.375,5.543 12.375,12.375c0,6.832 -5.543,12.375 -12.375,12.375l-79.923,0Z" style="fill-rule:nonzero;"/><path d="M466.326,100.295c-3.379,5.878 -10.933,7.915 -16.837,4.538c-5.878,-3.377 -7.913,-10.931 -4.536,-16.835l23.977,-41.533c3.377,-5.878 10.932,-7.915 16.835,-4.538c5.904,3.377 7.915,10.931 4.538,16.835l-23.977,41.533Z" style="fill-rule:nonzero;"/><path d="M184.02,88.023c3.377,5.878 1.367,13.432 -4.538,16.81c-5.878,3.377 -13.432,1.34 -16.809,-4.538l-23.977,-41.534c-3.377,-5.878 -1.341,-13.432 4.538,-16.809c5.904,-3.377 13.458,-1.341 16.835,4.537l23.951,41.534Z" style="fill-rule:nonzero;"/><path d="M76.177,186.791c5.878,3.377 7.915,10.931 4.538,16.835c-3.377,5.878 -10.932,7.915 -16.81,4.538l-41.534,-23.977c-5.904,-3.377 -7.94,-10.931 -4.563,-16.809c3.377,-5.904 10.931,-7.915 16.835,-4.538l41.534,23.951Z" style="fill-rule:nonzero;"/><path d="M565.093,208.164c-5.904,3.377 -13.458,1.341 -16.835,-4.538c-3.378,-5.904 -1.341,-13.458 4.537,-16.835l41.534,-23.977c5.902,-3.377 13.456,-1.341 16.835,4.538c3.377,5.878 1.341,13.458 -4.538,16.835l-41.533,23.977Z" style="fill-rule:nonzero;"/><path d="M185.928,392.964c2.63,6.265 -0.309,13.509 -6.574,16.139c-6.265,2.63 -13.509,-0.31 -16.139,-6.574c-4.203,-9.95 -7.477,-20.443 -9.643,-31.271c-2.14,-10.699 -3.3,-21.63 -3.3,-32.613c0,-6.832 5.569,-12.375 12.375,-12.375c6.832,0 12.375,5.569 12.375,12.375c0,9.668 0.954,18.975 2.733,27.792c1.831,9.176 4.615,18.096 8.173,26.527Zm0,-108.668c-2.629,6.265 -9.874,9.204 -16.139,6.574c-6.265,-2.63 -9.204,-9.875 -6.574,-16.139c4.15,-9.823 9.229,-19.13 15.03,-27.767l0.026,-0.026l-0.026,-0.025c5.956,-8.817 12.71,-17.016 20.109,-24.415c7.322,-7.322 15.521,-14.077 24.44,-20.083l0,-0.026c8.56,-5.775 17.918,-10.854 27.818,-15.03c9.926,-4.203 20.393,-7.477 31.247,-9.643c10.699,-2.166 21.682,-3.3 32.639,-3.3c6.834,0 12.376,5.543 12.376,12.375c0,6.832 -5.543,12.375 -12.376,12.375c-9.694,0 -19.026,0.954 -27.818,2.707c-9.204,1.831 -18.099,4.641 -26.503,8.198c-8.172,3.455 -16.062,7.76 -23.564,12.813l-0.026,0c-7.296,4.898 -14.257,10.673 -20.702,17.119c-6.368,6.368 -12.143,13.355 -17.119,20.754l-0.026,-0.026c-5.026,7.452 -9.332,15.341 -12.812,23.565Z" style="fill-rule:nonzero;"/></g></g></svg>