<?xml version="1.0" encoding="iso-8859-1"?>
<!-- Generator: Adobe Illustrator 19.0.0, SVG Export Plug-In . SVG Version: 6.00 Build 0)  -->
<svg version="1.1" id="Capa_1" xmlns="http://www.w3.org/2000/svg" xmlns:xlink="http://www.w3.org/1999/xlink" x="0px" y="0px"
	 viewBox="0 0 60 60" style="enable-background:new 0 0 60 60;" xml:space="preserve">
<g>
	<g>
		<path d="M57,0H3C1.3,0,0,1.3,0,3v36v10c0,0.6,0.4,1,1,1h21v8h-3v2h3h2h12h2h3v-2h-3v-8h21c0.6,0,1-0.4,1-1V39V3
			C60,1.3,58.7,0,57,0z M3,2h54c0.6,0,1,0.4,1,1v35h-2V5c0-0.6-0.4-1-1-1H5C4.4,4,4,4.4,4,5v33H2V3C2,2.4,2.4,2,3,2z M54,38H6V6h48
			V38z M36,58H24v-8h12V58z M58,48H37H23H2v-8h3h50h3V48z"/>
		<path d="M10.8,27.7l7.3-7.3c0.6,0.3,1.3,0.6,2,0.6c0.8,0,1.4-0.2,2-0.6l7.5,7.5c-0.4,0.6-0.6,1.3-0.6,2c0,2.2,1.8,4,4,4s4-1.8,4-4
			c0-0.7-0.2-1.4-0.6-2l12.3-12.3l-1.4-1.4L35,26.5c-0.6-0.4-1.3-0.6-2-0.6s-1.4,0.2-2,0.6l-7.6-7.6c0.3-0.6,0.6-1.3,0.6-2
			c0-2.2-1.8-4-4-4s-4,1.8-4,4c0,0.8,0.2,1.4,0.6,2l-7.2,7.2L10.8,27.7z M35,30c0,1.1-0.9,2-2,2s-2-0.9-2-2s0.9-2,2-2S35,28.9,35,30
			z M20,15c1.1,0,2,0.9,2,2s-0.9,2-2,2s-2-0.9-2-2S18.9,15,20,15z"/>
		<rect x="28" y="12" width="2" height="2"/>
		<rect x="32" y="12" width="2" height="2"/>
		<rect x="28" y="16" width="10" height="2"/>
		<rect x="41" y="28" width="2" height="2"/>
		<rect x="45" y="28" width="2" height="2"/>
		<rect x="41" y="32" width="10" height="2"/>
		<rect x="19" y="16" width="2" height="2"/>
		<rect x="32" y="29" width="2" height="2"/>
	</g>
</g>
<g>
</g>
<g>
</g>
<g>
</g>
<g>
</g>
<g>
</g>
<g>
</g>
<g>
</g>
<g>
</g>
<g>
</g>
<g>
</g>
<g>
</g>
<g>
</g>
<g>
</g>
<g>
</g>
<g>
</g>
</svg>
