<svg width="43" height="43" viewBox="0 0 43 43" fill="none" xmlns="http://www.w3.org/2000/svg">
<g clip-path="url(#clip0)">
<path d="M0.629883 31.396C0.977631 31.396 1.25977 31.1142 1.25977 30.7662V12.4205H38.4757V19.3443C38.4757 19.6924 38.7578 19.9742 39.1055 19.9742C39.4536 19.9742 39.7354 19.6924 39.7354 19.3443V6.8959C39.7354 4.78416 38.0174 3.06609 35.9059 3.06609H34.2541V2.28595C34.2541 1.44217 33.5678 0.755859 32.724 0.755859H31.5538C30.7104 0.755859 30.0241 1.44217 30.0241 2.28595V3.06609H25.8465V2.28595C25.8465 1.44217 25.1602 0.755859 24.3164 0.755859H23.1462C22.3028 0.755859 21.6165 1.44217 21.6165 2.28595V3.06609H17.4386V2.28595C17.4386 1.44217 16.7523 0.755859 15.9085 0.755859H14.7386C13.8948 0.755859 13.2085 1.44217 13.2085 2.28595V3.06609H9.03094V2.28595C9.03094 1.44217 8.34463 0.755859 7.50085 0.755859H6.33098C5.4872 0.755859 4.80089 1.44217 4.80089 2.28595V3.06609H3.82982C1.71807 3.06609 0 4.78416 0 6.8959V30.7662C0 31.1142 0.282135 31.396 0.629883 31.396ZM31.2838 2.28595C31.2838 2.13701 31.4052 2.01562 31.5542 2.01562H32.7244C32.8733 2.01562 32.9944 2.13701 32.9944 2.28595V5.34613C32.9944 5.49507 32.8733 5.61646 32.7244 5.61646H31.5542C31.4052 5.61646 31.2838 5.4954 31.2838 5.34613V2.28595ZM22.8762 2.28595C22.8762 2.13701 22.9973 2.01562 23.1462 2.01562H24.3164C24.4654 2.01562 24.5868 2.13701 24.5868 2.28595V5.34613C24.5868 5.49507 24.4654 5.61646 24.3164 5.61646H23.1462C22.9973 5.61646 22.8762 5.4954 22.8762 5.34613V2.28595ZM14.4683 2.28595C14.4683 2.13701 14.5897 2.01562 14.7386 2.01562H15.9088C16.0577 2.01562 16.1791 2.13701 16.1791 2.28595V5.34613C16.1791 5.49507 16.0577 5.61646 15.9088 5.61646H14.7386C14.5897 5.61646 14.4683 5.4954 14.4683 5.34613V2.28595ZM6.06065 2.28595C6.06065 2.13701 6.18204 2.01562 6.33098 2.01562H7.50118C7.65012 2.01562 7.77118 2.13701 7.77118 2.28595V5.34613C7.77118 5.49507 7.65012 5.61646 7.50118 5.61646H6.33098C6.18204 5.61646 6.06065 5.4954 6.06065 5.34613V2.28595ZM3.82982 4.32585H4.80089V5.34613C4.80089 6.18991 5.4872 6.87622 6.33098 6.87622H7.50118C8.34463 6.87622 9.03094 6.18991 9.03094 5.34613V4.32585H13.2088V5.34613C13.2088 6.18991 13.8951 6.87622 14.7386 6.87622H15.9088C16.7526 6.87622 17.4389 6.18991 17.4389 5.34613V4.32585H21.6165V5.34613C21.6165 6.18991 22.3028 6.87622 23.1466 6.87622H24.3168C25.1602 6.87622 25.8465 6.18991 25.8465 5.34613V4.32585H30.0241V5.34613C30.0241 6.18991 30.7104 6.87622 31.5542 6.87622H32.7244C33.5678 6.87622 34.2541 6.18991 34.2541 5.34613V4.32585H35.9059C37.3232 4.32585 38.476 5.47867 38.476 6.8959V11.1607H1.25977V6.8959C1.25977 5.47867 2.41258 4.32585 3.82982 4.32585Z" fill="#83B441"/>
<path d="M7.13113 37.254H1.63868C1.4297 37.254 1.25977 37.084 1.25977 36.875V33.6367C1.25977 33.2886 0.977631 33.0068 0.629883 33.0068C0.282135 33.0068 0 33.2886 0 33.6367V36.875C0 37.7785 0.735191 38.5137 1.63868 38.5137H7.13113C7.47887 38.5137 7.76101 38.2316 7.76101 37.8838C7.76101 37.5358 7.47887 37.254 7.13113 37.254Z" fill="#83B441"/>
<path d="M7.11012 14.2573H4.92062C4.57288 14.2573 4.29074 14.5395 4.29074 14.8872C4.29074 15.2353 4.57288 15.5171 4.92062 15.5171H7.11012C7.45787 15.5171 7.74 15.2353 7.74 14.8872C7.74 14.5395 7.45787 14.2573 7.11012 14.2573Z" fill="#83B441"/>
<path d="M11.6492 15.5171H13.8387C14.1865 15.5171 14.4686 15.2353 14.4686 14.8872C14.4686 14.5395 14.1865 14.2573 13.8387 14.2573H11.6492C11.3015 14.2573 11.0193 14.5395 11.0193 14.8872C11.0193 15.2353 11.3015 15.5171 11.6492 15.5171Z" fill="#83B441"/>
<path d="M18.3778 15.5171H20.567C20.9147 15.5171 21.1969 15.2353 21.1969 14.8872C21.1969 14.5395 20.9147 14.2573 20.567 14.2573H18.3778C18.0297 14.2573 17.7479 14.5395 17.7479 14.8872C17.7479 15.2353 18.0297 15.5171 18.3778 15.5171Z" fill="#83B441"/>
<path d="M25.1061 15.5171H27.2956C27.6433 15.5171 27.9255 15.2353 27.9255 14.8872C27.9255 14.5395 27.6433 14.2573 27.2956 14.2573H25.1061C24.7583 14.2573 24.4762 14.5395 24.4762 14.8872C24.4762 15.2353 24.7583 15.5171 25.1061 15.5171Z" fill="#83B441"/>
<path d="M34.0238 14.2573H31.8347C31.4866 14.2573 31.2048 14.5395 31.2048 14.8872C31.2048 15.2353 31.4866 15.5171 31.8347 15.5171H34.0238C34.3716 15.5171 34.6537 15.2353 34.6537 14.8872C34.6537 14.5395 34.3716 14.2573 34.0238 14.2573Z" fill="#83B441"/>
<path d="M7.11012 17.4248H4.92062C4.57288 17.4248 4.29074 17.7066 4.29074 18.0547C4.29074 18.4028 4.57288 18.6846 4.92062 18.6846H7.11012C7.45787 18.6846 7.74 18.4028 7.74 18.0547C7.74 17.7066 7.45787 17.4248 7.11012 17.4248Z" fill="#83B441"/>
<path d="M11.6492 18.6846H13.8387C14.1865 18.6846 14.4686 18.4028 14.4686 18.0547C14.4686 17.7066 14.1865 17.4248 13.8387 17.4248H11.6492C11.3015 17.4248 11.0193 17.7066 11.0193 18.0547C11.0193 18.4028 11.3015 18.6846 11.6492 18.6846Z" fill="#83B441"/>
<path d="M18.3778 18.6846H20.567C20.9147 18.6846 21.1969 18.4028 21.1969 18.0547C21.1969 17.7066 20.9147 17.4248 20.567 17.4248H18.3778C18.0297 17.4248 17.7479 17.7066 17.7479 18.0547C17.7479 18.4028 18.0297 18.6846 18.3778 18.6846Z" fill="#83B441"/>
<path d="M25.1061 18.6846H27.2956C27.6433 18.6846 27.9255 18.4028 27.9255 18.0547C27.9255 17.7066 27.6433 17.4248 27.2956 17.4248H25.1061C24.7583 17.4248 24.4762 17.7066 24.4762 18.0547C24.4762 18.4028 24.7583 18.6846 25.1061 18.6846Z" fill="#83B441"/>
<path d="M34.0238 17.4248H31.8347C31.4866 17.4248 31.2048 17.7066 31.2048 18.0547C31.2048 18.4028 31.4866 18.6846 31.8347 18.6846H34.0238C34.3716 18.6846 34.6537 18.4028 34.6537 18.0547C34.6537 17.7066 34.3716 17.4248 34.0238 17.4248Z" fill="#83B441"/>
<path d="M11.6646 31.0502L14.9033 34.2888C15.3718 34.7573 15.9944 35.0152 16.6571 35.0152C17.3198 35.0152 17.9428 34.7573 18.4109 34.2888L27.2801 25.4196C28.2473 24.4525 28.2473 22.8788 27.2801 21.9116C26.313 20.9445 24.7393 20.9445 23.7722 21.9116L16.6571 29.0267L15.1723 27.5422C14.2055 26.5751 12.6318 26.5751 11.6643 27.5422C10.6975 28.5093 10.6975 30.083 11.6646 31.0502ZM12.5553 28.4329C12.7932 28.195 13.1058 28.0759 13.4185 28.0759C13.7311 28.0759 14.0437 28.195 14.2816 28.4329L16.2116 30.3629C16.4576 30.6089 16.8562 30.6089 17.1023 30.3629L24.6628 22.8027C25.1392 22.3266 25.9134 22.3266 26.3891 22.8023C26.8651 23.2783 26.8651 24.0529 26.3891 24.5289L17.5202 33.3978C17.2896 33.6284 16.9832 33.7554 16.6571 33.7554C16.331 33.7554 16.0246 33.6284 15.794 33.3978L12.5553 30.1592C12.0793 29.6831 12.0793 28.9089 12.5553 28.4329Z" fill="#83B441"/>
<path d="M39.7355 27.2411V22.2148C39.7355 21.8668 39.4536 21.585 39.1056 21.585C38.7578 21.585 38.4757 21.8668 38.4757 22.2148V26.4377C37.3271 25.8422 36.0237 25.5053 34.6432 25.5053C30.0353 25.5053 26.2865 29.2541 26.2865 33.8621C26.2865 35.069 26.544 36.2166 27.0062 37.254H10.0014C9.65363 37.254 9.37149 37.5358 9.37149 37.8838C9.37149 38.2316 9.65363 38.5137 10.0014 38.5137H27.704C29.2056 40.7469 31.7556 42.2189 34.6432 42.2189C39.2512 42.2189 43 38.4701 43 33.8621C43 31.1694 41.7193 28.7702 39.7355 27.2411ZM34.6432 40.9591C30.7298 40.9591 27.5462 37.7756 27.5462 33.8621C27.5462 29.9486 30.7301 26.7651 34.6432 26.7651C38.5564 26.7651 41.7402 29.9486 41.7402 33.8621C41.7402 37.7756 38.5564 40.9591 34.6432 40.9591Z" fill="#83B441"/>
<path d="M34.6432 27.6753C31.2317 27.6753 28.4563 30.451 28.4563 33.8623C28.4563 37.2738 31.2317 40.0492 34.6432 40.0492C38.0548 40.0492 40.8299 37.2738 40.8299 33.8623C40.8299 30.451 38.0544 27.6753 34.6432 27.6753ZM35.2072 38.756C35.2488 38.6717 35.2731 38.5772 35.2731 38.4768V37.7095C35.2731 37.3617 34.991 37.0796 34.6432 37.0796C34.2955 37.0796 34.0133 37.3617 34.0133 37.7095V38.4768C34.0133 38.5772 34.0373 38.6717 34.0793 38.756C31.8124 38.4965 30.009 36.6931 29.7495 34.4262C29.8335 34.4682 29.9283 34.4921 30.0287 34.4921H30.7957C31.1438 34.4921 31.4256 34.2103 31.4256 33.8623C31.4256 33.5142 31.1438 33.2324 30.7957 33.2324H30.0287C29.9283 33.2324 29.8335 33.2566 29.7495 33.2983C30.009 31.0314 31.8124 29.228 34.0793 28.9685C34.0373 29.0528 34.0133 29.1473 34.0133 29.2477V30.015C34.0133 30.3631 34.2955 30.6449 34.6432 30.6449C34.991 30.6449 35.2731 30.3631 35.2731 30.015V29.2477C35.2731 29.1473 35.2488 29.0528 35.2072 28.9685C37.4741 29.228 39.2775 31.0314 39.537 33.2983C39.4526 33.2566 39.3582 33.2324 39.2578 33.2324H38.4904C38.1427 33.2324 37.8605 33.5142 37.8605 33.8623C37.8605 34.2103 38.1427 34.4921 38.4904 34.4921H39.2578C39.3582 34.4921 39.4526 34.4682 39.537 34.4262C39.2771 36.6931 37.4741 38.4965 35.2072 38.756Z" fill="#83B441"/>
<path d="M36.0316 33.2321H35.2731V32.5862C35.2731 32.2384 34.991 31.9563 34.6432 31.9563C34.2951 31.9563 34.0133 32.2384 34.0133 32.5862V33.862C34.0133 34.2101 34.2951 34.4919 34.6432 34.4919H36.0316C36.3793 34.4919 36.6615 34.2101 36.6615 33.862C36.6615 33.5139 36.3793 33.2321 36.0316 33.2321Z" fill="#83B441"/>
</g>
<defs>
<clipPath id="clip0">
<rect width="43" height="43" fill="white"/>
</clipPath>
</defs>
</svg>
