<svg xmlns="http://www.w3.org/2000/svg" width="50" height="50" viewBox="0 0 50 50">
    <path style="text-indent:0;text-align:start;line-height:normal;text-transform:none;block-progression:tb;-inkscape-font-specification:Bitstream Vera Sans" d="M 19 0 C 8.6218855 0 0 7.4926136 0 16.90625 C 0 21.460255 2.0442573 25.588885 5.3125 28.625 C 4.8327822 30.041534 3.8134104 31.171854 2.71875 32.0625 C 2.1106053 32.557303 1.5169024 32.983714 1.03125 33.40625 C 0.78842381 33.617518 0.56819235 33.803415 0.375 34.09375 C 0.18180765 34.384085 -0.0098169 34.881121 0.125 35.375 L 0.25 35.75 L 0.59375 35.96875 C 1.6324159 36.557327 2.8945314 36.626062 4.21875 36.53125 C 5.5429686 36.43644 6.972632 36.135909 8.375 35.75 C 10.31045 35.217397 11.96374 34.58602 13.34375 34.03125 C 16.131983 40.500222 23.082104 44.8125 31 44.8125 C 32.345 44.8125 33.69875 44.6285 34.96875 44.4375 C 36.33775 45.0445 42.3025 47.59375 46.4375 47.59375 C 47.6245 47.59375 48.54725 47.38375 49.28125 46.96875 L 49.65625 46.75 L 49.75 46.375 C 50.043 45.303 49.13775 44.555 47.96875 43.625 C 46.79475 42.691 45.2365 41.44875 44.5625 39.71875 C 47.9705 36.57975 49.90625 32.31325 49.90625 27.90625 C 49.90625 20.709904 44.656721 14.209017 37.09375 11.90625 C 34.708719 4.9708235 27.45857 0 19 0 z M 19 2 C 26.616198 2 32.970743 6.3973258 35.125 12.40625 C 35.132812 12.428041 35.148548 12.446917 35.15625 12.46875 C 35.167044 12.499295 35.176922 12.531872 35.1875 12.5625 C 35.323359 12.95673 35.43221 13.342912 35.53125 13.75 C 35.600686 14.032147 35.636538 14.305962 35.6875 14.59375 C 35.700302 14.666601 35.707147 14.739314 35.71875 14.8125 C 35.761167 15.077255 35.817459 15.356002 35.84375 15.625 C 35.847712 15.665541 35.84016 15.709367 35.84375 15.75 C 35.876478 16.12935 35.90625 16.519766 35.90625 16.90625 C 35.90625 17.41975 35.870643 17.905977 35.8125 18.40625 C 35.754691 18.915592 35.677602 19.412814 35.5625 19.90625 C 35.335668 20.875312 34.993203 21.7965 34.5625 22.6875 C 34.131797 23.5785 33.611613 24.425937 33 25.21875 C 32.694193 25.615156 32.346729 26.006914 32 26.375 C 31.653271 26.743086 31.291031 27.10025 30.90625 27.4375 C 30.527682 27.769604 30.131597 28.106389 29.71875 28.40625 C 27.618933 29.925742 25.076611 31.002969 22.3125 31.5 C 21.206855 31.698812 20.078 31.8125 18.90625 31.8125 C 18.229821 31.8125 17.556681 31.778066 16.90625 31.71875 C 16.87507 31.715906 16.843588 31.721753 16.8125 31.71875 C 16.726894 31.710492 16.646239 31.696878 16.5625 31.6875 C 16.331874 31.661673 16.092084 31.628139 15.875 31.59375 C 15.579094 31.546875 15.304 31.5005 15.03125 31.4375 L 14.71875 31.34375 L 14.40625 31.46875 C 13.118654 32.013007 10.489014 33.115817 7.84375 33.84375 C 6.521118 34.207716 5.1820314 34.482343 4.0625 34.5625 C 3.5662601 34.59803 3.3586186 34.448923 2.96875 34.40625 C 3.2897004 34.157111 3.5598164 33.95772 3.96875 33.625 C 5.3024607 32.539856 6.9414441 30.968582 7.46875 28.625 L 7.59375 28.03125 L 7.15625 27.625 C 3.955634 24.895063 2 21.095139 2 16.90625 C 2 8.7198864 9.5781145 2 19 2 z" color="#000" overflow="visible" enable-background="accumulate" font-family="Bitstream Vera Sans"/>
</svg>