<svg width="46" height="46" viewBox="0 0 46 46" fill="none" xmlns="http://www.w3.org/2000/svg">
<path d="M22.1016 16.739C22.9697 16.7388 23.8316 16.5932 24.6517 16.3084L28.6614 17.0098C28.7729 17.0293 28.8875 17.0183 28.9933 16.9781C29.099 16.9379 29.192 16.8699 29.2623 16.7813C29.3327 16.6926 29.3778 16.5867 29.393 16.4745C29.4081 16.3624 29.3927 16.2483 29.3485 16.1442L28.2997 13.6781C29.353 12.3171 29.9225 10.6437 29.918 8.92261C29.918 7.37667 29.4596 5.86545 28.6007 4.58005C27.7418 3.29465 26.521 2.2928 25.0928 1.70119C23.6645 1.10959 22.0929 0.954797 20.5767 1.25639C19.0604 1.55799 17.6677 2.30243 16.5745 3.39558C15.4814 4.48872 14.737 5.88147 14.4354 7.39771C14.1338 8.91394 14.2886 10.4856 14.8802 11.9138C15.4718 13.3421 16.4736 14.5628 17.759 15.4217C19.0444 16.2806 20.5556 16.739 22.1016 16.739ZM22.1016 2.36402C23.355 2.36028 24.5831 2.71642 25.64 3.39014C26.697 4.06385 27.5383 5.02682 28.064 6.16462C28.5898 7.30242 28.7779 8.56723 28.6059 9.80878C28.434 11.0503 27.9093 12.2164 27.0941 13.1685C27.0184 13.2575 26.9689 13.3658 26.9513 13.4813C26.9337 13.5968 26.9485 13.7149 26.9943 13.8224L27.738 15.5713L24.7046 15.0407C24.5949 15.0216 24.4822 15.0319 24.3778 15.0705C23.4783 15.4036 22.5168 15.5354 21.5609 15.4565C20.605 15.3775 19.6781 15.0899 18.8455 14.6138C18.0129 14.1377 17.2948 13.4848 16.742 12.701C16.1891 11.9172 15.815 11.0217 15.6458 10.0776C15.4767 9.1335 15.5168 8.16379 15.7631 7.23685C16.0095 6.30991 16.4563 5.4483 17.0718 4.71278C17.6874 3.97726 18.4569 3.38573 19.3259 2.97991C20.195 2.57409 21.1424 2.36385 22.1016 2.36402Z" fill="#83B441"/>
<path d="M20.429 11.533C20.4874 11.5914 20.5568 11.6378 20.6331 11.6694C20.7094 11.701 20.7912 11.7173 20.8738 11.7173C20.9564 11.7173 21.0381 11.701 21.1144 11.6694C21.1908 11.6378 21.2601 11.5914 21.3185 11.533L25.3704 7.48162C25.4884 7.36368 25.5547 7.2037 25.5547 7.0369C25.5547 6.87009 25.4884 6.71012 25.3704 6.59217C25.2525 6.47422 25.0925 6.40796 24.9257 6.40796C24.7589 6.40796 24.5989 6.47422 24.481 6.59217L20.8742 10.1989L19.723 9.04769C19.6051 8.92974 19.4451 8.86348 19.2783 8.86348C19.1115 8.86348 18.9515 8.92974 18.8336 9.04769C18.7156 9.16564 18.6494 9.32561 18.6494 9.49242C18.6494 9.65922 18.7156 9.8192 18.8336 9.93715L20.429 11.533Z" fill="#83B441"/>
<path d="M1.79687 44.8937H21.5625C21.7293 44.8937 21.8893 44.8275 22.0072 44.7095C22.1251 44.5916 22.1914 44.4316 22.1914 44.2648V41.051C22.1937 40.761 22.1625 40.4718 22.0982 40.1891C22.0865 40.1389 22.0737 40.0889 22.0602 40.0398C21.8819 39.406 21.5484 38.8266 21.0899 38.3541C20.6314 37.8816 20.0624 37.5308 19.4343 37.3335L15.1557 35.9464V34.1822C15.9288 33.703 16.5943 33.0689 17.1103 32.3199C17.6264 31.5709 17.9818 30.7232 18.1542 29.8301L18.3827 29.0439C18.895 28.8507 19.3187 28.4767 19.5739 27.9924C19.8291 27.5081 19.8982 26.9471 19.768 26.4154C19.7021 26.1384 19.5722 25.8808 19.3886 25.6631C19.205 25.4455 18.973 25.274 18.7111 25.1623V22.3875C18.7045 20.5274 17.9609 18.7457 16.6432 17.4328C15.3255 16.1198 13.5412 15.3826 11.6811 15.3826C9.82094 15.3826 8.03661 16.1198 6.71894 17.4328C5.40128 18.7457 4.65768 20.5274 4.65103 22.3875V25.161C4.38843 25.2724 4.15567 25.4439 3.97153 25.6618C3.78738 25.8796 3.65699 26.1377 3.59087 26.4151C3.46072 26.9469 3.52978 27.5079 3.78501 27.9922C4.04024 28.4765 4.46396 28.8506 4.97617 29.0439L5.20474 29.8301C5.37713 30.7232 5.73254 31.5709 6.24859 32.3199C6.76465 33.0689 7.43017 33.703 8.20327 34.1822V35.9464L3.92509 37.3335C3.29701 37.5308 2.72801 37.8815 2.26954 38.354C1.81106 38.8264 1.47758 39.4057 1.29923 40.0394C1.28569 40.0889 1.27293 40.139 1.26096 40.1897C1.19685 40.4722 1.16565 40.7612 1.16797 41.051V44.2648C1.16797 44.4316 1.23423 44.5916 1.35217 44.7095C1.47011 44.8275 1.63008 44.8937 1.79687 44.8937ZM12.1721 22.7279C12.7016 23.2669 13.969 24.3465 16.0506 24.9009C14.547 24.7062 12.4379 24.225 10.5768 23.0432C11.1351 22.9578 11.6668 22.8527 12.1721 22.7279ZM5.90884 22.3875C5.90884 20.8566 6.51701 19.3883 7.59956 18.3058C8.6821 17.2232 10.1504 16.6151 11.6813 16.6151C13.2123 16.6151 14.6805 17.2232 15.7631 18.3058C16.8456 19.3883 17.4538 20.8566 17.4538 22.3875V23.9013C15.5643 23.6453 14.2947 22.8801 13.5806 22.3082C14.5528 21.9762 15.4672 21.4944 16.2908 20.8804C16.4232 20.7788 16.5098 20.6289 16.5315 20.4635C16.5533 20.2981 16.5085 20.1308 16.4069 19.9985C16.3054 19.8661 16.1554 19.7795 15.99 19.7577C15.8246 19.736 15.6574 19.7808 15.525 19.8823C12.3925 22.2848 6.76694 22.0313 6.7107 22.0286C6.62792 22.0244 6.54512 22.0365 6.46705 22.0644C6.38899 22.0923 6.31721 22.1353 6.25583 22.191C6.19446 22.2467 6.1447 22.314 6.10942 22.389C6.07414 22.464 6.05403 22.5452 6.05026 22.628L5.94442 24.9523C5.94311 24.9931 5.93068 25.0328 5.90848 25.0671L5.90884 22.3875ZM6.43551 29.5669C6.43173 29.5469 6.42697 29.5271 6.42131 29.5076L6.10371 28.4149C6.07966 28.2896 6.01806 28.1745 5.92709 28.0851C5.83612 27.9956 5.72008 27.9359 5.59439 27.9139C5.36733 27.8743 5.16158 27.7557 5.01346 27.5791C4.86534 27.4025 4.78439 27.1793 4.7849 26.9488C4.78484 26.8699 4.79425 26.7912 4.81293 26.7145C4.83326 26.6258 4.87478 26.5434 4.93392 26.4743C4.99307 26.4052 5.06808 26.3514 5.15254 26.3177C5.37302 26.4079 5.61197 26.4439 5.84926 26.4225C6.08654 26.4011 6.31521 26.323 6.516 26.1947C6.71679 26.0665 6.88383 25.8919 7.00303 25.6856C7.12224 25.4793 7.19013 25.2474 7.20097 25.0094L7.27896 23.2967C7.64085 23.2967 8.13993 23.2854 8.72922 23.2455C12.5334 26.461 17.8765 26.2954 18.1063 26.2862C18.1081 26.2862 18.1098 26.2862 18.1116 26.2857C18.2172 26.3089 18.3141 26.3615 18.391 26.4374C18.468 26.5133 18.5219 26.6095 18.5464 26.7148C18.5783 26.8451 18.583 26.9805 18.5605 27.1127C18.5379 27.245 18.4885 27.3712 18.4152 27.4835C18.342 27.5959 18.2465 27.6921 18.1346 27.7661C18.0227 27.8401 17.8969 27.8904 17.7648 27.9139C17.6391 27.9359 17.5231 27.9956 17.4321 28.0851C17.3411 28.1745 17.2795 28.2896 17.2555 28.4149L16.9379 29.5076C16.9322 29.5271 16.9275 29.5469 16.9237 29.5669C16.6938 30.7896 16.0438 31.8936 15.0863 32.6879C14.1287 33.4822 12.9236 33.9169 11.6795 33.9169C10.4354 33.9169 9.23034 33.4822 8.27276 32.6879C7.31518 31.8936 6.66524 30.7896 6.43533 29.5669H6.43551ZM11.6797 35.1749C12.4357 35.1751 13.1861 35.0449 13.8978 34.7899V36.0183C13.2003 36.3314 12.4443 36.4932 11.6797 36.4932C10.9151 36.4932 10.1591 36.3314 9.46153 36.0183V34.7899C10.1733 35.0449 10.9237 35.1751 11.6797 35.1749ZM2.42578 41.0507C2.42361 40.8573 2.44375 40.6644 2.48579 40.4757C2.49388 40.4412 2.50251 40.4069 2.51203 40.3725C2.63549 39.9399 2.86482 39.5449 3.17928 39.2231C3.49375 38.9013 3.88344 38.663 4.31313 38.5297L8.77207 37.084C9.67859 37.5226 10.6726 37.7505 11.6797 37.7505C12.6868 37.7505 13.6808 37.5226 14.5873 37.084L19.0462 38.5297C19.476 38.663 19.8657 38.9014 20.1802 39.2232C20.4947 39.5451 20.724 39.9402 20.8474 40.3729C20.8564 40.4069 20.8654 40.4412 20.8734 40.4751C20.9156 40.664 20.9358 40.8571 20.9336 41.0507V43.6357H2.42578V41.0507Z" fill="#83B441"/>
<path d="M36.3473 41.571H35.7301C35.5633 41.571 35.4034 41.6373 35.2854 41.7552C35.1675 41.8732 35.1012 42.0332 35.1012 42.2C35.1012 42.3667 35.1675 42.5267 35.2854 42.6447C35.4034 42.7626 35.5633 42.8289 35.7301 42.8289H36.3473C36.5141 42.8289 36.674 42.7626 36.792 42.6447C36.9099 42.5267 36.9762 42.3667 36.9762 42.2C36.9762 42.0332 36.9099 41.8732 36.792 41.7552C36.674 41.6373 36.5141 41.571 36.3473 41.571Z" fill="#83B441"/>
<path d="M27.224 22.6869L27.2304 24.8986C27.2304 24.9035 27.2304 24.9082 27.2304 24.9131L27.2358 25.1557C26.9977 25.2638 26.7875 25.425 26.6213 25.6269C26.4551 25.8287 26.3373 26.0659 26.2769 26.3203C26.1693 26.7601 26.2068 27.2228 26.384 27.6395C26.5612 28.0561 26.8684 28.4042 27.2598 28.6318L26.6629 30.8744C26.4008 31.8594 26.4693 32.9031 26.8578 33.8454C27.2464 34.7877 27.9335 35.5764 28.8137 36.0903L26.3325 36.9311C25.5964 37.1804 24.957 37.6541 24.5043 38.2858C24.0515 38.9174 23.8082 39.6751 23.8086 40.4522V44.265C23.8086 44.4318 23.8749 44.5917 23.9928 44.7097C24.1107 44.8276 24.2707 44.8939 24.4375 44.8939H44.2031C44.3699 44.8939 44.5299 44.8276 44.6478 44.7097C44.7658 44.5917 44.832 44.4318 44.832 44.265V40.4522C44.8323 39.6751 44.5889 38.9175 44.1361 38.286C43.6834 37.6545 43.044 37.1808 42.308 36.9316L39.6745 36.0391C40.566 35.5694 41.2807 34.8227 41.711 33.9115C42.1413 33.0003 42.2638 31.974 42.0602 30.9872L41.5517 28.5221C41.8909 28.2778 42.1494 27.9377 42.294 27.5456C42.4386 27.1534 42.4628 26.727 42.3635 26.3209C42.3026 26.0649 42.1837 25.8263 42.0158 25.6236C41.8479 25.421 41.6356 25.2596 41.3954 25.1522L41.4044 22.7289C41.411 21.7954 41.2331 20.8698 40.8811 20.0052C40.529 19.1406 40.0097 18.354 39.3528 17.6906C38.696 17.0272 37.9147 16.5001 37.0536 16.1394C36.1926 15.7787 35.2688 15.5916 34.3353 15.5889C33.4017 15.5861 32.4769 15.7678 31.6137 16.1234C30.7505 16.479 29.9661 17.0015 29.3054 17.661C28.6447 18.3205 28.1207 19.104 27.7636 19.9665C27.4064 20.829 27.2231 21.7536 27.2242 22.6871L27.224 22.6869ZM28.3816 34.0239C28.0962 33.6184 27.9032 33.1552 27.8162 32.667C27.7293 32.1787 27.7506 31.6774 27.8785 31.1983L27.9579 30.9C28.2666 31.6541 28.7032 32.3492 29.2485 32.9547C29.7733 33.5401 30.4002 34.0253 31.0984 34.3868V35.3163L30.7441 35.4364C30.273 35.3806 29.8191 35.226 29.4119 34.9825C29.0048 34.7391 28.6537 34.4124 28.3816 34.0239ZM38.1027 36.8345L34.9436 39.9067V38.6206L37.0818 36.4882L38.1027 36.8345ZM31.56 36.4885L33.6857 38.6083V39.8943L30.539 36.8343L31.56 36.4885ZM36.2849 35.5066L34.3203 37.4649L32.3562 35.5063V34.86C32.8145 34.9754 33.2852 35.034 33.7578 35.0345H34.8826C35.3551 35.034 35.8258 34.9754 36.2841 34.86L36.2849 35.5066ZM25.0664 40.4522C25.0662 39.9381 25.2273 39.4368 25.5268 39.019C25.8264 38.6011 26.2494 38.2877 26.7364 38.1228L29.2006 37.2877L33.6852 41.6487V43.6361H25.0664V40.4522ZM43.5742 40.4522V43.6361H34.943V41.6606L39.4401 37.2874L41.9042 38.1225C42.3912 38.2874 42.8143 38.6009 43.1139 39.0188C43.4134 39.4367 43.5744 39.938 43.5742 40.4522ZM40.1568 34.0427C39.8466 34.4323 39.4542 34.7486 39.0076 34.969C38.561 35.1894 38.0712 35.3084 37.5733 35.3176V35.3271L37.542 35.3165V34.3868C38.2402 34.0254 38.867 33.5402 39.3919 32.9548C39.9673 32.3157 40.4215 31.5771 40.7321 30.7751L40.8282 31.2411C40.9294 31.7288 40.9217 32.2327 40.8057 32.717C40.6896 33.2013 40.4681 33.654 40.1568 34.0427ZM41.1419 26.6199C41.1578 26.6855 41.1659 26.7528 41.1658 26.8203C41.1662 27.0173 41.0971 27.2081 40.9705 27.3591C40.8439 27.5101 40.6681 27.6114 40.474 27.6453C40.3275 27.6728 40.1952 27.7507 40.1001 27.8655C40.005 27.9803 39.9532 28.1248 39.9535 28.2739C39.942 29.6928 39.4104 31.0582 38.4594 32.1113C37.4875 33.1854 36.2173 33.7771 34.8827 33.7771H33.7579C32.4234 33.7771 31.1531 33.1854 30.1812 32.1113C29.2286 31.0556 28.6969 29.6868 28.6871 28.2649C28.6871 28.1169 28.6349 27.9737 28.5397 27.8603C28.4445 27.747 28.3124 27.6709 28.1666 27.6454C27.9726 27.6115 27.7967 27.5101 27.6701 27.3592C27.5436 27.2082 27.4744 27.0174 27.4748 26.8204C27.4748 26.7529 27.4828 26.6856 27.4987 26.6199C27.5229 26.5208 27.5782 26.432 27.6564 26.3664C27.7346 26.3009 27.8317 26.2621 27.9336 26.2556C28.0275 26.2469 28.1182 26.2172 28.1991 26.1687C28.28 26.1202 28.3489 26.0541 28.4008 25.9753C28.7553 26.0554 29.1264 26.0134 29.4541 25.8561C29.7817 25.6988 30.0465 25.4354 30.2056 25.1087C30.2262 25.0634 30.2565 25.0232 30.2943 24.9908C31.2974 24.9347 33.1254 24.8314 34.9815 23.7066C36.4173 25.0273 38.2648 25.8123 40.2122 25.929C40.2613 26.0199 40.3321 26.0972 40.4183 26.1542C40.5045 26.2112 40.6034 26.246 40.7063 26.2556C40.8083 26.2619 40.9055 26.3007 40.9839 26.3662C41.0623 26.4317 41.1176 26.5206 41.1419 26.6199ZM34.3142 16.8528C35.0833 16.8527 35.8448 17.0048 36.5548 17.3003C37.2649 17.5957 37.9095 18.0287 38.4516 18.5742C38.9937 19.1198 39.4225 19.7672 39.7133 20.4791C40.0042 21.1911 40.1514 21.9535 40.1464 22.7226L40.1394 24.6614C38.6236 24.54 37.1849 23.9425 36.0291 22.9544C36.8367 22.2758 37.6208 21.3649 38.3139 20.1382C38.3545 20.0663 38.3806 19.9871 38.3906 19.9051C38.4006 19.8231 38.3944 19.7399 38.3723 19.6604C38.3501 19.5808 38.3126 19.5064 38.2617 19.4413C38.2108 19.3763 38.1476 19.3219 38.0757 19.2812C38.0038 19.2406 37.9246 19.2145 37.8426 19.2045C37.7606 19.1945 37.6775 19.2007 37.5979 19.2228C37.5183 19.245 37.4439 19.2825 37.3788 19.3334C37.3138 19.3843 37.2594 19.4475 37.2188 19.5194C34.9879 23.4684 31.7691 23.6481 30.2222 23.7345L30.1989 23.7358C29.7376 23.7616 29.306 24.0782 29.0728 24.5623C29.0378 24.633 28.9797 24.6895 28.9082 24.7227C28.8416 24.7542 28.767 24.7643 28.6944 24.7518C28.6219 24.7393 28.5549 24.7047 28.5027 24.6527L28.4874 24.6374L28.4818 22.6849C28.4836 21.1386 29.0987 19.6562 30.1921 18.5628C31.2855 17.4695 32.7679 16.8545 34.3142 16.8528Z" fill="#83B441"/>
</svg>
