<svg width="46" height="46" viewBox="0 0 46 46" fill="none" xmlns="http://www.w3.org/2000/svg">
<g clip-path="url(#clip0)">
<path d="M38.2287 3.69043C34.7139 3.69043 31.9368 6.51093 31.9368 10.0257C31.9368 13.5405 34.7573 16.3176 38.2287 16.3176C41.7 16.3176 44.5639 13.4971 44.5639 9.98232C44.5639 6.46754 41.7434 3.69043 38.2287 3.69043ZM38.2287 14.929C35.4949 14.929 33.2819 12.716 33.2819 9.98232C33.2819 7.2486 35.5383 5.07898 38.2287 5.07898C40.9624 5.07898 43.1754 7.29199 43.1754 10.0257C43.1754 12.7594 40.9624 14.929 38.2287 14.929Z" fill="#83B441"/>
<path d="M40.2247 10.9805C40.1813 10.8503 40.1813 10.7635 40.0945 10.6333C40.0511 10.5465 40.0077 10.4164 39.9209 10.3296C39.8342 10.2428 39.7908 10.156 39.704 10.0692C39.6172 9.98244 39.5304 9.89566 39.4002 9.85226C39.3135 9.76548 39.1833 9.72209 39.0965 9.67869C38.9663 9.6353 38.8795 9.54852 38.7494 9.50512C38.6192 9.46173 38.489 9.41834 38.4022 9.37495C38.3588 9.37495 38.272 9.33156 38.2286 9.28816C38.1853 9.24477 38.0985 9.24477 38.0551 9.20138C38.0117 9.15799 37.9249 9.15799 37.8815 9.11459C37.8381 9.0712 37.7947 9.02781 37.7513 8.98442C37.7079 8.94102 37.6645 8.89763 37.6645 8.81085C37.6212 8.76746 37.6212 8.68067 37.6212 8.63728C37.6212 8.55049 37.6212 8.5071 37.6212 8.42032C37.6212 8.37693 37.6645 8.29014 37.6645 8.24675C37.7079 8.20336 37.7079 8.11657 37.7513 8.07318C37.7947 8.02979 37.8381 7.98639 37.8815 7.943C37.9249 7.89961 38.0117 7.85622 38.0985 7.85622C38.1853 7.81283 38.2286 7.81282 38.3154 7.81282C38.3588 7.81282 38.4022 7.81282 38.4456 7.81282C38.489 7.81282 38.5324 7.81282 38.5758 7.81282C38.6626 7.81282 38.706 7.81283 38.7927 7.85622C38.8795 7.85622 38.9663 7.89961 39.0097 7.89961C39.0531 7.89961 39.1399 7.943 39.1833 7.943C39.2701 7.943 39.3135 7.98639 39.3568 7.98639L39.5738 8.07318L39.6172 7.81282L39.704 7.11855V6.94498L39.5304 6.90159C39.487 6.90159 39.4002 6.8582 39.3568 6.8582C39.3135 6.8582 39.2701 6.8148 39.1833 6.8148C39.1399 6.8148 39.0531 6.77141 38.9663 6.77141C38.8795 6.77141 38.8361 6.72802 38.7494 6.72802H38.706V6.12053V5.90356H38.489H37.8815H37.6645V6.12053V6.77141H37.6212C37.491 6.8148 37.3608 6.85819 37.2306 6.94498C37.1004 6.98837 37.0137 7.07516 36.9269 7.16194C36.8401 7.24873 36.7533 7.33551 36.6665 7.46569C36.5797 7.55247 36.5363 7.68265 36.493 7.81282C36.4496 7.943 36.4062 8.07318 36.3628 8.20336C36.3194 8.33353 36.3194 8.5071 36.3194 8.63728C36.3194 8.76746 36.3194 8.85424 36.3628 8.98442C36.4062 9.11459 36.4062 9.20138 36.493 9.33156C36.5363 9.41834 36.6231 9.54852 36.6665 9.6353C36.7533 9.72209 36.7967 9.80887 36.8835 9.89566C36.9703 9.98244 37.0571 10.0692 37.1872 10.1126C37.274 10.1994 37.4042 10.2428 37.491 10.2862C37.6212 10.3296 37.7513 10.4164 37.8381 10.4598C37.9683 10.5031 38.0985 10.5465 38.1853 10.5899C38.2286 10.5899 38.3154 10.6333 38.3588 10.6767C38.4022 10.7201 38.489 10.7201 38.5324 10.7635C38.5758 10.8069 38.6192 10.8503 38.6626 10.8503C38.706 10.8937 38.7494 10.9371 38.7927 10.9805C38.8361 11.0239 38.8361 11.0672 38.8795 11.154C38.8795 11.1974 38.9229 11.2842 38.9229 11.371C38.9229 11.4578 38.9229 11.5012 38.9229 11.588C38.9229 11.6313 38.8795 11.7181 38.8361 11.7615C38.7927 11.8049 38.7494 11.8483 38.706 11.8917C38.6626 11.9351 38.6192 11.9785 38.5324 12.0219C38.489 12.0653 38.4022 12.0653 38.3588 12.1087C38.3154 12.1087 38.2286 12.1521 38.1419 12.1521C38.0985 12.1521 38.0551 12.1521 37.9683 12.1521C37.9249 12.1521 37.8381 12.1521 37.7947 12.1521C37.7079 12.1521 37.6212 12.1521 37.5778 12.1521C37.491 12.1521 37.4042 12.1087 37.3608 12.1087C37.274 12.1087 37.1872 12.0653 37.1004 12.0219C37.0137 11.9785 36.9269 11.9785 36.8401 11.9351C36.7967 11.9351 36.7533 11.8917 36.7099 11.8917C36.6665 11.8917 36.6231 11.8483 36.5797 11.8483L36.3194 11.7181L36.276 12.0219L36.1892 12.8029V12.9331L36.3194 12.9765C36.493 12.9331 36.5797 12.9765 36.7099 13.0199C36.7967 13.0633 36.9269 13.1067 37.0137 13.1067C37.1004 13.1501 37.2306 13.1501 37.3608 13.1935C37.491 13.2369 37.5778 13.2369 37.7079 13.2369H37.7947V13.8877V14.1047H38.0117H38.6192H38.8361V13.8877V13.1935H38.8795C39.0097 13.1501 39.1399 13.1067 39.2701 13.0199C39.4002 12.9765 39.487 12.8897 39.6172 12.8029C39.704 12.7162 39.7908 12.6294 39.8776 12.4992C39.9643 12.4124 40.0077 12.2822 40.0945 12.1521C40.1379 12.0219 40.1813 11.8917 40.2247 11.7615C40.2681 11.6313 40.2681 11.5012 40.2681 11.3276C40.2681 11.1974 40.2681 11.1106 40.2247 10.9805Z" fill="#83B441"/>
<path d="M35.1912 17.142C34.9742 16.8383 34.4969 16.7949 34.1932 17.0118L27.1636 22.6094L18.0946 18.8343C17.8776 18.7475 17.6173 18.7909 17.4437 18.9211L7.72384 25.8639C7.42009 26.0808 7.33331 26.5148 7.55027 26.8185C7.68045 27.0355 7.89741 27.1223 8.11437 27.1223C8.24455 27.1223 8.37472 27.0789 8.5049 26.9921L17.921 20.2663L27.0334 24.0414C27.2504 24.1282 27.5541 24.0848 27.7277 23.9546L35.061 18.14C35.3648 17.9231 35.4081 17.4457 35.1912 17.142Z" fill="#83B441"/>
<path d="M45.345 40.9212H42.134V20.8305C42.134 20.44 41.8302 20.1362 41.4397 20.1362H35.061C34.6705 20.1362 34.3668 20.44 34.3668 20.8305V40.9212H32.0236V27.7733C32.0236 27.3828 31.7198 27.079 31.3293 27.079H24.9072C24.5167 27.079 24.2129 27.3828 24.2129 27.7733V40.9212H21.8698V26.7319C21.8698 26.3413 21.566 26.0376 21.1755 26.0376H14.7968C14.4063 26.0376 14.1025 26.3413 14.1025 26.7319V40.9212H11.7593V30.8108C11.7593 30.4202 11.4556 30.1165 11.0651 30.1165H4.64298C4.25245 30.1165 3.94871 30.4202 3.94871 30.8108V40.9212H0.694278C0.303747 40.9212 0 41.2249 0 41.6155C0 42.006 0.303747 42.3097 0.694278 42.3097H4.59959H10.9783H14.7968H21.1755H24.9072H31.2859H35.0176H41.3963H45.3016C45.6922 42.3097 45.9959 42.006 45.9959 41.6155C46.0393 41.2249 45.7356 40.9212 45.345 40.9212ZM10.3274 40.9212H5.33726V31.505H10.3274V40.9212ZM20.4812 40.9212H15.4911V27.4261H20.4812V40.9212ZM30.5916 40.9212H25.6015V28.4676H30.5916V40.9212ZM40.7454 40.9212H35.7553V21.5248H40.7454V40.9212Z" fill="#83B441"/>
</g>
<defs>
<clipPath id="clip0">
<rect width="46" height="46" fill="white"/>
</clipPath>
</defs>
</svg>
