<?xml version="1.0" encoding="iso-8859-1"?>
<!-- Generator: Adobe Illustrator 19.0.0, SVG Export Plug-In . SVG Version: 6.00 Build 0)  -->
<svg version="1.1" id="Layer_1" xmlns="http://www.w3.org/2000/svg" xmlns:xlink="http://www.w3.org/1999/xlink" x="0px" y="0px"
	 viewBox="0 0 512 512" style="enable-background:new 0 0 512 512;" xml:space="preserve">
<g>
	<g>
		<path d="M401.009,0.022c-61.201,0-110.991,49.79-110.991,110.991c0,35.592,16.976,68.814,45.619,89.705l51.833,108.732
			c5.419,11.369,21.657,11.373,27.078,0l51.833-108.732C495.025,179.826,512,146.604,512,111.012
			C512,49.811,462.21,0.022,401.009,0.022z M401.009,158.008c-25.914,0-46.996-21.082-46.996-46.996s21.082-46.996,46.996-46.996
			s46.996,21.082,46.996,46.996S426.923,158.008,401.009,158.008z"/>
	</g>
</g>
<g>
	<g>
		<path d="M490.4,220.043l-8.397,17.617v195.326c0,8.317-2.09,16.155-5.762,23.022L261.234,241.001l35.333-35.333
			c-6.828-7.556-12.803-15.808-17.831-24.591L158.03,301.782V128.011h103.042c-0.688-5.611-1.051-11.285-1.051-16.999
			c0-4.383,0.212-8.717,0.605-12.999H156.024c-7.077-32.084-32.17-57.774-63.833-62.924c-48.558-7.898-92.148,29.19-92.148,77.922
			v317.404c-1.431,46.571,32.946,81.562,78.993,81.562h353.97c43.557,0,78.993-35.436,78.993-78.993V197.888
			C505.677,205.988,498.449,213.433,490.4,220.043z M79.036,481.981L79.036,481.981c-44.213,0-59.641-46.081-41.568-74.949
			c9.034-14.429,24.573-23.043,41.568-23.043c27.017,0,48.996,21.979,48.996,48.996c0,8.283,6.715,14.999,14.999,14.999
			c8.283,0,14.999-6.715,14.999-14.999v-88.78l81.993-81.993l74.781,74.781L169.816,481.981H79.036z M433.007,481.981H212.238
			l123.777-123.777l118.692,118.692C448.161,480.145,440.796,481.981,433.007,481.981z"/>
	</g>
</g>
<g>
</g>
<g>
</g>
<g>
</g>
<g>
</g>
<g>
</g>
<g>
</g>
<g>
</g>
<g>
</g>
<g>
</g>
<g>
</g>
<g>
</g>
<g>
</g>
<g>
</g>
<g>
</g>
<g>
</g>
</svg>
