<?xml version="1.0" encoding="iso-8859-1"?>
<!-- Generator: Adobe Illustrator 19.0.0, SVG Export Plug-In . SVG Version: 6.00 Build 0)  -->
<svg version="1.1" id="Capa_1" xmlns="http://www.w3.org/2000/svg" xmlns:xlink="http://www.w3.org/1999/xlink" x="0px" y="0px"
	 viewBox="0 0 60 60" style="enable-background:new 0 0 60 60;" xml:space="preserve">
<g>
	<g>
		<path d="M8.3,17.5l2.8,7.4c0.1,0.3,0.5,0.6,0.9,0.6s0.8-0.3,1.1-0.6l2.8-7.4H17c0.1,0,0.3,0,0.4-0.1L34,10v2.9l-12.4,5.7l0.8,1.8
			l13-6c0.4-0.2,0.6-0.5,0.6-0.9v-5c0-0.3-0.2-0.7-0.4-0.8c-0.3-0.2-0.7-0.2-1-0.1l-17.8,7.9H7c-3.9,0-7,3.1-7,7v14h2v-14
			c0-2.8,2.2-5,5-5H8.3z M12.1,21.7l-1.6-4.2h3.2L12.1,21.7z"/>
		<path d="M17,56.5h-4v-19h-2v19H7v-33H5v34c0,0.6,0.4,1,1,1h6h6c0.6,0,1-0.4,1-1v-34h-2V56.5z"/>
		<rect x="11" y="27.5" width="2" height="2"/>
		<rect x="11" y="31.5" width="2" height="2"/>
		<path d="M11,14.5h2c2.8,0,5-2.2,5-5v-3c0-2.8-2.2-5-5-5h-2c-2.8,0-5,2.2-5,5v3C6,12.3,8.2,14.5,11,14.5z M8,6.5c0-1.7,1.3-3,3-3h2
			c1.7,0,3,1.3,3,3v3c0,1.7-1.3,3-3,3h-2c-1.7,0-3-1.3-3-3V6.5z"/>
		<path d="M59.5,46.6l-11-7c-0.3-0.2-0.7-0.2-1,0S47,40.1,47,40.5v3H25v2h23c0.6,0,1-0.4,1-1v-2.2l8.1,5.2L49,52.7v-2.2
			c0-0.6-0.4-1-1-1H25v2h22v3c0,0.4,0.2,0.7,0.5,0.9c0.2,0.1,0.3,0.1,0.5,0.1s0.4-0.1,0.5-0.3l11-7c0.3-0.1,0.5-0.5,0.5-0.8
			C60,47.1,59.8,46.8,59.5,46.6z"/>
		<path d="M40,38.5c0,0.4,0.2,0.7,0.5,0.9c0.2,0.1,0.3,0.1,0.5,0.1s0.4-0.1,0.5-0.3l11-7c0.3-0.1,0.5-0.5,0.5-0.8s-0.2-0.6-0.5-0.8
			l-11-7c-0.3-0.2-0.7-0.2-1,0S40,24.1,40,24.5v3H21v2h20c0.6,0,1-0.4,1-1v-2.2l8.1,5.2L42,36.7v-2.2c0-0.6-0.4-1-1-1H21v2h19V38.5z
			"/>
		<path d="M47,18.5c0,0.4,0.2,0.7,0.5,0.9c0.2,0.1,0.3,0.1,0.5,0.1s0.4-0.1,0.5-0.2l11-7c0.3-0.1,0.5-0.5,0.5-0.8s-0.2-0.7-0.5-0.9
			l-11-7c-0.3-0.2-0.7-0.2-1,0S47,4.1,47,4.5v3h-9v2h10c0.6,0,1-0.4,1-1V6.3l8.1,5.2L49,16.7v-2.2c0-0.6-0.4-1-1-1H38v2h9V18.5z"/>
		<rect x="22" y="54.5" width="2" height="2"/>
		<rect x="26" y="54.5" width="2" height="2"/>
		<rect x="30" y="54.5" width="2" height="2"/>
		<rect x="34" y="54.5" width="2" height="2"/>
		<rect x="38" y="54.5" width="2" height="2"/>
		<rect x="42" y="54.5" width="2" height="2"/>
		<rect x="22" y="38.5" width="2" height="2"/>
		<rect x="26" y="38.5" width="2" height="2"/>
		<rect x="30" y="38.5" width="2" height="2"/>
		<rect x="34" y="38.5" width="2" height="2"/>
		<rect x="26" y="22.5" width="2" height="2"/>
		<rect x="30" y="22.5" width="2" height="2"/>
		<rect x="34" y="22.5" width="2" height="2"/>
	</g>
</g>
<g>
</g>
<g>
</g>
<g>
</g>
<g>
</g>
<g>
</g>
<g>
</g>
<g>
</g>
<g>
</g>
<g>
</g>
<g>
</g>
<g>
</g>
<g>
</g>
<g>
</g>
<g>
</g>
<g>
</g>
</svg>
