<?xml version="1.0" encoding="UTF-8" standalone="no"?><!DOCTYPE svg PUBLIC "-//W3C//DTD SVG 1.1//EN" "http://www.w3.org/Graphics/SVG/1.1/DTD/svg11.dtd"><svg width="100%" height="100%" viewBox="0 0 57 53" version="1.1" xmlns="http://www.w3.org/2000/svg" xmlns:xlink="http://www.w3.org/1999/xlink" xml:space="preserve" xmlns:serif="http://www.serif.com/" style="fill-rule:evenodd;clip-rule:evenodd;stroke-linejoin:round;stroke-miterlimit:2;"><g><path d="M36.734,0.002l-8.253,5.512l-8.21,-5.514l-9.789,6.562l0,23.484l9.791,6.543l8.208,-5.513l8.253,5.513l9.786,-6.544l0,-23.501l-9.786,-6.542Z" style="fill:#fff;fill-rule:nonzero;"/><path d="M36.798,14.863l0,-11.03l6.346,4.289l-0.001,19.815l-29.474,-19.609l6.751,-4.495l16.378,11.03Zm8.185,-7.554l-8.185,-5.526l-8.19,5.526l-8.188,-5.526l-8.393,5.526l0,21.853l8.396,5.515l8.189,-5.515l8.186,5.515l8.189,-5.515l-0.004,-21.853Zm-24.563,16.337l6.554,4.494l-6.551,4.494l-0.003,-8.988Z" style="fill:#006341;fill-rule:nonzero;"/><rect x="0" y="47.429" width="1.093" height="5.473" style="fill:#fff;fill-rule:nonzero;"/><path d="M7.242,52.902l-1.026,0l-2.781,-3.654l0,3.654l-1.097,0l0,-5.473l1.022,0l2.785,3.655l0,-3.655l1.097,0l0,5.473Z" style="fill:#fff;fill-rule:nonzero;"/><path d="M11.336,52.902l-1.332,0l-2.055,-5.473l1.161,0l1.571,4.366l1.579,-4.366l1.138,0l-2.062,5.473Z" style="fill:#fff;fill-rule:nonzero;"/><path d="M18.199,52.902l-4.096,0l0,-5.473l4.066,0l0,1l-2.975,0l0,1.213l2.837,0l0,1l-2.837,0l0,1.258l3.005,0l0,1.002Z" style="fill:#fff;fill-rule:nonzero;"/><path d="M23.029,48.809c-0.464,-0.297 -1.003,-0.458 -1.555,-0.465c-0.615,0 -1.051,0.242 -1.051,0.656c0,0.414 0.473,0.524 1.133,0.633l0.309,0.052c0.979,0.16 1.747,0.579 1.747,1.533c0,1.208 -1.072,1.782 -2.244,1.782c-0.831,0 -1.724,-0.242 -2.311,-0.713l0.568,-0.879c0.502,0.382 1.115,0.589 1.747,0.59c0.607,0 1.071,-0.239 1.071,-0.661c0,-0.38 -0.4,-0.521 -1.162,-0.642l-0.358,-0.055c-0.968,-0.153 -1.672,-0.579 -1.672,-1.567c0,-1.141 1.018,-1.736 2.187,-1.736c0.74,-0.011 1.467,0.192 2.095,0.583l-0.504,0.889Z" style="fill:#fff;fill-rule:nonzero;"/><path d="M28.581,48.449l-1.7,0l0,4.457l-1.094,0l0,-4.457l-1.7,0l0,-1.02l4.494,0l0,1.02Z" style="fill:#fff;fill-rule:nonzero;"/><path d="M35.369,52.902l-1.093,0l0,-4.132l-1.356,3.604l-1.155,0l-1.356,-3.565l0,4.1l-1.094,0l0,-5.473l1.608,0l1.429,3.694l1.429,-3.694l1.608,0l-0.02,5.466Z" style="fill:#fff;fill-rule:nonzero;"/><path d="M40.728,52.902l-4.108,0l0,-5.473l4.065,0l0,1l-2.968,0l0,1.213l2.833,0l0,1l-2.833,0l0,1.258l3.011,0l0,1.002Z" style="fill:#fff;fill-rule:nonzero;"/><path d="M46.745,52.902l-1.026,0l-2.781,-3.654l0,3.654l-1.093,0l0,-5.473l1.027,0l2.785,3.655l0,-3.655l1.097,0l-0.009,5.473Z" style="fill:#fff;fill-rule:nonzero;"/><path d="M51.982,48.449l-1.7,0l0,4.457l-1.094,0l0,-4.457l-1.7,0l0,-1.02l4.494,0l0,1.02Z" style="fill:#fff;fill-rule:nonzero;"/><path d="M56.418,48.809c-0.465,-0.297 -1.004,-0.458 -1.556,-0.465c-0.615,0 -1.051,0.242 -1.051,0.656c0,0.414 0.474,0.524 1.133,0.633l0.309,0.052c0.979,0.16 1.747,0.579 1.747,1.533c0,1.208 -1.072,1.782 -2.244,1.782c-0.83,0 -1.723,-0.242 -2.311,-0.713l0.568,-0.879c0.502,0.382 1.116,0.589 1.747,0.59c0.607,0 1.072,-0.239 1.072,-0.661c0,-0.38 -0.4,-0.521 -1.163,-0.642l-0.357,-0.055c-0.969,-0.153 -1.672,-0.579 -1.672,-1.567c0,-1.141 1.018,-1.736 2.186,-1.736c0.74,-0.011 1.467,0.192 2.095,0.583l-0.503,0.889Z" style="fill:#fff;fill-rule:nonzero;"/><path d="M51.982,44.893l0,-1.988l1.374,0c1.711,0 2.385,-0.756 2.385,-2.184c0,-1.399 -0.674,-2.212 -2.385,-2.212l-3.06,0l0,6.382l1.686,0.002Zm0,-3.387l0,-1.653l1.177,0c0.758,0 0.926,0.309 0.926,0.84c0,0.531 -0.168,0.811 -0.926,0.811l-1.177,0.002Zm-16.691,3.387l-1.544,-2.213c0.842,-0.335 1.319,-1.069 1.319,-2.016c0,-1.399 -0.674,-2.155 -2.385,-2.155l-3.087,0l0,6.382l1.683,0l0,-1.986l0.729,0l1.318,1.988l1.967,0Zm-4.012,-5.04l1.205,0c0.758,0 0.926,0.309 0.926,0.785c0,0.534 -0.168,0.868 -0.926,0.868l-1.205,0l0,-1.653Zm-17.422,3.696l-3.423,0l0,-1.204l2.858,0l0,-1.346l-2.858,0l0,-1.148l3.423,0l0,-1.347l-5.104,0l0,6.382l5.104,0l0,-1.337Zm1.234,1.344l3.142,0c2.131,0 3.171,-0.952 3.171,-3.191c0,-2.296 -1.072,-3.191 -3.171,-3.191l-3.142,0l0,6.382Zm1.683,-1.344l0,-3.696l1.318,0c0.813,0 1.459,0.393 1.459,1.847c0,1.455 -0.645,1.847 -1.459,1.847l-1.318,0.002Zm-10.94,-5.045l0,3.863l-2.552,-3.863l-2.021,0l0,6.382l1.683,0l0,-3.828l2.553,3.835l2.02,0l0,-6.389l-1.683,0Zm16.434,3.219c0,1.933 0.842,3.275 3.143,3.275c2.322,0 3.281,-0.952 3.281,-3.275c0.005,-0.187 -0.004,-0.374 -0.029,-0.559l-3.22,0l0,1.344l1.429,0c-0.14,0.643 -0.42,1.007 -1.374,1.007c-1.009,0 -1.374,-0.785 -1.374,-1.783c0,-1.119 0.393,-1.847 1.319,-1.847c0.561,0 0.893,0.084 1.263,0.589l1.402,-0.981c-0.674,-0.891 -1.74,-1.091 -2.665,-1.091c-2.323,0 -3.171,1.426 -3.171,3.332l-0.004,-0.011Zm16.804,3.275c2.244,0 3.31,-1.07 3.31,-3.303c0,-2.234 -1.121,-3.303 -3.31,-3.303c-2.159,0 -3.31,1.069 -3.31,3.303c0,2.233 1.072,3.303 3.31,3.303Zm0,-5.123c0.842,0 1.458,0.356 1.458,1.82c0,1.511 -0.616,1.82 -1.458,1.82c-0.841,0 -1.459,-0.309 -1.459,-1.82c0,-1.457 0.618,-1.82 1.459,-1.82Zm4.209,2.688c0,1.904 1.234,2.435 2.946,2.435c1.57,0 2.833,-0.535 2.833,-2.435l0,-4.059l-1.683,0l0,3.695c0,0.952 -0.338,1.316 -1.15,1.316c-0.894,0 -1.263,-0.357 -1.263,-1.316l0,-3.695l-1.681,0l-0.002,4.059Z" style="fill:#fff;fill-rule:nonzero;"/></g></svg>