<?xml version="1.0" encoding="iso-8859-1"?>
<!-- Generator: Adobe Illustrator 19.0.0, SVG Export Plug-In . SVG Version: 6.00 Build 0)  -->
<svg version="1.1" id="Layer_1" xmlns="http://www.w3.org/2000/svg" xmlns:xlink="http://www.w3.org/1999/xlink" x="0px" y="0px"
	 viewBox="0 0 512 512" style="enable-background:new 0 0 512 512;" xml:space="preserve">
<g>
	<g>
		<path d="M392.597,96.266c-8.193-7.518-17.062-14.403-26.361-20.465c-3.739-2.437-8.748-1.383-11.186,2.358
			c-2.438,3.738-1.383,8.747,2.357,11.186c8.557,5.578,16.719,11.915,24.26,18.834c1.552,1.424,3.51,2.128,5.463,2.128
			c2.186,0,4.364-0.881,5.959-2.619C396.107,104.398,395.887,99.285,392.597,96.266z"/>
	</g>
</g>
<g>
	<g>
		<path d="M156.388,78.492c-2.451-3.732-7.463-4.772-11.195-2.319c-9.277,6.092-18.122,13.005-26.286,20.546
			c-3.28,3.03-3.483,8.145-0.454,11.425c1.594,1.725,3.764,2.598,5.941,2.598c1.961,0,3.929-0.709,5.482-2.145
			c7.514-6.939,15.653-13.302,24.191-18.909C157.801,87.237,158.84,82.224,156.388,78.492z"/>
	</g>
</g>
<g>
	<g>
		<path d="M433.578,148.64c-5.309-9.742-11.475-19.121-18.327-27.876c-2.751-3.517-7.832-4.136-11.349-1.384
			c-3.516,2.752-4.135,7.833-1.384,11.348c6.306,8.058,11.979,16.688,16.864,25.65c1.467,2.692,4.242,4.217,7.106,4.217
			c1.306,0,2.632-0.317,3.861-0.986C434.268,157.471,435.714,152.56,433.578,148.64z"/>
	</g>
</g>
<g>
	<g>
		<path d="M107.681,119.873c-3.525-2.739-8.604-2.103-11.344,1.422c-6.826,8.783-12.964,18.187-18.242,27.953
			c-2.123,3.928-0.66,8.832,3.267,10.956c1.222,0.661,2.538,0.973,3.837,0.973c2.875,0,5.657-1.536,7.118-4.242
			c4.856-8.984,10.503-17.636,16.785-25.719C111.842,127.691,111.206,122.613,107.681,119.873z"/>
	</g>
</g>
<g>
	<g>
		<path d="M414.108,357.991c-3.524-2.745-8.602-2.115-11.345,1.409c-6.283,8.064-13.282,15.665-20.802,22.595
			c-3.283,3.026-3.492,8.139-0.468,11.424c1.594,1.729,3.767,2.606,5.948,2.606c1.957,0,3.922-0.707,5.476-2.139
			c8.17-7.527,15.774-15.787,22.6-24.548C418.26,365.815,417.629,360.736,414.108,357.991z"/>
	</g>
</g>
<g>
	<g>
		<path d="M130.171,382.113c-7.528-6.921-14.533-14.516-20.822-22.572c-2.748-3.52-7.828-4.147-11.347-1.398
			c-3.519,2.748-4.146,7.828-1.398,11.347c6.833,8.753,14.444,17.004,22.622,24.525c1.553,1.428,3.515,2.133,5.47,2.133
			c2.183,0,4.358-0.878,5.952-2.612C133.671,390.25,133.456,385.135,130.171,382.113z"/>
	</g>
</g>
<g>
	<g>
		<path d="M256,0c-46.063,0-83.537,37.475-83.537,83.537c0,13.384,3.264,26.719,9.438,38.562
			c14.464,27.742,42.858,44.975,74.099,44.975s59.635-17.233,74.099-44.975c6.174-11.843,9.438-25.177,9.438-38.562
			C339.537,37.475,302.063,0,256,0z M254.2,16.214c0.6-0.016,1.196-0.045,1.8-0.045c0.604,0,1.201,0.03,1.8,0.045
			c18.484,0.941,33.231,16.273,33.231,34.986c0,19.317-15.716,35.032-35.032,35.032S220.968,70.517,220.968,51.2
			C220.968,32.487,235.716,17.155,254.2,16.214z M191.285,102.237c-1.747-6.029-2.654-12.277-2.654-18.7
			c0-17.64,6.823-33.708,17.958-45.731c-1.16,4.273-1.789,8.76-1.789,13.394c0,12.477,4.492,23.92,11.934,32.812
			C206.991,88.563,198.3,94.78,191.285,102.237z M256,150.905c-23.621,0-45.226-12.222-57.449-32.192
			c7.543-10.303,18.963-18.432,32.251-22.97c7.445,4.229,16.041,6.657,25.198,6.657c9.163,0,17.765-2.432,25.214-6.667
			c13.438,4.563,24.672,12.577,32.239,22.973C301.231,138.68,279.624,150.905,256,150.905z M320.727,102.194
			c-7.003-7.494-15.635-13.668-25.439-18.207C302.718,75.098,307.2,63.664,307.2,51.2c0-4.634-0.63-9.121-1.789-13.394
			c11.135,12.023,17.958,28.091,17.958,45.731C323.368,89.945,322.466,96.179,320.727,102.194z"/>
	</g>
</g>
<g>
	<g>
		<path d="M83.537,172.463C37.474,172.463,0,209.938,0,256c0,13.384,3.264,26.719,9.438,38.562
			c14.464,27.742,42.858,44.975,74.099,44.975c31.241,0,59.635-17.233,74.099-44.975c6.174-11.843,9.438-25.177,9.438-38.562
			C167.074,209.938,129.6,172.463,83.537,172.463z M81.737,188.677c0.6-0.016,1.196-0.045,1.8-0.045c0.604,0,1.201,0.03,1.8,0.045
			c18.484,0.941,33.232,16.273,33.232,34.986c0,19.317-15.716,35.032-35.032,35.032s-35.032-15.715-35.032-35.032
			C48.505,204.95,63.253,189.618,81.737,188.677z M18.822,274.7c-1.747-6.029-2.654-12.277-2.654-18.7
			c0-17.64,6.823-33.708,17.958-45.731c-1.16,4.273-1.789,8.76-1.789,13.394c0,12.477,4.492,23.92,11.934,32.812
			C34.528,261.026,25.837,267.244,18.822,274.7z M83.537,323.368c-23.621,0-45.226-12.222-57.449-32.192
			c7.543-10.303,18.963-18.432,32.251-22.97c7.445,4.229,16.041,6.657,25.198,6.657c9.163,0,17.765-2.432,25.214-6.667
			c13.438,4.563,24.672,12.577,32.239,22.973C128.767,311.143,107.161,323.368,83.537,323.368z M148.263,274.657
			c-7.003-7.494-15.635-13.668-25.439-18.207c7.431-8.889,11.913-20.324,11.913-32.787c0-4.634-0.63-9.121-1.789-13.394
			c11.135,12.023,17.958,28.091,17.958,45.731C150.905,262.408,150.003,268.643,148.263,274.657z"/>
	</g>
</g>
<g>
	<g>
		<path d="M428.463,172.463c-46.063,0-83.537,37.475-83.537,83.537c0,13.384,3.264,26.719,9.438,38.562
			c14.464,27.742,42.858,44.975,74.099,44.975c31.241,0,59.635-17.233,74.099-44.975C508.736,282.719,512,269.384,512,256
			C512,209.938,474.526,172.463,428.463,172.463z M426.663,188.677c0.6-0.016,1.196-0.045,1.8-0.045c0.604,0,1.201,0.03,1.8,0.045
			c18.484,0.941,33.232,16.273,33.232,34.986c0,19.317-15.716,35.032-35.032,35.032c-19.316,0-35.032-15.715-35.032-35.032
			C393.432,204.95,408.179,189.618,426.663,188.677z M363.749,274.7c-1.747-6.029-2.654-12.277-2.654-18.7
			c0-17.64,6.823-33.708,17.958-45.731c-1.16,4.272-1.789,8.76-1.789,13.394c0,12.477,4.492,23.92,11.934,32.812
			C379.455,261.026,370.763,267.244,363.749,274.7z M428.463,323.368c-23.621,0-45.226-12.222-57.449-32.192
			c7.543-10.303,18.963-18.432,32.251-22.97c7.445,4.229,16.041,6.657,25.198,6.657c9.163,0,17.765-2.432,25.214-6.667
			c13.438,4.563,24.672,12.577,32.239,22.973C473.694,311.143,452.087,323.368,428.463,323.368z M493.19,274.657
			c-7.003-7.494-15.635-13.668-25.439-18.207c7.431-8.889,11.913-20.324,11.913-32.787c0-4.634-0.63-9.121-1.789-13.394
			c11.135,12.023,17.958,28.091,17.958,45.731C495.832,262.408,494.929,268.643,493.19,274.657z"/>
	</g>
</g>
<g>
	<g>
		<path d="M313.844,301.811H198.156c-14.167,0-25.693,11.525-25.693,25.693v158.804c0,14.168,11.526,25.693,25.693,25.693h115.688
			c14.167,0,25.693-11.525,25.693-25.693V327.503C339.537,313.335,328.011,301.811,313.844,301.811z M323.368,431.158h-17.422
			c-4.465,0-8.084,3.62-8.084,8.084c0,4.465,3.62,8.084,8.084,8.084h17.422v38.981c0,5.26-4.264,9.524-9.524,9.524H198.156
			c-5.26,0-9.524-4.264-9.524-9.524v-38.981h81.565c4.465,0,8.084-3.62,8.084-8.084c0-4.465-3.62-8.084-8.084-8.084h-81.565V327.503
			c0-5.26,4.264-9.524,9.524-9.524h115.688c5.26,0,9.524,4.264,9.524,9.524V431.158z"/>
	</g>
</g>
<g>
	<g>
		<circle cx="256" cy="471.579" r="10.779"/>
	</g>
</g>
<g>
</g>
<g>
</g>
<g>
</g>
<g>
</g>
<g>
</g>
<g>
</g>
<g>
</g>
<g>
</g>
<g>
</g>
<g>
</g>
<g>
</g>
<g>
</g>
<g>
</g>
<g>
</g>
<g>
</g>
</svg>
