<?xml version="1.0" encoding="UTF-8" standalone="no"?><!DOCTYPE svg PUBLIC "-//W3C//DTD SVG 1.1//EN" "http://www.w3.org/Graphics/SVG/1.1/DTD/svg11.dtd"><svg width="100%" height="100%" viewBox="0 0 115 29" version="1.1" xmlns="http://www.w3.org/2000/svg" xmlns:xlink="http://www.w3.org/1999/xlink" xml:space="preserve" xmlns:serif="http://www.serif.com/" style="fill-rule:evenodd;clip-rule:evenodd;stroke-linejoin:round;stroke-miterlimit:2;"><path d="M107.149,0c0.639,0 1.199,0.237 1.662,0.708c0.466,0.468 0.703,1.04 0.703,1.687c0,0.661 -0.233,1.226 -0.697,1.695c-0.465,0.471 -1.03,0.706 -1.668,0.706c-0.651,0 -1.213,-0.235 -1.668,-0.706c-0.464,-0.469 -0.696,-1.034 -0.696,-1.695c0,-0.647 0.232,-1.213 0.689,-1.681c0.463,-0.473 1.025,-0.714 1.675,-0.714Zm7.851,9.499l0,-1.456c0,-1.377 -1.124,-2.497 -2.512,-2.497l-10.678,0c-1.388,0 -2.512,1.12 -2.512,2.497l0,5.486l11.912,0l0,0.832l-11.912,0l0,1.455c0,1.377 1.123,2.495 2.512,2.495l10.678,0c1.388,0 2.512,-1.117 2.512,-2.495l0,-5.485l-11.911,0l0,-0.832l11.911,0Z" style="fill:#e30613;fill-rule:nonzero;"/><path d="M4.317,5.448c2.67,-0.001 4.056,0.299 4.056,1.535l0,1.256l-3.655,0c-0.983,0 -1.264,0.26 -1.264,0.778c0,1.536 5.582,1.217 5.582,5.525c0,2.054 -1.185,3.869 -4.799,3.869c-2.37,0 -4.237,-0.379 -4.237,-1.536l0,-1.256l4.317,0c0.883,0 1.304,-0.28 1.304,-0.898c0,-1.675 -5.561,-1.356 -5.561,-5.784c0,-1.954 1.305,-3.49 4.257,-3.49Zm6.126,1.237c0,-0.758 0.341,-1.137 1.104,-1.137l2.108,0l0,10.072l4.919,0l0,1.575c0,0.758 -0.382,1.117 -1.145,1.117l-5.883,0c-0.762,0 -1.104,-0.379 -1.104,-1.137l0,-10.49l0.001,0Zm8.433,5.245c0,-4.547 1.928,-6.482 5.422,-6.482c3.473,0 5.421,1.935 5.421,6.482c0,4.547 -1.948,6.482 -5.421,6.482c-3.494,0 -5.422,-1.935 -5.422,-6.482Zm3.313,0c0,2.931 0.703,3.889 2.109,3.889c1.385,0 2.108,-0.958 2.108,-3.889c0,-2.932 -0.723,-3.889 -2.108,-3.889c-1.406,0 -2.109,0.957 -2.109,3.889Zm13.435,3.131l0.081,0l2.047,-9.034c0.1,-0.438 0.261,-0.478 0.803,-0.478l2.61,0c0,0.139 -0.019,0.299 -0.06,0.498l-3.032,11.787c-0.12,0.459 -0.381,0.518 -0.944,0.518l-3.011,0c-0.543,0 -0.803,-0.06 -0.924,-0.518l-3.012,-11.787c-0.04,-0.18 -0.06,-0.359 -0.06,-0.498l2.63,0c0.542,0 0.703,0.04 0.804,0.478l2.068,9.034Zm6.446,-8.376c0,-0.758 0.341,-1.137 1.104,-1.137l7.027,0l0,1.576c0,0.758 -0.381,1.116 -1.144,1.116l-3.775,0l0,2.294l4.217,0l0,2.593l-4.217,0l0,2.493l5.02,0l0,1.575c0,0.758 -0.382,1.117 -1.145,1.117l-5.983,0c-0.763,0 -1.104,-0.379 -1.104,-1.137l0,-10.49Zm17.55,7.119c-0.2,-1.196 -0.281,-2.871 -0.281,-4.267l0,-3.989l2.912,0l0,11.807c0,0.578 -0.282,0.997 -1.045,0.997l-1.767,0c-0.582,0 -0.803,-0.06 -1.064,-0.558l-4.036,-7.738l-0.08,0c0.201,1.515 0.261,3.151 0.261,4.268l0,3.988l-2.911,0l0,-11.707c0,-0.678 0.361,-1.097 1.124,-1.097l1.706,0c0.563,0 0.803,0.06 1.065,0.559l4.015,7.737l0.101,0Zm8.355,-8.356c2.671,0 4.056,0.3 4.056,1.536l0,1.256l-3.654,0c-0.985,0 -1.265,0.26 -1.265,0.778c0,1.536 5.581,1.217 5.581,5.525c0,2.054 -1.184,3.869 -4.798,3.869c-2.37,0 -4.237,-0.379 -4.237,-1.536l0,-1.256l4.317,0c0.884,0 1.305,-0.28 1.305,-0.898c0,-1.675 -5.562,-1.356 -5.562,-5.784c0,-1.954 1.306,-3.49 4.257,-3.49Zm9.338,5.944l3.213,-5.265c0.301,-0.519 0.482,-0.579 0.904,-0.579l3.012,0c0,0.2 -0.04,0.359 -0.161,0.558l-3.694,5.604l3.875,6.044c0.099,0.159 0.18,0.359 0.18,0.558l-2.911,0c-0.603,0 -0.783,-0.04 -1.124,-0.579l-3.294,-5.244l0,5.823l-3.212,0l0,-11.627c0,-0.758 0.341,-1.137 1.104,-1.137l2.108,0l0,5.844l0,0Zm14.599,-5.884c0.542,0 0.802,0.06 0.923,0.519l2.992,11.786c0.04,0.18 0.06,0.359 0.06,0.499l-2.63,0c-0.543,0 -0.703,-0.04 -0.803,-0.479l-0.623,-2.552l-2.991,0l-0.582,2.552c-0.1,0.439 -0.261,0.479 -0.803,0.479l-2.611,0c0,-0.14 0.02,-0.299 0.06,-0.499l2.991,-11.786c0.121,-0.459 0.383,-0.519 0.924,-0.519l3.093,0Zm-2.59,7.38l1.987,0l-0.963,-4.089l-0.08,0l-0.944,4.089Zm2.068,-8.317c-0.261,0.279 -0.382,0.3 -0.643,0.3l-1.244,0c0,-0.08 0,-0.2 0.079,-0.3l1.607,-2.074c0.221,-0.279 0.361,-0.339 0.602,-0.339l1.225,0c0.14,0 0.22,0.06 0.22,0.139c0,0.1 -0.04,0.16 -0.2,0.359l-1.646,1.915Zm-89.501,17.896c0.885,0 1.487,0.02 1.487,0.459l0,0.259l-1.516,0c-0.452,0 -0.743,0.199 -0.743,0.518c0,1.038 2.531,0.738 2.531,2.414c0,0.818 -0.542,1.436 -1.96,1.436c-0.823,0 -1.586,0 -1.586,-0.428l0,-0.28l1.688,0c0.602,0 0.883,-0.209 0.883,-0.659c0,-0.947 -2.52,-0.758 -2.52,-2.433c-0.001,-0.798 0.652,-1.286 1.736,-1.286Zm3.365,6.534l-0.904,0l0,-6.484l0.451,0c0.321,0 0.453,0.169 0.453,0.419l0,0.16c0.28,-0.33 0.732,-0.629 1.305,-0.629c1.186,0 1.737,0.967 1.737,2.544c0,1.575 -0.552,2.543 -1.737,2.543c-0.573,0 -1.025,-0.299 -1.305,-0.628l0,2.075Zm1.004,-5.816c-0.392,0 -0.743,0.179 -1.004,0.419l0,2.794c0.26,0.239 0.612,0.419 1.004,0.419c0.783,0 1.104,-0.639 1.104,-1.806c0,-1.167 -0.321,-1.826 -1.104,-1.826Zm2.68,1.826c0,-1.397 0.461,-2.544 2.038,-2.544c1.587,0 2.04,1.147 2.04,2.544c0,1.397 -0.452,2.543 -2.04,2.543c-1.577,0 -2.038,-1.146 -2.038,-2.543Zm3.143,0c0,-1.227 -0.241,-1.876 -1.105,-1.876c-0.853,0 -1.104,0.649 -1.104,1.876c0,1.227 0.251,1.875 1.104,1.875c0.864,0 1.105,-0.649 1.105,-1.875Zm1.787,2.494l0,-4.988l0.451,0c0.302,0 0.433,0.239 0.453,0.618c0.391,-0.518 0.914,-0.668 1.295,-0.668c0.17,0 0.352,0.04 0.352,0.249l0,0.639l-0.251,0c-0.734,0 -1.105,0.179 -1.396,0.419l0,3.731l-0.904,0Zm3.876,-5.547l-0.904,0l0,-0.569c0,-0.299 0.11,-0.469 0.411,-0.469l0.493,0l0,1.038Zm-0.904,0.559l0.482,0c0.311,0 0.422,0.169 0.422,0.469l0,4.519l-0.904,0l0,-4.988Zm3.132,0l1.086,0l0,0.668l-1.086,0l0,3.043c0,0.428 0.051,0.588 0.372,0.588l0.714,0l0,0.23c0,0.389 -0.362,0.478 -0.864,0.478c-1.025,0 -1.125,-0.558 -1.125,-1.297l0,-3.042l-0.633,0l0,-0.499l0.633,-0.169l0.321,-0.798c0.101,-0.21 0.171,-0.299 0.352,-0.299l0.23,0l0,1.097Zm5.052,4.329l0,0.229c0,0.389 -0.532,0.479 -1.637,0.479c-1.567,0 -2.049,-1.147 -2.049,-2.544c0,-1.397 0.512,-2.544 2.039,-2.544c1.235,0 1.878,0.758 1.878,1.855c0,0.231 0,0.44 -0.051,0.919l-2.923,0c0,1.157 0.393,1.606 1.207,1.606l1.536,0Zm-0.693,-2.224c0.01,-0.09 0.01,-0.29 0.01,-0.409c0,-0.479 -0.191,-1.078 -0.954,-1.078c-0.693,0 -1.065,0.439 -1.105,1.487l2.049,0Zm2.58,2.883l-0.834,0l0,-6.126c0,-0.299 0.1,-0.459 0.391,-0.459l0.442,0l0,6.585l0.001,0Zm1.024,-5.537c-0.04,0.15 -0.151,0.15 -0.281,0.15l-0.331,0l0.109,-1.027c0.021,-0.16 0.141,-0.17 0.262,-0.17l0.31,0c0.071,0 0.131,0.03 0.131,0.08c0,0.05 -0.01,0.09 -0.02,0.149l-0.18,0.818Zm0.662,5.537l0,-4.988l0.452,0c0.322,0 0.452,0.169 0.452,0.409l0,0.169c0.412,-0.459 0.935,-0.629 1.406,-0.629c0.974,0 1.457,0.599 1.457,1.527l0,3.511l-0.894,0l0,-3.472c0,-0.588 -0.342,-0.838 -0.915,-0.838c-0.381,0 -0.772,0.18 -1.054,0.419l0,3.891l-0.904,0l0,0.001Zm1.788,-5.417c-0.121,0 -0.181,-0.03 -0.301,-0.17l-0.803,-0.947c-0.041,-0.05 -0.041,-0.11 -0.041,-0.15l0.401,0c0.132,0 0.191,0.02 0.322,0.15l0.542,0.498l0.553,-0.498c0.131,-0.13 0.19,-0.15 0.321,-0.15l0.402,0c0,0.04 0,0.1 -0.04,0.15l-0.803,0.947c-0.121,0.14 -0.182,0.17 -0.302,0.17l-0.251,0Zm6.145,5.417c-0.322,0 -0.442,-0.17 -0.442,-0.419l0,-0.16c-0.411,0.458 -0.964,0.628 -1.406,0.628c-0.904,0 -1.466,-0.548 -1.466,-1.387c0,-1.256 1.325,-1.575 2.872,-1.646l0,-0.469c0,-0.678 -0.462,-0.867 -1.074,-0.867l-1.446,0l0,-0.259c0,-0.44 0.522,-0.459 1.577,-0.459c1.155,0 1.837,0.499 1.837,1.546l0,3.492l-0.452,0Zm-0.442,-2.414c-1.376,0.03 -1.928,0.329 -1.928,0.967c0,0.549 0.391,0.748 0.904,0.748c0.381,0 0.762,-0.169 1.023,-0.409l0,-1.306l0.001,0Z" style="fill:#00497b;fill-rule:nonzero;"/></svg>