<svg width="25" height="21" viewBox="0 0 25 21" fill="none" xmlns="http://www.w3.org/2000/svg">
<path d="M0.288462 11.4608C0.0961538 11.2685 0 10.9801 0 10.7878C0 10.5955 0.0961538 10.307 0.288462 10.1147L1.63462 8.76853C2.01923 8.38391 2.59615 8.38391 2.98077 8.76853L3.07692 8.86468L8.36538 14.5378C8.55769 14.7301 8.84615 14.7301 9.03846 14.5378L21.9231 1.17237H22.0192C22.4038 0.787757 22.9808 0.787757 23.3654 1.17237L24.7115 2.51853C25.0962 2.90314 25.0962 3.48007 24.7115 3.86468L9.32692 19.8262C9.13461 20.0185 8.94231 20.1147 8.65385 20.1147C8.36538 20.1147 8.17308 20.0185 7.98077 19.8262L0.480769 11.7493L0.288462 11.4608Z" fill="white"/>
</svg>
