<svg xmlns="http://www.w3.org/2000/svg" viewBox="0 0 150.07 45.85"><defs><style>.cls-1{fill:#e8491d;}.cls-2{fill:#fbba37;}.cls-3{fill:#dc3461;}.cls-4{fill:#1c1c3a;}</style></defs><title>logo</title><g id="Layer_2" data-name="Layer 2"><g id="Layer_1-2" data-name="Layer 1"><polygon class="cls-1" points="31.8 6.68 13.01 17.53 8.65 15.01 27.44 4.17 31.8 6.68 31.8 6.68"/><polygon class="cls-1" points="24.58 2.52 5.8 13.36 1.44 10.85 20.22 0 24.58 2.52 24.58 2.52"/><polygon class="cls-1" points="39 10.84 20.21 21.69 15.87 19.18 34.65 8.33 39 10.84 39 10.84"/><polygon class="cls-2" points="11.57 19.99 11.57 41.68 7.21 39.17 7.21 17.48 11.57 19.99 11.57 19.99"/><polygon class="cls-2" points="4.36 15.83 4.36 37.52 0 35 0 13.31 4.36 15.83 4.36 15.83"/><polygon class="cls-2" points="18.79 24.16 18.79 45.85 14.43 43.33 14.43 21.64 18.79 24.16 18.79 24.16"/><polygon class="cls-3" points="33.21 17.48 33.21 39.16 28.85 41.68 28.85 19.99 33.21 17.48 33.21 17.48"/><polygon class="cls-3" points="26 21.64 26 43.33 21.64 45.85 21.64 24.16 26 21.64 26 21.64"/><polygon class="cls-3" points="40.42 13.31 40.42 35 36.07 37.52 36.07 15.83 40.42 13.31 40.42 13.31"/><path class="cls-4" d="M57.82,22.22h7.53l.28,2.4a7.16,7.16,0,0,1,2.94-2.26,9,9,0,0,1,6-.35,7.61,7.61,0,0,1,1.83.83,5.31,5.31,0,0,1,1.15,1l.65.76a7.07,7.07,0,0,1,1.34-1.08,13.12,13.12,0,0,1,1.78-.95,11,11,0,0,1,2-.65,9.31,9.31,0,0,1,2-.23c2.81,0,4.94.77,6.41,2.31a8.79,8.79,0,0,1,2.19,6.29V43.94H86V32.34a4.87,4.87,0,0,0-.69-2.77,2.56,2.56,0,0,0-2.27-1,3.44,3.44,0,0,0-2.57,1,3.8,3.8,0,0,0-1,2.77v11.6H72.15V32.34a5,5,0,0,0-.67-2.77,2.54,2.54,0,0,0-2.29-1,3.47,3.47,0,0,0-2.52,1,3.71,3.71,0,0,0-1,2.77v11.6H57.82V22.22Z" transform="translate(-8.71 -8.93)"/><path class="cls-4" d="M109,37.84a3.87,3.87,0,0,0,3.1-1.34,5,5,0,0,0,1.15-3.42,5,5,0,0,0-1.15-3.42,4.26,4.26,0,0,0-6.2,0,5,5,0,0,0-1.15,3.42,5,5,0,0,0,1.15,3.42,3.86,3.86,0,0,0,3.1,1.34Zm-11.6-4.76a12,12,0,0,1,.85-4.53,11,11,0,0,1,6-6.17,12.8,12.8,0,0,1,9.43,0,11.15,11.15,0,0,1,3.66,2.47,11.42,11.42,0,0,1,2.38,3.7,12.55,12.55,0,0,1,0,9.08,11.44,11.44,0,0,1-2.38,3.68,11,11,0,0,1-3.66,2.47,12.8,12.8,0,0,1-9.43,0,11.06,11.06,0,0,1-3.65-2.47,11.27,11.27,0,0,1-2.38-3.68,11.92,11.92,0,0,1-.85-4.55Z" transform="translate(-8.71 -8.93)"/><polygon class="cls-4" points="115.44 4.18 123.26 4.18 123.26 35.02 115.44 35.02 115.44 4.18 115.44 4.18"/><path class="cls-4" d="M147.18,37.84a3.87,3.87,0,0,0,3.1-1.34,5,5,0,0,0,1.15-3.42,5,5,0,0,0-1.15-3.42,4.26,4.26,0,0,0-6.2,0,5,5,0,0,0-1.15,3.42,5,5,0,0,0,1.15,3.42,3.87,3.87,0,0,0,3.1,1.34Zm-11.6-4.76a12,12,0,0,1,.85-4.53,11.42,11.42,0,0,1,2.38-3.7,11.21,11.21,0,0,1,3.65-2.47,12.83,12.83,0,0,1,9.44,0,11.21,11.21,0,0,1,3.65,2.47,11.42,11.42,0,0,1,2.38,3.7,12.55,12.55,0,0,1,0,9.08,11.44,11.44,0,0,1-2.38,3.68,11.06,11.06,0,0,1-3.65,2.47,12.83,12.83,0,0,1-9.44,0,11.06,11.06,0,0,1-3.65-2.47,11.44,11.44,0,0,1-2.38-3.68,11.92,11.92,0,0,1-.85-4.55Z" transform="translate(-8.71 -8.93)"/></g></g></svg>