<?xml version="1.0" encoding="UTF-8" standalone="no"?><!DOCTYPE svg PUBLIC "-//W3C//DTD SVG 1.1//EN" "http://www.w3.org/Graphics/SVG/1.1/DTD/svg11.dtd"><svg width="100%" height="100%" viewBox="0 0 2500 1293" version="1.1" xmlns="http://www.w3.org/2000/svg" xmlns:xlink="http://www.w3.org/1999/xlink" xml:space="preserve" xmlns:serif="http://www.serif.com/" style="fill-rule:evenodd;clip-rule:evenodd;stroke-linejoin:round;stroke-miterlimit:1.41421;"><g><rect x="0" y="-515" width="2500" height="2500" style="fill:#fff;"/><path d="M217.127,1134.74l-2.737,0c-14.046,0 -25.356,-4.643 -32.346,-12.866c-6.654,-8.599 -10.169,-27.275 -10.947,-57.689l-3.113,-116.962l0.779,-0.778l184.793,210.499l26.497,0c0.791,-4.656 0.791,-6.614 0.791,-11.309c0,-6.239 -0.791,-13.242 -1.919,-19.079l-2.361,-11.711c-1.556,-7.795 -2.736,-20.661 -2.736,-30.415l-2.335,-123.576l0,-2.334c0,-41.335 4.682,-49.117 33.514,-53.008c0.415,0 1.18,0 1.958,-0.402l0,-17.937l-100.58,0l0,17.937c18.702,0.779 27.651,3.891 34.305,11.673c5.473,7.017 9.351,28.469 10.129,61.983l2.737,74.083l-0.778,0.778l-146.611,-166.454l-95.872,0l0,17.937c12.866,1.946 23.773,7.393 38.222,19.118l1.556,1.556l1.92,147.363l0,4.695c0,15.148 -0.363,22.58 -2.322,31.568c-3.891,16.744 -16.381,25.317 -35.861,25.317l-2.361,0l0,18.326l105.678,0l0,-18.313Zm508.026,-247.554l-256.153,0l0,17.937l3.904,0c23.773,0 30.79,9.754 30.79,42.502l0,145.015c0,32.749 -7.017,42.1 -30.79,42.1l-3.904,0l0,18.326l261.989,0l11.31,-65.886l-26.9,0l-2.736,3.126c-14.047,16.757 -23.8,24.954 -38.598,33.124c-16.783,9.767 -26.134,11.31 -56.925,11.31c-33.903,0 -44.421,-9.753 -44.421,-40.919l0,-71.36l37.029,0c20.66,0 29.233,0.804 36.626,3.904c11.31,4.293 20.298,16.004 23.774,31.192l25.732,0l0,-86.171l-25.732,0c-2.698,10.142 -4.293,13.268 -9.728,19.883c-8.573,10.129 -20.673,13.281 -51.075,13.281l-36.626,0l0,-99.44l54.551,0c16.004,0 24.954,1.544 34.318,5.474c12.49,5.071 21.063,12.087 35.109,29.61l2.736,3.125l25.72,0l0,-56.133Zm60.063,0l0,17.937l3.112,0c24.176,0 31.206,9.754 31.206,42.502l0,145.015c0,32.749 -7.03,42.1 -31.206,42.1l-3.112,0l0,18.326l136.843,0c38.183,0.377 51.828,-1.18 70.945,-6.225c61.606,-16.005 101.359,-66.665 101.359,-130.229c0,-45.991 -21.439,-86.937 -57.301,-109.53c-9.921,-6.108 -20.696,-10.707 -31.97,-13.644c-16.757,-4.669 -30.427,-6.239 -58.481,-6.239l-161.395,0l0,-0.013Zm103.304,17.937l10.129,0l12.853,0.402c42.476,0.364 59.259,5.435 77.183,24.552c10.9,11.232 19.04,24.847 23.774,39.766c5.473,17.535 8.21,36.263 8.21,56.146c0,50.283 -18.34,88.09 -48.365,100.956c-9.727,4.28 -27.275,7.38 -41.321,7.38c-31.569,0 -42.476,-12.088 -42.476,-45.978l0,-183.224l0.013,0Zm241.717,-17.937l0,17.937l3.515,0c23.774,0 30.79,9.754 30.79,42.502l0,145.015c0,33.125 -6.614,42.1 -31.97,42.1l-1.557,0l0,18.326l158.296,0c42.476,0.377 60.439,-3.125 81.087,-14.033c22.62,-12.088 37.418,-35.083 37.418,-58.857c0,-35.109 -28.832,-58.882 -81.061,-66.677l0,-0.791c21.024,-4.28 28.015,-6.615 41.698,-14.034c19.883,-10.907 31.179,-29.246 31.179,-49.103c0,-39.389 -36.25,-62.398 -99.024,-62.398l-170.371,0l0,0.013Zm103.304,118.92l0,-100.983l33.89,0c19.533,0 26.549,1.946 37.444,9.754c13.657,10.129 21.05,25.719 21.05,44.434c0,15.201 -5.071,26.147 -15.201,35.083c-10.531,8.988 -19.104,11.712 -38.585,11.712l-38.598,0Zm0,18.715l37.82,0c37.029,0 62.372,23.398 62.372,57.664c0,33.151 -22.619,52.67 -61.179,52.67c-26.549,0 -39.013,-13.67 -39.013,-43.28l0,-67.054Zm369.898,28.054l17.561,44.058c0.376,1.181 1.141,3.515 1.92,7.017c2.36,7.808 2.762,8.949 2.762,12.062c0,10.946 -11.348,18.326 -28.092,18.728l0,18.326l132.149,0l0,-18.326c-16.744,0 -26.147,-9.351 -37.418,-37.807l-83.007,-212.847l-72.527,0l10.13,22.218l-71.762,182.458c-13.631,35.045 -19.857,41.335 -45.212,45.978l0,18.326l91.618,0l0,-18.326c-17.911,-2.334 -26.121,-9.351 -26.121,-23.397c0,-5.448 2.334,-15.992 5.473,-25.33l11.673,-33.151l90.853,0l0,0.013Zm-8.586,-22.995l-73.279,0l34.707,-97.857l38.572,97.857Zm268.967,104.86l-2.762,0c-14.034,0 -25.33,-4.643 -32.347,-12.866c-6.641,-8.599 -10.129,-27.275 -10.921,-57.689l-3.112,-116.962l0.765,-0.778l184.819,210.499l26.497,0c0.791,-4.656 0.791,-6.614 0.791,-11.309c0,-6.239 -0.791,-13.242 -1.971,-19.079l-2.361,-11.711c-1.743,-10.046 -2.649,-20.219 -2.71,-30.415l-2.361,-123.576l0,-2.334c0,-41.335 4.708,-49.117 33.54,-53.008c0.402,0 1.193,0 1.946,-0.402l0,-17.937l-100.568,0l0,17.937c18.689,0.779 27.69,3.891 34.305,11.673c5.473,7.017 9.377,28.469 10.129,61.983l2.763,74.083l-0.791,0.778l-146.597,-166.454l-95.925,0l0,17.937c12.866,1.946 23.813,7.393 38.222,19.118l1.595,1.556l1.92,147.363l0,4.695c0,15.148 -0.402,22.58 -2.335,31.568c-3.929,16.744 -16.393,25.317 -35.874,25.317l-2.361,0l0,18.326l105.678,0l0,-18.313l0.026,0Zm399.988,-229.617l2.736,0c12.088,0 19.857,5.837 19.857,14.825c0,8.936 -14.007,26.51 -33.54,42.476l-58.066,47.197l0,-61.983c0,-32.748 7.017,-42.502 31.18,-42.502l3.113,0l0,-17.937l-137.623,0l0,17.937l4.332,0c24.137,0 31.18,9.754 31.18,42.502l0,145.015c0,32.749 -7.043,42.1 -31.18,42.1l-4.332,0l0,18.326l136.844,0l0,-18.326l-2.334,0c-24.163,0 -31.18,-9.351 -31.18,-42.1l0,-63.526l80.685,94.706c6.252,7.418 14.293,14.007 25.46,19.817c10.609,5.538 29.234,9.442 29.234,9.442l59.531,0l0,-18.326c-14.409,-2.334 -27.288,-11.712 -46.38,-33.151l-96.287,-109.944l65.082,-54.564c29.286,-24.578 33.566,-26.899 59.298,-31.971l0,-17.937l-107.61,0l0,17.924Zm-1291.7,-451.853c-0.207,-72.702 28.724,-142.538 80.283,-193.794c51.265,-51.542 121.098,-80.463 193.794,-80.257c72.699,-0.2 142.533,28.719 193.807,80.257c51.749,51.762 80.257,120.579 80.257,193.794c0,73.214 -28.495,142.071 -80.257,193.794c-51.271,51.545 -121.105,80.473 -193.807,80.283c-72.699,0.195 -142.531,-28.734 -193.794,-80.283c-51.789,-51.723 -80.283,-120.58 -80.283,-193.794Zm-35.395,0c-0.225,82.092 32.438,160.95 90.646,218.839c58.455,58.454 136.157,90.632 218.839,90.632c82.656,0 160.371,-32.178 218.813,-90.632c58.467,-58.442 90.632,-136.183 90.632,-218.839c0,-82.644 -32.165,-160.358 -90.632,-218.813c-57.884,-58.198 -136.731,-90.856 -218.813,-90.633c-82.682,0 -160.384,32.178 -218.839,90.633c-58.202,57.882 -90.866,136.729 -90.646,218.813Z" style="fill:#005944;"/><path d="M1250.7,325.298l91.748,-63.176l98.389,65.653l0,251.834l-92.682,62.385l-94.121,-60.115l-97.974,62.761l-104.562,-62.541l0.83,-253.481l96.3,-66.677l102.072,63.357Zm-98.713,-37.106l-77.118,52.164l342.947,223.625l0.687,-222.289l-72.293,-46.86l0,121.825l-194.223,-128.465Zm78.247,280.082l-74.174,-48.754l0,97.131l74.174,-48.377Z" style="fill:#005944;"/></g></svg>