<svg id="Vrstva_1" xmlns="http://www.w3.org/2000/svg" viewBox="0 0 279.4 68.6"><style>.st0{fill:#21344d}.st1{fill:#e10722}</style><g id="XMLID_211_"><path id="XMLID_208_" class="st0" d="M85.6 30.5l-5.6-12h-3v12h-6V.5h11.3c5 0 9 4.1 9 9 0 3.6-2.1 6.8-5.3 8.2l6 12.8h-6.4zM77 6.5v6h5.3c1.7 0 3-1.3 3-3s-1.3-3-3-3H77z"/><path id="XMLID_206_" class="st0" d="M116.4 6.5h-14V12H114v6h-11.5v6.5h13.8v6H96.5V.5h20v6z"/><path id="XMLID_204_" class="st0" d="M131.5 17.8c-1-.3-2.8-.7-4.5-1.9-2.4-1.6-3.7-3.9-3.8-6.8-.1-2.4.6-4.5 2.2-6.1 2.2-2.3 5.4-2.9 7-2.9 4.4 0 6.8 1.6 9 3l1 .6-3.1 5.1-1.3-.6c-1.9-1.2-3.2-2.1-5.8-2.1-.4 0-1.9.3-2.6 1.1-.3.3-.6.7-.5 1.7 0 1.5 1.1 2.4 3.8 3.1l.9.3c2.9 1 5.1 2.3 6.6 4 1.5 1.7 2.4 3.7 2.4 5.9 0 2.1-.9 4.3-2.4 5.9-1.8 2-4.2 3.1-6.9 3.1-1.3 0-3.1-.1-5.3-.7-2.7-.9-5.1-2.4-7.1-4.5l4.4-4.1c3.2 3.4 6.7 3.4 8 3.4 2.5 0 3.3-2.3 3.3-3 0-1.6-1.8-3.1-5-4.2h-.1l-.2-.3z"/><path id="XMLID_149_" class="st0" d="M157.1.6c5 0 9 4.1 9 9 0 5-4 9-9 9h-3.7v12h-6V.6h9.7zm0 12c1.6 0 3-1.3 3-3s-1.4-3-3-3h-3.7v6h3.7z"/><path id="XMLID_16_" class="st0" d="M200.1 15.5c0 8.5-7 15.5-15.5 15.5s-15.5-7-15.5-15.5S176 0 184.6 0s15.5 7 15.5 15.5zm-24.9 0c0 5.2 4.2 9.4 9.4 9.4s9.4-4.2 9.4-9.4-4.2-9.4-9.4-9.4c-5.2.1-9.4 4.2-9.4 9.4z"/><path id="XMLID_14_" class="st0" d="M228.1 30.5L211.2 13v17.5h-6V.5h1.9l16.5 16.8V.6h6v30h-1.5z"/><path id="XMLID_12_" class="st0" d="M244.7 17.8c-1-.3-2.8-.7-4.5-1.9-2.4-1.6-3.7-3.9-3.8-6.8-.1-2.4.6-4.5 2.2-6.1 2.2-2.3 5.4-2.9 7-2.9 4.4 0 6.8 1.6 9 3l1 .6-3.1 5.1-1.1-.7c-1.9-1.2-3.2-2.1-5.8-2.1-.4 0-1.9.3-2.6 1.1-.3.3-.6.7-.5 1.7 0 1.5 1.1 2.4 3.8 3.1l.9.3c2.9 1 5.1 2.3 6.6 4 1.5 1.7 2.4 3.7 2.4 5.9 0 2.1-.9 4.3-2.4 5.9-1.8 2-4.2 3.1-6.9 3.1-1.3 0-3.1-.1-5.3-.7-2.7-.9-5.1-2.4-7.1-4.5l4.4-4.1c3.2 3.4 6.7 3.4 8 3.4 2.5 0 3.3-2.3 3.3-3 0-1.6-1.8-3.1-5-4.2h-.1l-.4-.2z"/><path id="XMLID_10_" class="st0" d="M279.4 6.5h-14V12H277v6h-11.5v6.5h13.8v6h-19.8V.5h20v6z"/><path id="XMLID_8_" class="st0" d="M94.1 68.1L77.2 50.6v17.5h-6v-30h1.9l16.5 16.8V38.2h6v30h-1.5z"/><path id="XMLID_5_" class="st0" d="M131.8 53.1c0 8.5-7 15.5-15.5 15.5s-15.5-7-15.5-15.5 7-15.5 15.5-15.5 15.5 7 15.5 15.5zm-24.9 0c0 5.2 4.2 9.4 9.4 9.4s9.4-4.2 9.4-9.4-4.2-9.4-9.4-9.4c-5.2.1-9.4 4.3-9.4 9.4z"/><path id="XMLID_3_" class="st0" d="M170.4 38.2l-11.2 30h-1.5l-5-11-5 11h-1.5l-13.7-30h6.6l8 16.8 2.6-5-5.8-11.8h6.6l7.5 16.5 6.6-16.5h5.8z"/><path id="XMLID_2_" class="st1" d="M20.4 43.2l-6.7-9.4v34.3h24.4V43.2z"/><path id="XMLID_1_" class="st1" d="M17.7 25.6l6.8 9.4V.6H0v25z"/></g></svg>