<?xml version="1.0" encoding="UTF-8" standalone="no"?><!DOCTYPE svg PUBLIC "-//W3C//DTD SVG 1.1//EN" "http://www.w3.org/Graphics/SVG/1.1/DTD/svg11.dtd"><svg width="100%" height="100%" viewBox="0 0 2351 1208" version="1.1" xmlns="http://www.w3.org/2000/svg" xmlns:xlink="http://www.w3.org/1999/xlink" xml:space="preserve" xmlns:serif="http://www.serif.com/" style="fill-rule:evenodd;clip-rule:evenodd;stroke-linejoin:round;stroke-miterlimit:1.41421;"><g><rect x="-76" y="-638" width="2500" height="2500" style="fill:#fff;"/><rect x="34.295" y="86.802" width="2279.41" height="1050.39" style="fill:#fff;"/><rect x="34.295" y="86.802" width="2274.82" height="1050.39" style="fill:#d0e9fb;"/><path d="M597.572,605.489l-0.428,0c-0.649,0.221 -1.284,0.221 -2.14,0.221l-5.772,0c-0.648,-0.221 -1.284,-0.221 -1.919,-0.221l-0.428,0l-0.428,0c-0.649,0 -1.284,-0.22 -2.14,-0.22c-0.636,-0.208 -1.284,-0.208 -1.92,-0.428c-0.843,0 -1.491,0 -2.127,-0.208c-0.648,0 -1.284,0 -1.712,-0.22c-0.635,0 -1.284,0 -1.906,-0.221l-0.869,0c-0.856,-0.207 -1.712,-0.207 -2.776,-0.415c-0.635,-0.207 -1.491,-0.207 -2.347,-0.428l-2.569,-0.635c-0.658,-0.037 -1.307,-0.182 -1.919,-0.428c-0.649,-0.208 -1.505,-0.428 -2.14,-0.636l-0.415,0c0,-0.22 -0.221,-0.22 -0.221,-0.22c-0.882,-0.186 -1.739,-0.473 -2.555,-0.856c-0.815,-0.194 -1.606,-0.477 -2.36,-0.843c-0.636,-0.221 -1.492,-0.649 -2.14,-0.856c-0.649,-0.208 -1.284,-0.415 -1.92,-0.843c-0.635,-0.221 -1.284,-0.428 -1.919,-0.856c-0.208,0 -0.428,0 -0.428,-0.221l-0.428,0c-0.855,-0.622 -1.794,-1.12 -2.789,-1.478c-0.843,-0.428 -1.478,-0.856 -2.334,-1.297c-0.856,-0.415 -1.712,-1.064 -2.568,-1.492c-0.623,-0.428 -1.284,-0.843 -1.92,-1.271c-0.622,-0.221 -1.284,-0.856 -1.906,-1.284c-0.221,0 -0.428,0 -0.428,-0.221c-0.221,0 -0.221,-0.22 -0.428,-0.22c-0.856,-0.636 -1.492,-1.284 -2.348,-1.92c-0.805,-0.445 -1.529,-1.024 -2.14,-1.712c-0.856,-0.635 -1.491,-1.063 -2.14,-1.699c-0.635,-0.441 -1.284,-1.063 -1.919,-1.491c-0.636,-0.428 -1.284,-1.077 -1.933,-1.505c-0.22,-0.207 -0.22,-0.207 -0.415,-0.428l-0.22,-0.22l-2.14,-2.14c-0.636,-0.843 -1.284,-1.492 -1.92,-2.127c-0.843,-0.636 -1.284,-1.284 -2.14,-1.92c-0.438,-0.619 -0.942,-1.189 -1.504,-1.699c-0.548,-0.524 -1.047,-1.097 -1.492,-1.712c0,-0.22 -0.22,-0.22 -0.22,-0.428c-0.221,0 -0.221,-0.207 -0.428,-0.207c-0.428,-0.869 -1.077,-1.712 -1.7,-2.568c-0.691,-0.692 -1.269,-1.488 -1.712,-2.361c-0.648,-0.635 -1.076,-1.491 -1.712,-2.347c-0.428,-0.636 -0.635,-1.284 -1.076,-1.933c-0.428,-0.635 -0.843,-1.491 -1.271,-2.14c0,-0.207 0,-0.207 -0.221,-0.428c0,-0.22 -0.207,-0.22 -0.207,-0.428c-0.844,-1.054 -1.563,-2.203 -2.14,-3.424c-0.636,-0.843 -1.077,-1.906 -1.712,-2.983l-1.284,-3.203c-0.45,-0.814 -0.807,-1.675 -1.064,-2.568c-0.428,-1.077 -0.635,-1.92 -1.063,-2.776l0,-0.635c-0.221,-0.221 -0.221,-0.428 -0.221,-0.428c-0.426,-1.282 -0.858,-2.562 -1.297,-3.839c-0.428,-1.284 -0.856,-2.361 -1.063,-3.632c-0.428,-1.077 -0.636,-2.361 -1.064,-3.424c-0.22,-0.856 -0.415,-1.92 -0.635,-2.776c-0.221,-1.063 -0.441,-2.14 -0.649,-2.983l0,-0.635c-0.207,-0.221 -0.207,-0.428 -0.207,-0.649c-0.221,-1.063 -0.428,-2.347 -0.636,-3.411l-0.635,-3.203c0,-1.064 -0.221,-2.14 -0.221,-3.217c-0.207,-1.063 -0.207,-1.906 -0.207,-2.762c-0.221,-0.856 -0.221,-1.92 -0.221,-2.776l0,-0.648c-0.207,0 -0.207,-0.221 -0.207,-0.428c0,-1.077 -0.221,-2.348 -0.221,-3.424c-0.207,-1.064 -0.207,-2.14 -0.207,-3.204c0,-1.063 -0.221,-2.14 -0.221,-3.203l0,-2.776c0,-0.843 0,-1.919 0.221,-2.775l0,-0.428l0,-0.856l0,-4.475c0.207,-1.504 0.207,-2.788 0.207,-4.28c0.221,-1.284 0.221,-2.568 0.428,-4.06c0,-1.076 0.221,-2.14 0.221,-3.203c0.207,-1.077 0.207,-2.361 0.428,-3.424l0,-0.636c0,-0.22 0.22,-0.441 0.22,-0.648c0.221,-1.492 0.428,-2.983 0.843,-4.488c0.221,-1.284 0.636,-2.568 0.843,-4.059c0.441,-1.284 0.649,-2.568 1.077,-3.839c0.207,-1.077 0.635,-2.14 0.843,-3.217c0.428,-1.063 0.856,-2.347 1.284,-3.424c0,-0.207 0.207,-0.428 0.207,-0.635c0.221,-0.221 0.221,-0.428 0.221,-0.636c0.428,-1.284 1.076,-2.568 1.491,-3.839c0.428,-1.284 0.843,-2.568 1.492,-3.631c0.428,-1.284 1.076,-2.361 1.504,-3.632c0.428,-0.856 1.064,-1.712 1.492,-2.775c0.635,-1.077 1.063,-1.92 1.699,-2.983c0,-0.221 0.22,-0.428 0.22,-0.636c0.221,-0.22 0.221,-0.428 0.428,-0.428l1.92,-3.852c0.636,-1.077 1.492,-2.14 2.14,-3.411c0.636,-1.077 1.479,-2.14 2.14,-3.217c0.636,-0.843 1.271,-1.478 1.92,-2.347l2.14,-2.776c0.207,-0.22 0.428,-0.22 0.428,-0.428c0.207,-0.22 0.207,-0.428 0.415,-0.428c0.804,-1.037 1.661,-2.033 2.568,-2.983c0.856,-0.843 1.491,-1.699 2.347,-2.775c0.856,-0.856 1.712,-1.492 2.568,-2.348c0.856,-0.856 1.505,-1.504 2.14,-1.919c0.856,-0.856 1.712,-1.505 2.568,-2.14c0,-0.221 0.221,-0.221 0.428,-0.428c0.221,0 0.221,-0.221 0.428,-0.428c0.856,-0.856 1.92,-1.699 2.996,-2.361c1.064,-0.843 1.92,-1.491 2.983,-2.14l3.204,-1.906c0.856,-0.649 1.712,-1.077 2.568,-1.505c0.856,-0.635 1.919,-1.063 2.762,-1.699c0.221,0 0.428,-0.207 0.649,-0.207c0,0 0.22,0 0.22,-0.221c0.843,-0.415 1.492,-0.856 2.348,-1.284c0.635,-0.207 1.491,-0.635 2.14,-0.843c0.665,-0.444 1.384,-0.801 2.14,-1.063c0.635,-0.221 1.271,-0.649 1.906,-0.856c0.636,-0.221 1.284,-0.636 1.92,-0.856c0.22,0 0.22,-0.221 0.428,-0.221l0.428,0c0.635,-0.428 1.504,-0.635 2.348,-0.843c0.747,-0.384 1.54,-0.671 2.36,-0.856c0.636,-0.22 1.492,-0.428 2.14,-0.635l1.92,-0.636c0.635,0 1.284,-0.22 2.14,-0.428l0.635,0c0.856,-0.208 1.505,-0.428 2.348,-0.648c0.856,-0.208 1.699,-0.208 2.36,-0.416c0.843,0 1.492,-0.22 2.348,-0.428c0.635,0 1.297,-0.22 1.919,-0.22c0.613,-0.243 1.261,-0.383 1.92,-0.415l0.207,-0.221l0.428,0c0.856,0 1.712,-0.22 2.568,-0.22l2.14,0c0.856,0 1.492,-0.208 2.348,-0.208l9.623,0c0.843,0.208 1.699,0.208 2.348,0.208l1.919,0c0.636,0.22 1.284,0.22 1.933,0.22l0.869,0c0.843,0.221 1.699,0.221 2.542,0.428c0.856,0.221 1.712,0.221 2.555,0.428c0.661,0.221 1.504,0.221 2.36,0.428c0.533,0.265 1.118,0.407 1.712,0.416c0.649,0.22 1.492,0.44 2.14,0.44c0,0.208 0.221,0.208 0.221,0.208l0.428,0l2.568,0.636c0.843,0.207 1.712,0.428 2.347,0.635c0.856,0.208 1.492,0.428 2.361,0.649c0.636,0.22 1.284,0.415 1.92,0.648c0.635,0.208 1.284,0.636 2.127,0.843l0.428,0l0.22,0.221c0.856,0.428 1.712,0.635 2.348,1.063c0.856,0.428 1.491,0.649 2.14,1.077c0.856,0.22 1.491,0.635 2.14,0.856c0.635,0.428 1.284,0.635 1.906,1.063c0.649,0.221 1.284,0.649 1.92,0.856c0,0.221 0.22,0.221 0.22,0.221c0.221,0 0.428,0.207 0.649,0.207c1.063,0.843 2.14,1.505 3.203,2.14c1.064,0.636 2.14,1.077 2.983,1.712c1.077,0.649 2.14,1.284 3.217,2.14c0.635,0.441 1.504,1.077 2.347,1.712l2.555,1.92c0,0.207 0.221,0.428 0.441,0.428c0,0.22 0.208,0.22 0.428,0.428c0.843,0.856 1.92,1.699 2.763,2.555c1.076,0.648 1.932,1.504 2.788,2.36c0.843,0.843 1.712,1.699 2.555,2.568c0.636,0.856 1.284,1.492 1.92,2.14c0.635,0.856 1.284,1.712 2.127,2.555c0,0 0.22,0.221 0.22,0.428c0.221,0.208 0.428,0.208 0.428,0.428c0.856,1.064 1.699,2.14 2.568,3.411c0.856,0.856 1.699,1.92 2.555,2.983c0.649,1.077 1.505,2.14 2.14,3.424c0.649,0.843 1.285,1.699 1.7,2.568c0.648,1.064 1.297,2.127 1.712,3.204c0.22,0 0.22,0.22 0.428,0.428c0,0.207 0.22,0.415 0.22,0.635c0.636,1.284 1.284,2.568 1.907,3.619c0.648,1.297 1.297,2.36 1.712,3.644c0.635,1.064 1.076,2.348 1.712,3.632c0.415,0.856 0.635,1.92 1.063,2.776l1.284,3.216c0,0.208 0,0.428 0.221,0.636l0,0.635c0.635,1.505 1.063,2.776 1.284,4.28c0.415,1.284 0.856,2.568 1.063,3.839c0.428,1.284 0.636,2.776 1.077,4.06l0.635,3.203c0.221,1.064 0.428,2.348 0.636,3.632c0,0.207 0,0.428 0.207,0.648l0,0.636c0.221,1.271 0.441,2.762 0.649,4.267c0,1.284 0.22,2.775 0.441,4.059c0.22,1.271 0.22,2.776 0.428,4.06c0,1.063 0.207,2.347 0.207,3.411l0,14.954c0,0.856 -0.207,1.712 -0.207,2.568c0,0.843 0,1.907 -0.208,2.776l0,1.076c-0.22,1.064 -0.22,2.348 -0.441,3.411c-0.22,1.077 -0.22,2.348 -0.428,3.424c-0.22,1.064 -0.441,2.14 -0.635,3.204c0,0.856 -0.221,1.699 -0.428,2.568c-0.221,0.843 -0.428,1.906 -0.649,2.762c0,0.221 -0.207,0.428 -0.207,0.649l0,0.635c-0.242,1.206 -0.458,2.417 -0.649,3.632c-0.185,1.232 -0.471,2.446 -0.856,3.631c-0.22,1.077 -0.428,2.14 -0.856,3.424c-0.214,0.945 -0.496,1.872 -0.843,2.776c-0.22,1.076 -0.648,2.14 -0.856,3.203c-0.207,0 -0.207,0.221 -0.207,0.428c-0.234,0.221 -0.234,0.415 -0.234,0.636c-0.428,1.076 -1.063,2.36 -1.478,3.424c-0.408,1.109 -0.912,2.181 -1.505,3.204c-0.428,1.076 -1.063,2.127 -1.491,3.203c-0.415,0.832 -0.915,1.619 -1.492,2.348c-0.428,0.856 -1.076,1.932 -1.504,2.788l-0.415,0.428c0,0.221 0,0.221 -0.221,0.428c-0.428,0.856 -0.856,1.712 -1.504,2.776c-0.428,0.648 -0.856,1.491 -1.492,2.347c-0.428,0.636 -1.064,1.492 -1.699,2.348c-0.428,0.648 -0.856,1.076 -1.284,1.712c-0.441,0.635 -1.077,1.491 -1.505,2.14l-0.207,0.207l-0.441,0.428c-0.636,0.636 -1.271,1.492 -1.907,2.14c-0.648,0.636 -1.284,1.284 -1.919,2.14l-1.92,1.92c-0.635,0.428 -1.063,1.063 -1.699,1.699l-1.712,1.712c-0.22,0 -0.22,0.22 -0.22,0.22l-0.428,0.428c-0.74,0.695 -1.524,1.34 -2.348,1.933c-0.635,0.622 -1.284,1.063 -2.14,1.699c-0.648,0.635 -1.504,1.284 -2.14,1.712c-0.635,0.635 -1.284,1.063 -1.712,1.491c-0.843,0.428 -1.504,1.077 -2.14,1.505l-0.22,0.143c-0.208,0.22 -0.428,0.22 -0.428,0.22c-0.856,0.636 -1.699,1.284 -2.568,1.712c-0.636,0.415 -1.492,1.064 -2.14,1.492c-0.856,0.428 -1.712,0.843 -2.555,1.284c-0.563,0.479 -1.215,0.84 -1.92,1.063c-0.688,0.469 -1.402,0.898 -2.14,1.284l-0.428,0c0,0.221 -0.207,0.221 -0.207,0.221c-1.077,0.428 -1.92,0.856 -2.789,1.076c-0.635,0.415 -1.491,0.636 -2.347,1.064c-0.636,0.207 -1.492,0.635 -2.348,0.843c-0.428,0.22 -1.076,0.428 -1.712,0.635c-0.856,0.221 -1.504,0.441 -2.36,0.649c0,0 -0.208,0 -0.208,0.22l-0.428,0c-0.856,0.428 -1.919,0.636 -2.762,0.856c-0.869,0.208 -1.505,0.415 -2.374,0.649c-0.796,0.015 -1.585,0.159 -2.335,0.428c-0.73,0.034 -1.452,0.179 -2.14,0.428c-0.635,0 -1.284,0.207 -2.14,0.207l-0.428,0l-0.207,0c-0.623,0.181 -1.272,0.256 -1.92,0.221c-0.661,0.22 -1.297,0.22 -1.919,0.428c-0.649,0 -1.297,0 -1.92,0.22c-0.441,0 -0.869,0.208 -1.504,0.208c-0.415,0 -1.064,0.22 -1.492,0.22l-9.403,0c0,-0.039 0,-0.039 -0.207,-0.039Zm-0.843,-41.866l2.14,0c0.635,0 1.063,0 1.699,-0.221c0.648,0 1.284,0 1.712,-0.207c0.635,0 1.076,0 1.491,-0.221c0.428,0 1.064,-0.22 1.492,-0.22l0.207,0c0.221,0 0.221,0 0.428,-0.208c0.441,0 1.077,-0.22 1.725,-0.441c0.415,-0.207 1.064,-0.428 1.492,-0.635c0.635,0 1.076,-0.221 1.699,-0.428c0.22,-0.208 0.856,-0.428 1.076,-0.636c0.636,-0.207 1.064,-0.428 1.479,-0.635c0,0 0.233,0 0.233,-0.221l0.428,0c0.636,-0.428 1.271,-0.856 2.127,-1.076c0.53,-0.48 1.103,-0.91 1.712,-1.284c0.683,-0.271 1.328,-0.628 1.92,-1.064c0.367,-0.368 0.803,-0.659 1.284,-0.856c0.648,-0.441 1.064,-0.856 1.492,-1.076c0.22,-0.208 0.22,-0.208 0.428,-0.208c0,-0.22 0.207,-0.22 0.207,-0.428c0.649,-0.428 1.297,-1.076 1.712,-1.712c0.649,-0.428 1.077,-1.076 1.492,-1.491c0.428,-0.636 0.856,-1.284 1.284,-1.712c0.415,-0.649 0.635,-1.064 1.063,-1.505c0.428,-0.428 0.649,-1.063 1.064,-1.491c0,0 0,-0.221 0.22,-0.221c0,-0.22 0,-0.22 0.208,-0.428c0.428,-0.635 0.856,-1.491 1.284,-2.127l1.284,-1.919c0.278,-0.682 0.64,-1.327 1.076,-1.92c0.221,-0.635 0.428,-1.063 0.636,-1.712c0.428,-0.635 0.635,-1.284 0.856,-1.919l0,-0.415c0.22,0 0.22,-0.221 0.22,-0.221c0.428,-0.648 0.636,-1.504 1.077,-2.14c0.207,-0.648 0.428,-1.284 0.635,-2.14l0.636,-1.919c0.207,-0.636 0.428,-1.272 0.428,-1.92c0.248,-0.612 0.392,-1.26 0.428,-1.92c0.035,-0.659 0.22,-0.22 0.22,-0.428l0,-0.207c0.221,-1.077 0.636,-1.92 0.843,-2.776c0.221,-0.856 0.221,-1.712 0.428,-2.568c0.251,-0.834 0.394,-1.697 0.428,-2.568c0.234,-0.856 0.234,-1.504 0.428,-2.347c0.221,-0.636 0.221,-1.492 0.428,-2.348l0,-0.428l0,-0.428c0.221,-1.063 0.221,-1.919 0.428,-2.983c0,-0.856 0.221,-1.712 0.221,-2.775c0,-0.856 0.207,-1.712 0.207,-2.568l0,-2.14c0.221,-0.856 0.221,-1.712 0.221,-2.361l0,-0.415l0,-0.635c0,-1.077 0,-2.348 0.22,-3.424l0,-3.204l0,-2.983l0,-2.347c-0.22,-0.856 -0.22,-1.712 -0.22,-2.568l0,-0.428c0,-0.208 -0.221,-0.428 -0.221,-0.636c0,-1.076 -0.207,-2.36 -0.207,-3.424c-0.251,-1.055 -0.394,-2.133 -0.428,-3.217c-0.221,-0.843 -0.428,-1.919 -0.649,-2.983c-0.207,-0.856 -0.428,-1.504 -0.428,-2.347l-0.635,-2.568c-0.221,-0.208 -0.221,-0.428 -0.221,-0.636l0,-0.22c-0.22,-1.064 -0.428,-1.907 -0.635,-2.763c-0.221,-0.856 -0.649,-1.504 -0.856,-2.347c-0.196,-0.815 -0.479,-1.606 -0.843,-2.361l-0.649,-1.919c-0.207,-0.649 -0.648,-1.284 -0.856,-1.92c0,-0.22 0,-0.22 -0.22,-0.428l0,-0.428l-1.284,-2.568c-0.428,-0.843 -0.856,-1.491 -1.284,-2.334c-0.481,-0.681 -0.911,-1.396 -1.284,-2.14c-0.428,-0.428 -0.856,-1.077 -1.284,-1.492l-1.284,-1.919l-0.221,-0.221c0,-0.207 -0.22,-0.207 -0.22,-0.207c-0.427,-0.696 -0.927,-1.344 -1.492,-1.933l-1.284,-1.284c-0.428,-0.635 -1.076,-1.076 -1.504,-1.491c-0.428,-0.428 -0.843,-0.636 -1.064,-1.077c-0.428,-0.415 -1.063,-0.843 -1.491,-1.271c0,0 0,-0.22 -0.208,-0.22c0,-0.221 0,-0.221 -0.207,-0.221c-0.428,-0.415 -1.077,-0.843 -1.712,-1.271c-0.488,-0.476 -1.072,-0.843 -1.712,-1.076c-0.428,-0.428 -1.077,-0.636 -1.7,-0.856c-0.421,-0.407 -0.939,-0.702 -1.504,-0.856c-0.415,-0.208 -1.064,-0.415 -1.492,-0.636l-0.428,0c0,-0.22 -0.22,-0.22 -0.22,-0.22c-0.608,-0.199 -1.184,-0.483 -1.712,-0.843c-0.428,-0.208 -0.856,-0.428 -1.492,-0.649c-0.461,-0.235 -0.963,-0.381 -1.478,-0.428c-0.441,-0.22 -0.856,-0.428 -1.297,-0.428c-0.636,-0.22 -1.077,-0.428 -1.492,-0.428l-0.207,-0.22l-0.428,0c-0.636,0 -1.284,-0.208 -1.699,-0.208c-0.636,-0.22 -1.284,-0.22 -1.712,-0.428l-1.712,0c-0.428,-0.207 -0.843,-0.207 -1.284,-0.207l-3.839,0c-0.649,0 -1.284,0.207 -1.933,0.207c-0.428,0 -1.063,0.221 -1.699,0.221c-0.428,0 -0.843,0 -1.491,0.22c-0.428,0 -0.856,0.208 -1.492,0.208l-0.22,0c-0.221,0 -0.221,0 -0.428,0.22c-0.584,0.062 -1.156,0.206 -1.699,0.428c-0.585,0.171 -1.157,0.383 -1.712,0.636c-0.636,0.207 -1.077,0.428 -1.712,0.648c-0.428,0 -0.843,0.208 -1.284,0.415c-0.427,0.215 -0.855,0.426 -1.284,0.636c-0.208,0 -0.208,0 -0.428,0.22l-0.208,0c-0.648,0.221 -1.491,0.636 -2.14,0.856c-0.428,0.208 -1.076,0.636 -1.712,0.856c-0.635,0.428 -1.076,0.636 -1.712,1.064c-0.428,0.22 -0.856,0.428 -1.284,0.856c-0.428,0.415 -1.076,0.635 -1.491,1.063c-0.208,0 -0.208,0 -0.428,0.221c0,0 0,0.22 -0.208,0.22l-1.492,1.492c-0.428,0.428 -1.063,0.856 -1.504,1.504l-1.284,1.284c-0.428,0.428 -0.856,0.843 -1.076,1.284c-0.428,0.428 -0.856,0.843 -1.285,1.505l-0.207,0.207c0,0.013 0,0.221 -0.221,0.221c-0.428,0.856 -1.076,1.491 -1.504,2.347c-0.562,0.587 -1.061,1.23 -1.492,1.92c-0.376,0.742 -0.805,1.458 -1.284,2.14c-0.428,0.648 -0.635,1.284 -1.063,1.919c-0.221,0.869 -0.636,1.505 -0.843,2.14c0,0.221 -0.221,0.428 -0.221,0.428c0,0.208 0,0.208 -0.22,0.428c-0.235,0.831 -0.594,1.623 -1.064,2.348c-0.22,0.856 -0.635,1.712 -0.856,2.36c-0.154,0.824 -0.444,1.617 -0.856,2.348c0,0.648 -0.22,1.284 -0.428,1.919c-0.22,0.843 -0.415,1.492 -0.415,2.348c0,0 0,0.22 -0.22,0.22l0,0.636c-0.208,1.076 -0.649,2.14 -0.856,3.216c-0.221,0.843 -0.428,1.92 -0.636,2.983c-0.22,1.064 -0.22,1.907 -0.428,2.983c-0.22,0.856 -0.22,1.712 -0.428,2.568c0,0.856 -0.22,1.92 -0.22,2.776l0,4.267c-0.221,1.076 -0.221,1.92 -0.221,2.983l0,5.551c0,0.856 0,1.92 0.221,2.776l0,3.839c0,1.076 0.22,1.919 0.22,2.775c0,0.843 0,1.712 0.208,2.555c0,0.856 0,1.505 0.22,2.348c0,0.648 0,1.504 0.208,2.347l0,0.856c0.22,1.064 0.428,1.92 0.428,2.97c0.207,0.856 0.428,1.712 0.635,2.789c0,0.843 0.221,1.699 0.441,2.555c0.038,0.659 0.183,1.307 0.428,1.919c0.208,0.856 0.415,1.505 0.623,2.348l0,0.208c0,0.22 0,0.428 0.22,0.428c0,0.856 0.428,1.712 0.649,2.347c0.207,0.856 0.428,1.492 0.635,2.348l0.636,1.919c0.207,0.636 0.428,1.064 0.635,1.712c0.204,0.608 0.492,1.185 0.856,1.712l0,0.221c0,0.22 0,0.415 0.221,0.415c0.182,0.818 0.465,1.611 0.843,2.36c0.22,0.649 0.636,1.284 0.856,2.14l1.271,1.92c0.221,0.428 0.428,0.856 0.856,1.491c0.428,0.649 0.649,1.077 1.064,1.712c0,0.221 0.207,0.221 0.207,0.428l0.221,0.221c0.428,0.635 0.856,1.284 1.491,1.919c0.428,0.415 0.843,1.064 1.284,1.712c0.428,0.428 0.856,1.064 1.505,1.699c0.207,0.428 0.648,0.856 1.076,1.284l1.271,1.284c0,0.221 0.221,0.221 0.221,0.428c0.207,0 0.207,0 0.428,0.208l1.919,1.271c0.428,0.441 1.064,0.856 1.712,1.284c0.636,0.428 1.284,0.648 1.92,1.076c0.419,0.407 0.938,0.698 1.504,0.843c0.649,0.428 1.077,0.636 1.699,0.856l0.221,0c0.22,0.221 0.22,0.221 0.415,0.221c0.648,0.22 1.076,0.635 1.712,0.843c0.648,0.22 1.076,0.428 1.699,0.635c0.467,0.243 0.979,0.389 1.504,0.428c0.515,0.18 1.017,0.392 1.505,0.636c0.415,0 0.843,0.22 1.491,0.22c0,0.208 0.208,0.208 0.208,0.208l0.22,0c0.649,0.22 1.284,0.22 1.92,0.22c0.648,0.221 1.284,0.221 1.919,0.428c0.636,0 1.271,0 1.92,0.221l2.983,0c0.161,0.041 0.327,0.059 0.493,0.052Zm428.261,38.883l-117.895,0c-0.22,0 -0.428,-0.22 -0.648,-0.22c-0.221,0 -0.428,0 -0.856,-0.208l-0.856,0c-0.208,0 -0.428,0 -0.649,-0.22c-0.207,0 -0.415,-0.208 -0.635,-0.208c-0.221,0 -0.415,-0.22 -0.636,-0.22c-0.22,0 -0.428,-0.208 -0.648,-0.208l-0.221,0c-0.22,-0.22 -0.428,-0.22 -0.635,-0.22c-0.208,-0.221 -0.428,-0.221 -0.636,-0.428c-0.22,0 -0.428,-0.221 -0.648,-0.221c-0.208,0 -0.428,-0.22 -0.428,-0.22c-0.208,0 -0.428,-0.221 -0.636,-0.221l-0.207,0c0,-0.207 -0.221,-0.207 -0.441,-0.428c-0.208,0 -0.415,-0.207 -0.636,-0.207c-0.22,-0.221 -0.441,-0.221 -0.648,-0.428c0,0 -0.208,-0.221 -0.415,-0.221c-0.234,-0.207 -0.428,-0.207 -0.649,-0.415l-0.22,0l0,-0.194c-0.221,0 -0.428,-0.221 -0.649,-0.221c-0.207,-0.22 -0.428,-0.428 -0.635,-0.428c-0.208,-0.207 -0.428,-0.428 -0.636,-0.428l-0.428,-0.428c-0.215,-0.204 -0.427,-0.412 -0.635,-0.622l-0.221,0l-0.635,-0.649c-0.209,-0.211 -0.421,-0.418 -0.636,-0.622c-0.22,-0.221 -0.428,-0.221 -0.648,-0.441c-0.221,-0.221 -0.428,-0.415 -0.428,-0.636l-0.636,-0.648l0,-0.208c-0.22,-0.22 -0.428,-0.428 -0.635,-0.843c-0.234,-0.221 -0.234,-0.428 -0.441,-0.649c-0.208,-0.207 -0.208,-0.428 -0.428,-0.635c-0.208,-0.221 -0.208,-0.428 -0.428,-0.636c0,-0.22 -0.221,-0.428 -0.221,-0.635l0,-0.221c-0.207,-0.22 -0.415,-0.441 -0.648,-0.869c0,-0.207 -0.221,-0.428 -0.428,-0.635c0,-0.221 -0.208,-0.415 -0.428,-0.636c0,-0.22 -0.208,-0.428 -0.208,-0.648c-0.22,0 -0.428,-0.428 -0.428,-0.649l-0.207,0l0,-0.207c0,-0.221 -0.221,-0.636 -0.221,-1.077c0,-0.22 -0.22,-0.441 -0.22,-0.856c-0.221,-0.207 -0.221,-0.635 -0.428,-0.843c0,-0.22 0,-0.441 -0.208,-0.648c0,-0.208 0,-0.428 -0.22,-0.636l0,-0.207l0,-1.064c0,-0.441 0,-0.648 -0.208,-1.076l0,-0.856c0,-0.208 0,-0.415 -0.22,-0.636l0,-0.635l0,-167.92c0,-0.22 0,-0.428 0.22,-0.635l0,-0.636c0,-0.22 0,-0.428 0.208,-0.648l0,-0.636l0,-0.869c0.22,-0.22 0.22,-0.635 0.22,-0.856c0.208,-0.207 0.208,-0.428 0.208,-0.635c0,-0.428 0,-0.636 0.22,-0.856l0,-0.428c0.221,-0.221 0.221,-0.428 0.221,-0.636l0.22,0l0,-0.22c0,-0.221 0,-0.428 0.221,-0.636c0,-0.207 0.207,-0.428 0.207,-0.856c0,0 0.221,-0.207 0.221,-0.428c0.22,-0.207 0.22,-0.415 0.22,-0.415c0.208,-0.233 0.208,-0.441 0.428,-0.441l0,-0.22c0,-0.208 0.208,-0.636 0.208,-0.843c0,-0.208 0.207,-0.428 0.207,-0.649c0.221,-0.194 0.221,-0.415 0.441,-0.622c0.221,-0.208 0.221,-0.208 0.221,-0.428l0.415,-0.441c0.22,0 0.22,0 0.22,-0.208c0.208,-0.22 0.428,-0.648 0.636,-0.856c0,-0.207 0.22,-0.415 0.441,-0.635c0,-0.221 0.207,-0.428 0.415,-0.649c0,-0.22 0.22,-0.428 0.22,-0.635c0.221,-0.221 0.221,-0.428 0.428,-0.636l0.208,-0.22c0.22,-0.221 0.428,-0.221 0.856,-0.428c0.22,-0.221 0.428,-0.428 0.428,-0.636c0.22,-0.22 0.428,-0.22 0.635,-0.428l0.428,-0.428l0.441,-0.428l0.208,-0.207c0.428,-0.221 0.635,-0.441 0.856,-0.649c0.22,-0.207 0.428,-0.207 0.635,-0.428c0.221,-0.207 0.428,-0.415 0.856,-0.635l0.428,-0.428c0.221,-0.221 0.415,-0.221 0.649,-0.441l0.207,0l0,-0.208c0.208,-0.233 0.636,-0.233 0.856,-0.428c0.221,0 0.428,-0.22 0.636,-0.428c0.22,0 0.441,-0.22 0.856,-0.22c0.22,-0.208 0.428,-0.208 0.648,-0.208c0.208,-0.207 0.428,-0.207 0.856,-0.207l0,-0.221l0.221,0c0.22,0 0.635,-0.207 0.843,-0.207c0.207,0 0.428,-0.221 0.856,-0.221c0.22,-0.22 0.428,-0.22 0.843,-0.428c0,0 0.22,0 0.428,-0.207c0.428,0 0.648,0 0.856,-0.221l0.22,0c0.428,0 0.636,-0.22 1.064,-0.22l0.856,0c0.428,-0.208 0.648,-0.208 1.076,-0.208l117.052,0l0,48.066l-86.936,0l0,37.586l77.313,0l0,48.494l-77.313,0l0,36.951l86.936,0l0,48.079l-0.013,0Zm72.203,-219.163l75.834,135.845l0,-135.845l52.541,0l0,219.163l-53.617,0l-78.182,-137.142l0,137.142l-52.32,0l0,-219.163l55.744,0Zm-415.668,0.208l55.316,0l41.659,136.286l2.335,6.614l2.788,-6.614l39.726,-136.494l58.52,0l-68.13,219.163l-67.287,0l-64.927,-218.955Zm-488.947,178.788l35.667,-27.976c0.48,0.53 0.91,1.103 1.284,1.712c0.856,0.856 1.491,1.92 2.14,2.776c1.063,1.504 2.14,2.775 3.424,4.267c2.555,2.996 5.33,5.992 8.326,8.547c2.763,2.568 5.759,4.5 9.183,6.199c3.203,1.699 6.835,2.763 10.467,3.411c2.568,0.649 5.136,1.077 7.691,1.077c3.203,0.22 6.199,0.22 9.182,0c1.699,0 3.411,-0.221 4.903,-0.428c1.919,-0.221 3.852,-0.428 5.551,-0.856c2.788,-0.636 5.343,-1.492 7.691,-2.776c1.712,-0.856 3.424,-2.127 4.928,-3.424c1.296,-1.315 2.377,-2.824 3.204,-4.474c0.643,-1.123 1.074,-2.354 1.271,-3.632c0.22,-1.712 0.441,-3.203 0.22,-4.695c0.033,-1.857 -0.409,-3.692 -1.284,-5.331c-0.433,-1.116 -1.085,-2.135 -1.919,-2.996c-1.213,-1.562 -2.656,-2.931 -4.28,-4.059c-2.448,-1.694 -5.108,-3.059 -7.912,-4.06c-6.186,-2.568 -12.373,-4.267 -18.572,-6.199c-10.467,-2.763 -20.934,-5.759 -30.765,-10.246c-7.263,-2.663 -14.045,-6.491 -20.077,-11.336c-5.413,-4.257 -9.916,-9.559 -13.242,-15.59c-5.343,-9.182 -7.899,-20.077 -8.119,-30.764c-0.306,-8.477 0.924,-16.94 3.632,-24.98c1.919,-5.771 4.708,-11.322 8.339,-16.445c4.539,-6.036 10.023,-11.3 16.238,-15.59c6.191,-4.206 12.946,-7.516 20.064,-9.831c9.065,-2.913 18.487,-4.567 28.002,-4.916c6.2,-0.428 12.373,0 18.352,0.649c4.708,0.635 9.183,1.491 13.684,2.775c5.343,1.492 10.674,3.632 15.589,6.2c5.128,2.75 9.99,5.967 14.526,9.611c2.983,2.568 5.772,5.136 8.547,8.119c2.348,2.555 4.695,5.564 7.043,8.326l-33.112,27.354l-1.284,-1.284c-2.167,-2.388 -4.448,-4.669 -6.835,-6.836c-1.906,-1.699 -3.839,-3.424 -5.979,-4.915c-2.3,-1.96 -4.896,-3.545 -7.691,-4.695c-2.806,-1.247 -5.743,-2.178 -8.755,-2.776c-4.487,-1.063 -8.962,-1.491 -13.462,-1.063c-2.14,0 -4.267,0.428 -6.407,1.063c-2.077,0.556 -4.083,1.348 -5.979,2.361c-1.874,0.959 -3.603,2.177 -5.136,3.618c-1.284,1.284 -2.555,2.983 -3.204,4.708c-0.45,0.887 -0.811,1.817 -1.076,2.776c-0.208,1.063 -0.428,2.14 -0.428,3.424c-0.221,1.699 0.428,3.632 1.284,5.344c0.478,1.156 1.125,2.236 1.919,3.203c1.077,1.505 2.568,2.996 4.28,4.06c2.348,1.919 5.123,3.203 7.899,4.28c6.212,2.347 12.606,4.046 18.793,5.758c10.687,2.776 21.361,5.136 31.4,9.403c7.263,2.763 14.098,6.615 20.077,11.53c5.343,4.28 9.818,9.403 13.242,15.149c5.551,9.183 7.899,20.298 8.327,31.192c0.454,8.669 -0.63,17.351 -3.204,25.642c-1.842,6.092 -4.499,11.908 -7.899,17.288c-4.085,6.434 -9.296,12.079 -15.382,16.666c-5.996,4.85 -12.795,8.612 -20.09,11.116c-5.62,2.282 -11.501,3.859 -17.509,4.695c-2.361,0.22 -4.916,0.648 -7.276,0.856c-2.555,0 -4.916,0.22 -7.263,0.22c-6.42,0 -12.814,0 -19.014,-0.635c-5.76,-0.571 -11.47,-1.573 -17.081,-2.996c-6.835,-1.712 -13.67,-3.84 -19.87,-7.043c-6.422,-3.105 -12.445,-6.977 -17.937,-11.53c-6.22,-5.196 -11.682,-11.238 -16.225,-17.95c-0.648,-0.636 -1.076,-1.492 -1.712,-2.127c0.039,-0.493 -0.169,-0.701 -0.389,-0.921Zm1227.78,39.726l0,-218.722l60.244,0l0,80.309l58.961,-80.309l64.498,0l-54.667,75.186l61.943,143.977l-62.164,0l-38.662,-90.788l-29.909,39.947l0,50.4l-60.244,0Z" style="fill:#1a5590;"/><path d="M2042.38,329.934l0,3.009c0,0.415 -0.208,0.856 -0.208,1.284c0,0.428 0,0.843 -0.207,1.063c0,0.428 0,0.843 -0.234,1.077l0,0.428c-0.233,0.428 -0.233,0.843 -0.233,1.284c-0.182,0.428 -0.182,0.856 -0.182,1.284c-0.233,0.207 -0.233,0.635 -0.233,1.063c-0.208,0.441 -0.208,0.649 -0.208,1.077c-0.233,0.22 -0.233,0.635 -0.428,0.856l0,0.207c0,0 0,0.221 -0.233,0.221c0,0.415 -0.208,0.856 -0.428,1.491c0,0.428 -0.208,0.636 -0.208,1.064c-0.233,0.441 -0.428,0.856 -0.635,1.063c0,0.441 -0.234,0.649 -0.234,1.077c-0.233,0.22 -0.428,0.648 -0.635,0.856l0,0.415l-0.662,1.297c-0.207,0.207 -0.402,0.648 -0.635,1.063c-0.208,0.221 -0.402,0.649 -0.856,1.077l-0.636,0.635c-0.143,0.327 -0.361,0.615 -0.635,0.843l-0.234,0.221l0,0.207c-0.225,0.399 -0.514,0.759 -0.856,1.064c-0.207,0.428 -0.402,0.648 -0.609,1.076l-0.856,0.856c-0.234,0.221 -0.428,0.649 -0.662,0.856c-0.207,0.221 -0.635,0.428 -0.83,0.843l-0.207,0l0,0.221c-0.454,0.415 -0.856,0.635 -1.09,1.076c-0.207,0.221 -0.635,0.415 -0.856,0.856c-0.404,0.218 -0.764,0.508 -1.063,0.856c-0.24,0.254 -0.52,0.464 -0.83,0.623c-0.234,0.207 -0.662,0.428 -0.856,0.648l-0.234,0c0,0 0,0.221 -0.207,0.221c-0.208,0.207 -0.636,0.415 -1.064,0.843c-0.207,0.207 -0.661,0.415 -0.856,0.635c-0.428,0.221 -0.661,0.428 -1.063,0.636c-0.208,0.22 -0.662,0.22 -0.857,0.428c-0.402,0.207 -0.635,0.428 -1.063,0.635l-0.208,0l-1.297,0.636c-0.44,0.207 -0.856,0.428 -1.296,0.428c-0.288,0.271 -0.668,0.424 -1.064,0.428c-0.208,0.22 -0.636,0.22 -1.064,0.428c-0.207,0 -0.635,0.22 -1.063,0.22l-0.234,0.221l-0.207,0c-0.428,0.22 -0.856,0.22 -1.064,0.428c-0.451,0.04 -0.887,0.186 -1.271,0.428c-0.454,0 -0.882,0.22 -1.297,0.22c-0.428,0.221 -0.661,0.221 -1.063,0.221c-0.329,0.166 -0.697,0.238 -1.064,0.207c-0.366,-0.03 -0.233,0 -0.233,0.221l-1.505,0c-0.441,0 -0.856,0.22 -1.063,0.22l-7.717,0c-0.402,-0.22 -0.636,-0.22 -1.064,-0.22l-1.297,0c0,-0.221 -0.207,-0.221 -0.207,-0.221c-0.428,0 -0.856,0 -1.297,-0.207c-0.428,0 -0.83,-0.221 -1.271,-0.221c-0.428,-0.22 -0.856,-0.22 -1.064,-0.428c-0.428,-0.207 -0.856,-0.207 -1.063,-0.207c-0.454,-0.221 -0.856,-0.221 -1.064,-0.428l-0.233,0l-0.208,-0.221c-0.458,-0.045 -0.901,-0.191 -1.297,-0.428c-0.394,-0.009 -0.772,-0.161 -1.063,-0.428c-0.428,0 -0.856,-0.22 -1.297,-0.428c-0.208,0 -0.636,-0.22 -0.856,-0.22c-0.377,-0.173 -0.733,-0.386 -1.064,-0.636l-0.207,0l-0.234,0c-0.428,-0.22 -0.856,-0.428 -1.063,-0.635c-0.429,-0.22 -0.861,-0.432 -1.297,-0.636c-0.208,-0.22 -0.636,-0.428 -0.83,-0.648c-0.428,-0.208 -0.636,-0.415 -0.856,-0.636c-0.322,-0.157 -0.612,-0.373 -0.856,-0.635c-0.208,0 -0.208,-0.221 -0.208,-0.221l-0.207,0c-0.428,-0.22 -0.856,-0.648 -1.09,-0.856c-0.428,-0.22 -0.635,-0.635 -1.063,-0.856c-0.208,-0.207 -0.636,-0.415 -0.83,-0.856c-0.234,-0.207 -0.662,-0.415 -0.856,-0.635c-0.208,-0.208 -0.428,-0.649 -0.856,-0.843l0,-0.221l-0.234,0c-0.207,-0.415 -0.635,-0.843 -0.83,-1.063c-0.347,-0.305 -0.637,-0.67 -0.856,-1.077c-0.233,-0.207 -0.635,-0.428 -0.856,-0.856c-0.207,-0.22 -0.207,-0.428 -0.402,-0.856c-0.233,-0.207 -0.454,-0.635 -0.661,-0.856l-0.208,-0.207l0,-0.221c-0.428,-0.207 -0.661,-0.635 -0.856,-1.063c-0.207,-0.221 -0.402,-0.649 -0.635,-0.856c-0.172,-0.377 -0.385,-0.734 -0.636,-1.064c-0.233,-0.441 -0.454,-0.648 -0.454,-1.076c-0.207,-0.221 -0.402,-0.649 -0.609,-0.856l0,-0.195l-0.234,-0.22c-0.233,-0.441 -0.428,-0.649 -0.635,-1.077l-0.662,-1.284c-0.207,-0.207 -0.207,-0.635 -0.402,-1.063c-0.233,-0.221 -0.233,-0.636 -0.428,-1.077c0,-0.207 -0.233,-0.635 -0.233,-1.063c-0.234,0 -0.234,-0.221 -0.234,-0.221l0,-0.207c-0.207,-0.441 -0.207,-0.856 -0.402,-1.077c0,-0.428 -0.233,-0.856 -0.233,-1.284c0,-0.428 -0.208,-0.843 -0.208,-1.271c0,-0.22 -0.233,-0.648 -0.233,-0.856c0,-0.428 0,-0.635 -0.208,-1.063l0,-0.221l0,-0.207c0,-0.428 -0.207,-0.869 -0.207,-1.297c0,-0.428 -0.234,-0.843 -0.234,-1.271l0,-1.297c-0.207,-0.428 -0.207,-0.856 -0.207,-1.077l0,-1.271l0,-0.22l0,-1.271c0,-0.441 0.207,-0.856 0.207,-1.297c0,-0.415 0,-0.856 0.234,-1.284l0,-1.077c0.207,-0.415 0.207,-0.635 0.207,-1.063l0,-0.441c0.208,-0.428 0.208,-0.856 0.208,-1.284c0.233,-0.428 0.233,-0.856 0.233,-1.284c0.151,-0.334 0.222,-0.698 0.208,-1.064c0.233,-0.428 0.233,-0.856 0.428,-1.076c0,-0.428 0.207,-0.856 0.207,-1.064l0,-0.22c0,0 0,-0.221 0.234,-0.221c0,-0.415 0.233,-0.843 0.428,-1.271c0,-0.22 0.233,-0.648 0.428,-1.076c0,-0.428 0.207,-0.636 0.428,-1.064c0.22,-0.239 0.369,-0.536 0.428,-0.856c0.207,-0.428 0.402,-0.636 0.635,-1.064c0,0 0.234,0 0.234,-0.22l0.609,-1.284c0.234,-0.428 0.454,-0.856 0.636,-1.064c0.259,-0.428 0.454,-0.856 0.687,-1.076c0.208,-0.428 0.402,-0.636 0.61,-1.064c0.233,-0.22 0.428,-0.648 0.661,-0.856l0,-0.22l0.208,-0.208c0.207,-0.22 0.428,-0.648 0.661,-1.076c0.402,-0.221 0.636,-0.636 0.83,-0.856c0.208,-0.428 0.428,-0.636 0.662,-0.856c0.207,-0.428 0.428,-0.649 0.635,-0.856c0.315,-0.157 0.597,-0.372 0.83,-0.636c0.234,-0.263 0,-0.207 0.234,-0.207l0,-0.221c0.428,-0.22 0.856,-0.648 1.063,-0.856c0.428,-0.207 0.662,-0.635 0.856,-0.843c0.428,-0.428 0.636,-0.648 1.064,-0.856c0.239,-0.267 0.53,-0.483 0.856,-0.635c0.207,-0.221 0.635,-0.428 0.856,-0.649l0.207,-0.207l0.208,0c0.207,-0.441 0.635,-0.649 1.089,-0.856c0.208,-0.221 0.636,-0.428 0.83,-0.649c0.385,-0.156 0.744,-0.371 1.064,-0.635c0.428,-0.221 0.661,-0.428 1.063,-0.428c0.234,-0.221 0.662,-0.428 0.856,-0.649l0.234,0l0.207,-0.207c0.428,-0.221 0.856,-0.221 1.297,-0.428c0.441,-0.208 0.636,-0.428 1.064,-0.636c0.428,0 0.856,-0.22 1.271,-0.428c0.233,0 0.661,-0.22 0.856,-0.22c0.428,-0.208 0.661,-0.208 1.089,-0.415l0.208,0c0,0 0,-0.221 0.233,-0.221c0.402,-0.22 0.83,-0.22 1.271,-0.428c0.428,-0.207 0.856,-0.207 1.271,-0.428c0.428,0 0.856,-0.207 1.09,-0.207c0.402,0 0.635,-0.221 1.063,-0.221c0.428,0 0.636,0 1.064,-0.207l0.441,0c0.402,0 0.856,-0.221 1.491,-0.221c0.234,0 0.636,-0.22 1.064,-0.22l6.433,0c0.441,0 0.856,0 1.297,0.22l0.83,0c0.34,0.162 0.714,0.238 1.089,0.221l0.441,0c0.401,0.172 0.837,0.243 1.271,0.207c0.399,0.179 0.836,0.254 1.271,0.221c0.428,0.207 0.882,0.207 1.297,0.441c0.428,0 0.636,0.207 1.064,0.207c0.233,0.221 0.635,0.221 0.856,0.428c0.207,0 0.207,0.221 0.207,0.221l0.234,0c0.428,0.207 0.856,0.207 1.491,0.415c0.428,0.22 0.636,0.22 1.064,0.428c0.428,0.207 0.856,0.428 1.297,0.428c0.207,0.207 0.428,0.428 0.83,0.428c0.428,0.22 0.661,0.428 1.089,0.428c0,0.207 0,0.207 0.208,0.207l1.271,0.649c0.454,0.207 0.661,0.428 1.064,0.648c0.233,0.221 0.661,0.415 1.089,0.636c0.233,0.207 0.428,0.428 0.636,0.635c0.385,0.161 0.744,0.38 1.063,0.649c0.428,0.428 0.856,0.622 1.297,1.063c0.428,0.208 0.636,0.428 1.064,0.636c0.233,0.428 0.635,0.648 0.856,0.856c0.428,0.207 0.635,0.635 0.856,0.843c0.207,0.22 0.402,0.428 0.856,0.648l0,0.221c0.207,0 0.207,0.207 0.207,0.207c0.428,0.208 0.636,0.428 1.064,0.843c0.207,0.221 0.428,0.649 0.856,0.869c0.207,0.415 0.428,0.636 0.635,1.077c0.208,0.207 0.402,0.428 0.636,0.635c0.233,0.221 0.428,0.636 0.635,0.856l0,0.208c0,0 0,0.22 0.234,0.22c0.233,0.428 0.635,0.636 0.83,1.077c0.233,0.428 0.661,0.843 0.882,1.284c0.207,0.22 0.402,0.648 0.635,1.063c0.216,0.239 0.356,0.538 0.402,0.856c0.234,0.208 0.428,0.636 0.662,1.077l0,0.22c0.207,0.428 0.402,0.843 0.635,1.284c0.234,0.441 0.428,0.649 0.428,1.077c0.208,0.428 0.428,0.635 0.428,1.076c0.208,0.428 0.208,0.649 0.428,0.856c0,0.428 0.208,0.636 0.208,1.064c0.233,0 0.233,0.22 0.233,0.22l0,0.221c0.208,0.428 0.208,0.856 0.428,1.271c0,0.428 0.208,0.856 0.208,1.297c0,0.428 0.233,0.843 0.233,1.063c0,0.428 0.182,0.649 0.182,1.077c0,0.428 0,0.648 0.233,1.076l0,0.441c0.234,0.428 0.234,0.856 0.428,1.505l0,1.284c0.208,0.22 0.208,0.635 0.208,1.063l0,1.064l0.013,1.012Zm-176.636,207.412l203.794,0l0,-13.891l-203.794,0l0,-92.902l0,-0.22l0,-1.272l0,-1.297l0,-1.063c0.168,-0.328 0.24,-0.697 0.208,-1.064l0,-1.063c0,0 0,-0.221 0.233,-0.221l0,-0.22c0,-0.428 0,-0.856 0.234,-1.284c0,-0.415 0,-0.636 0.181,-1.077c0,-0.415 0,-0.843 0.234,-1.284c0,-0.207 0.207,-0.648 0.207,-0.843c0,-0.428 0.234,-0.648 0.234,-1.076l0.233,-0.208l0,-0.22c0.208,-0.428 0.208,-0.856 0.402,-1.284c0,-0.428 0.234,-0.856 0.428,-1.284c0,-0.428 0.234,-0.636 0.428,-1.077c0,-0.22 0.208,-0.648 0.208,-0.856c0.233,-0.415 0.233,-0.635 0.454,-1.063l0,-0.221l0,-0.22c0.181,-0.208 0.402,-0.636 0.635,-1.064c0.208,-0.441 0.402,-0.856 0.636,-1.076c0,-0.441 0.207,-0.856 0.428,-1.077c0.207,-0.428 0.428,-0.635 0.428,-1.076c0.207,-0.208 0.402,-0.636 0.635,-0.856c0,-0.208 0.208,-0.208 0.208,-0.208l0,-0.22c0.233,-0.221 0.428,-0.636 0.661,-1.077c0.208,-0.22 0.428,-0.635 0.636,-0.856c0.207,-0.428 0.428,-0.635 0.635,-1.063c0.27,-0.244 0.494,-0.534 0.662,-0.856c0.207,-0.221 0.428,-0.428 0.635,-0.856l0.208,0l0,-0.221c0.233,-0.428 0.661,-0.856 0.856,-1.284c0.207,-0.207 0.402,-0.635 0.856,-0.843c0.151,-0.384 0.45,-0.693 0.83,-0.856c0.233,-0.207 0.428,-0.635 0.661,-0.635c0.166,-0.372 0.461,-0.672 0.83,-0.843l0.234,0l0,-0.221c0.336,-0.309 0.616,-0.673 0.83,-1.076c0.233,-0.208 0.661,-0.428 0.856,-0.856c0.233,-0.221 0.636,-0.415 0.856,-0.843c0.208,-0.221 0.661,-0.221 0.856,-0.428c0.208,-0.428 0.636,-0.636 0.856,-0.843l0.208,0c0.207,0 0.207,0 0.207,-0.221c0.417,-0.197 0.781,-0.491 1.064,-0.856c0.233,-0.207 0.661,-0.428 0.856,-0.635c0.454,-0.208 0.661,-0.428 1.089,-0.636c0.208,-0.207 0.428,-0.207 0.636,-0.428c0.428,-0.22 0.635,-0.428 1.063,-0.428l0,-0.207l0.208,0c0.372,-0.367 0.813,-0.658 1.297,-0.856c0.402,-0.221 0.635,-0.428 1.063,-0.636c0.397,-0.008 0.777,-0.166 1.064,-0.441c0.428,-0.207 0.635,-0.207 1.089,-0.428c0.227,-0.221 0.517,-0.366 0.83,-0.415c0,-0.233 0.234,-0.233 0.234,-0.233l0.207,0c0.428,-0.208 0.856,-0.208 1.064,-0.415c0.452,-0.045 0.888,-0.196 1.271,-0.441c0.233,0 0.661,-0.208 1.089,-0.415c0.234,0 0.636,-0.221 1.064,-0.221c0.207,-0.207 0.635,-0.207 1.063,-0.428l0.467,0c0.402,-0.22 0.83,-0.22 1.038,-0.22c0.428,-0.208 0.856,-0.208 1.297,-0.415c0.402,0 0.856,0 1.297,-0.221l0.83,0c0.428,-0.22 0.635,-0.22 1.089,-0.22l0.415,0c0.428,0 0.856,0 1.297,-0.208l1.297,0c0.208,-0.22 0.636,-0.22 1.064,-0.22l176.881,0c0.402,0 0.856,0.22 1.064,0.22l1.063,0c0.334,0.152 0.698,0.223 1.064,0.208l0.441,0c0.444,-0.034 0.889,0.042 1.297,0.22c0.402,0 0.83,0 1.063,0.221c0.428,0 0.856,0.207 1.271,0.207c0.234,0 0.662,0.208 1.064,0.208c0.233,0 0.661,0.22 0.856,0.22l0.441,0c0.393,0.243 0.837,0.389 1.297,0.428c0.382,0.246 0.818,0.393 1.271,0.428c0.428,0.208 0.856,0.208 1.063,0.428c0.428,0.221 0.662,0.221 0.856,0.428c0.428,0 0.856,0.208 1.064,0.208l0.233,0l0.208,0.233c0.428,0.208 0.635,0.208 1.089,0.415c0.402,0.221 0.83,0.428 1.271,0.649c0.321,0.264 0.679,0.479 1.064,0.635c0.207,0 0.635,0.221 0.856,0.428c0.428,0.208 0.635,0.428 1.063,0.649c0.208,0 0.208,0 0.208,0.207c0.454,0 0.856,0.221 1.297,0.649c0.233,0 0.635,0.207 0.83,0.415c0.454,0.22 0.882,0.428 1.089,0.856c0.234,0 0.636,0.207 0.831,0.428c0.453,0.22 0.661,0.428 1.089,0.635l0,0.221l0.208,0c0.428,0.415 0.635,0.635 1.063,0.843c0.233,0.207 0.428,0.648 0.856,0.856c0.233,0.207 0.661,0.635 0.856,0.843l1.492,1.491l0.233,0.221c0.402,0.428 0.636,0.635 0.83,0.843l0.856,0.843c0.208,0.428 0.636,0.648 0.856,1.076l0.61,0.649c0.233,0.428 0.454,0.635 0.661,1.063l0,0.221l0.234,0c0.207,0.428 0.428,0.856 0.83,1.063c0.207,0.428 0.428,0.649 0.635,1.077c0.234,0.207 0.428,0.635 0.662,0.856c0.207,0.428 0.207,0.635 0.428,0.856c0.207,0.22 0.402,0.635 0.635,0.856l0,0.22l0.208,0.208c0.233,0.428 0.428,0.648 0.661,1.076l0.636,1.284c0.207,0.208 0.207,0.649 0.428,1.077c0.207,0.207 0.428,0.648 0.428,0.856c0.207,0.22 0.428,0.648 0.635,0.856l0,0.441c0.234,0.428 0.234,0.856 0.428,1.271c0.208,0.428 0.208,0.648 0.428,1.076c0.208,0.415 0.208,0.843 0.428,1.064c0,0.428 0.208,0.648 0.208,1.063c0.207,0.428 0.207,0.649 0.428,1.077l0,0.22c0,0 0,0.208 0.233,0.208c0,0.428 0.208,0.856 0.208,1.284c0.15,0.338 0.221,0.707 0.207,1.076c0.208,0.428 0.208,0.843 0.428,1.284l0,0.856c0.169,0.333 0.25,0.704 0.234,1.077l0,0.441c0.17,0.405 0.241,0.846 0.207,1.284c0,0.428 0,0.843 0.234,1.284l0,23.916l-201.576,0l0,14.967l201.433,0l0,91.865c0,0.428 0,0.843 -0.234,1.271l0,1.077c0,0.207 0,0.635 -0.207,0.843l0,0.428c0,0.428 0,0.856 -0.233,1.284c0,0.428 0,0.856 -0.234,1.284c0,0.428 -0.207,0.856 -0.207,1.284c0,0.22 -0.208,0.648 -0.208,0.843c-0.208,0.428 -0.208,0.869 -0.208,1.076l-0.233,0.221l0,0.22c-0.233,0.428 -0.233,0.843 -0.428,1.271c-0.195,0.428 -0.207,0.636 -0.428,1.077c-0.207,0.428 -0.207,0.856 -0.428,1.076c0,0.428 -0.207,0.636 -0.207,1.064c-0.208,0.22 -0.208,0.648 -0.428,0.843l0,0.441c-0.165,0.38 -0.379,0.738 -0.636,1.063l-0.661,1.284c-0.208,0.221 -0.208,0.636 -0.403,1.077c-0.233,0.207 -0.428,0.635 -0.661,0.856c-0.207,0.207 -0.207,0.635 -0.428,1.063l-0.207,0l0,0.208c-0.234,0.441 -0.429,0.856 -0.636,1.284c-0.233,0.22 -0.428,0.635 -0.661,1.063c-0.208,0.208 -0.428,0.636 -0.636,0.856c-0.162,0.32 -0.377,0.609 -0.636,0.856c-0.207,0.428 -0.428,0.636 -0.635,0.843c0,0.221 0,0.221 -0.233,0.221l0,0.22l-0.856,0.843c-0.208,0.428 -0.636,0.649 -0.831,1.077c-0.269,0.244 -0.493,0.534 -0.661,0.856l-0.636,0.635l-0.83,0.856l0,0.221l-0.233,0c-0.208,0.441 -0.636,0.635 -0.856,0.856c-0.428,0.22 -0.636,0.635 -1.064,0.856l-0.856,0.856c-0.208,0.211 -0.42,0.418 -0.635,0.622c-0.234,0.221 -0.636,0.428 -0.856,0.649l-0.208,0l0,0.207c-0.472,0.226 -0.909,0.518 -1.297,0.869c-0.402,0.208 -0.635,0.415 -1.063,0.636c-0.208,0.22 -0.662,0.428 -0.856,0.648c-0.313,0.16 -0.595,0.375 -0.83,0.636c-0.428,0.22 -0.636,0.428 -1.09,0.648l-0.207,0l0,0.208c-0.389,0.252 -0.835,0.399 -1.297,0.428c-0.38,0.172 -0.737,0.389 -1.064,0.648c-0.428,0.221 -0.83,0.221 -1.297,0.428c-0.207,0 -0.402,0.221 -0.83,0.428c-0.321,0.049 -0.619,0.193 -0.856,0.416l-0.207,0c0,0 -0.234,0 -0.234,0.22c-0.428,0 -0.856,0.22 -1.271,0.428c-0.233,0.22 -0.661,0.22 -1.063,0.428c-0.234,0.22 -0.662,0.22 -1.09,0.22c-0.428,0.221 -0.635,0.221 -1.063,0.428c-0.208,0 -0.636,0.208 -1.064,0.208l-0.207,0c0,0 0,0.22 -0.234,0.22c-0.402,0 -0.856,0.221 -1.271,0.221c-0.428,0.207 -0.661,0.207 -1.063,0.428c-0.428,0 -0.856,0.207 -1.297,0.207c-0.234,0 -0.636,0.221 -0.856,0.221c-0.428,0 -0.636,0 -1.064,0.207l-0.233,0l-0.208,0c-0.428,0 -0.856,0 -1.297,0.221l-180.513,0c-0.207,0 -0.635,0 -0.83,-0.221l-1.504,0c-0.454,-0.207 -0.856,-0.207 -1.297,-0.207c-0.428,-0.221 -0.856,-0.221 -1.271,-0.428c-0.26,0 -0.662,0 -1.09,-0.221c-0.428,0 -0.635,-0.207 -1.063,-0.207c-0.208,0 -0.662,-0.221 -0.831,-0.221c-0.233,0 -0.233,-0.22 -0.233,-0.22l-0.233,0c-0.522,-0.039 -1.029,-0.185 -1.492,-0.428c-0.402,0 -0.635,-0.22 -1.063,-0.22c-0.428,-0.221 -0.856,-0.221 -1.064,-0.416c-0.428,0 -0.636,-0.22 -1.064,-0.22c-0.242,-0.216 -0.537,-0.364 -0.856,-0.428c0,-0.22 -0.207,-0.22 -0.207,-0.22l-0.233,0c-0.429,-0.22 -0.861,-0.432 -1.297,-0.636c-0.208,0 -0.636,-0.22 -1.064,-0.428c-0.208,-0.22 -0.636,-0.22 -1.064,-0.428c-0.233,-0.208 -0.635,-0.208 -0.83,-0.428c-0.428,-0.208 -0.661,-0.208 -1.089,-0.428l-0.208,-0.208c-0.428,-0.22 -0.856,-0.648 -1.271,-0.843c-0.233,-0.233 -0.661,-0.428 -0.856,-0.648c-0.413,-0.214 -0.783,-0.505 -1.089,-0.856c-0.208,0 -0.428,-0.208 -0.636,-0.428c-0.207,-0.208 -0.635,-0.428 -0.856,-0.649c0,0 0,-0.207 -0.207,-0.207l-0.208,0c-0.233,-0.221 -0.661,-0.649 -1.063,-0.843c-0.454,-0.221 -0.662,-0.649 -1.09,-0.856l-0.83,-0.856l-0.661,-0.649c-0.234,-0.207 -0.428,-0.415 -0.636,-0.635l-0.233,-0.221c-0.345,-0.368 -0.699,-0.727 -1.064,-1.076c-0.207,-0.221 -0.635,-0.415 -0.856,-0.843c-0.207,-0.221 -0.609,-0.649 -0.856,-0.856l-0.609,-0.649c-0.171,-0.316 -0.395,-0.601 -0.662,-0.843l0,-0.22c-0.207,0 -0.207,0 -0.207,-0.221c-0.208,-0.207 -0.636,-0.622 -0.856,-1.05c-0.208,-0.221 -0.428,-0.649 -0.636,-0.869c-0.233,-0.428 -0.428,-0.843 -0.635,-1.064c-0.234,-0.428 -0.428,-0.635 -0.428,-0.843c-0.234,-0.441 -0.428,-0.648 -0.662,-1.076l0,-0.208l-0.207,0c-0.234,-0.428 -0.428,-0.856 -0.636,-1.284c-0.233,-0.428 -0.428,-0.843 -0.661,-1.063c-0.208,-0.428 -0.428,-0.856 -0.428,-1.077c-0.208,-0.428 -0.402,-0.648 -0.402,-1.076c-0.234,-0.208 -0.454,-0.636 -0.636,-0.843l0,-0.441c-0.255,-0.384 -0.411,-0.825 -0.454,-1.284c-0.207,-0.208 -0.207,-0.636 -0.402,-1.064c-0.233,-0.428 -0.233,-0.635 -0.428,-1.076c0,-0.208 -0.233,-0.636 -0.428,-0.843c0,-0.428 -0.207,-0.636 -0.207,-1.064l0,-0.22c0,0 -0.234,0 -0.234,-0.221c0,-0.428 -0.233,-0.843 -0.233,-1.284c-0.208,-0.428 -0.208,-0.843 -0.428,-1.284c0,-0.22 0,-0.648 -0.182,-1.063c0,-0.428 0,-0.649 -0.233,-1.077l0,-1.076l0,-0.221c-0.234,0 -0.234,0 -0.234,-0.207l0,-1.064c0,-0.428 -0.207,-0.856 -0.207,-1.284l0,-1.284l0,-1.076l0,-1.064l0,-17.963l0.168,0Z" style="fill:#cc2229;"/><path d="M1235.39,562.559l35.667,-27.988c0.428,0.648 0.856,1.076 1.297,1.712c0.661,1.063 1.491,1.919 2.127,2.775c1.063,1.492 2.153,2.983 3.424,4.267c2.489,3.182 5.282,6.114 8.339,8.755c2.789,2.36 5.772,4.5 9.196,5.992c3.216,1.712 6.809,2.775 10.467,3.631c2.555,0.428 5.123,0.856 7.678,1.077c3.009,0.22 6.212,0.22 9.195,0c1.699,-0.208 3.424,-0.208 4.916,-0.428c1.919,-0.428 3.852,-0.636 5.551,-1.077c2.555,-0.635 5.343,-1.491 7.704,-2.555c1.699,-1.076 3.398,-2.14 4.889,-3.631c1.297,-1.284 2.361,-2.776 3.217,-4.28c0.428,-1.271 0.83,-2.555 1.297,-3.839c0.207,-1.492 0.428,-3.204 0.207,-4.695c0.003,-1.857 -0.432,-3.688 -1.271,-5.344c-0.438,-1.11 -1.09,-2.124 -1.919,-2.983c-1.222,-1.495 -2.665,-2.794 -4.28,-3.852c-2.541,-1.709 -5.259,-3.14 -8.106,-4.267c-6.005,-2.555 -12.179,-4.267 -18.365,-5.979c-10.493,-2.996 -20.947,-5.979 -30.985,-10.259c-7.069,-2.996 -14.111,-6.628 -20.09,-11.543c-5.348,-4.265 -9.778,-9.568 -13.022,-15.59c-5.577,-9.183 -7.925,-19.87 -8.132,-30.764c-0.208,-8.547 0.661,-17.094 3.644,-24.993c1.92,-5.759 4.683,-11.323 8.34,-16.225c4.419,-6.136 9.911,-11.422 16.212,-15.603c5.979,-4.267 13.048,-7.47 20.09,-9.818c14.922,-4.945 30.779,-6.409 46.354,-4.28c4.682,0.428 9.17,1.492 13.657,2.568c5.344,1.492 10.688,3.619 15.603,6.407c5.123,2.568 10.026,5.772 14.319,9.403c3.216,2.568 5.979,5.344 8.56,8.119c2.555,2.776 4.889,5.551 7.016,8.534l-32.878,27.12l-1.297,-1.284c-2.36,-2.347 -4.487,-4.487 -6.809,-6.614c-1.839,-1.884 -3.84,-3.602 -5.979,-5.136c-2.362,-1.88 -4.951,-3.458 -7.704,-4.696c-2.811,-1.246 -5.751,-2.177 -8.768,-2.775c-4.487,-0.856 -8.962,-1.505 -13.449,-1.077c-2.153,0.221 -4.28,0.415 -6.407,1.077c-2.082,0.628 -4.087,1.485 -5.98,2.555c-1.915,0.894 -3.654,2.124 -5.136,3.632c-1.429,1.245 -2.586,2.773 -3.398,4.487c-0.419,0.955 -0.707,1.963 -0.856,2.996c-0.257,1.05 -0.4,2.124 -0.428,3.204c-0.207,1.919 0.428,3.852 1.064,5.564c0.661,1.063 1.297,2.127 1.919,2.983c1.297,1.491 2.789,2.983 4.28,4.28c2.555,1.699 5.318,2.983 8.107,4.046c6.186,2.348 12.386,4.28 18.793,5.772c10.466,2.775 21.153,5.343 31.387,9.403c7.068,2.983 14.111,6.614 20.09,11.543c5.295,4.211 9.782,9.348 13.242,15.162c5.551,9.182 7.898,20.284 8.339,31.179c0.234,8.768 -0.635,17.522 -3.216,25.849c-1.877,6.009 -4.524,11.75 -7.873,17.081c-4.141,6.461 -9.352,12.172 -15.408,16.887c-6.141,4.731 -12.986,8.473 -20.285,11.089c-5.551,2.14 -11.322,3.631 -17.301,4.5c-2.477,0.39 -4.969,0.671 -7.471,0.843c-2.36,0.221 -4.682,0.221 -7.042,0.221c-6.407,0.207 -12.814,0 -19.001,-0.649c-5.78,-0.454 -11.504,-1.457 -17.094,-2.996c-6.897,-1.473 -13.573,-3.84 -19.857,-7.042c-6.5,-2.986 -12.547,-6.872 -17.963,-11.543c-6.213,-5.124 -11.678,-11.092 -16.238,-17.73l-1.699,-2.348c-0.273,-0.194 -0.273,-0.402 -0.48,-0.83Zm-859.104,-179.216l57.248,0l0,175.144l67.482,0l0,44.019l-124.73,0l0,-219.163Zm296.475,464.382l-0.207,0c-0.636,0.221 -1.284,0.221 -1.92,0.221l-3.216,0c-0.415,0 -0.843,0 -1.271,-0.221l-2.14,0c-0.636,0 -1.284,-0.22 -1.699,-0.22c-0.636,0 -1.077,-0.208 -1.712,-0.208c-0.649,0 -1.077,-0.22 -1.699,-0.22c-0.441,0 -0.869,0 -1.297,-0.246c-0.428,0 -1.064,0 -1.505,-0.208l-0.635,0c-0.856,0 -1.492,-0.22 -2.14,-0.22c-0.636,-0.208 -1.284,-0.208 -1.933,-0.415c-0.622,-0.221 -1.271,-0.221 -1.906,-0.428c-0.636,0 -1.077,-0.208 -1.712,-0.416c-0.428,0 -1.064,-0.246 -1.712,-0.44l-0.221,0c-0.207,-0.221 -0.207,-0.221 -0.415,-0.221c-0.648,-0.207 -1.297,-0.415 -1.919,-0.635c-0.649,-0.221 -1.077,-0.441 -1.712,-0.662c-0.68,-0.174 -1.328,-0.454 -1.92,-0.83c-0.428,0 -0.843,-0.22 -1.491,-0.415c-0.428,-0.454 -1.077,-0.636 -1.492,-0.869l-0.207,0c-0.221,-0.22 -0.221,-0.22 -0.441,-0.22c-0.636,-0.416 -1.492,-0.636 -2.127,-1.051c-0.649,-0.441 -1.297,-0.636 -1.92,-1.077c-0.592,-0.43 -1.237,-0.783 -1.919,-1.05c-0.636,-0.428 -1.064,-0.662 -1.699,-1.09c-0.441,-0.415 -1.077,-0.635 -1.505,-1.05c-0.22,0 -0.22,0 -0.428,-0.221l-0.208,-0.233c-0.691,-0.422 -1.334,-0.918 -1.919,-1.479c-0.636,-0.441 -1.077,-0.856 -1.712,-1.297c-0.649,-0.415 -1.064,-0.856 -1.712,-1.491c-0.428,-0.221 -0.856,-0.636 -1.505,-1.051c-0.428,-0.428 -0.843,-0.869 -1.491,-1.297c0,0 -0.221,0 -0.221,-0.22c-0.22,0 -0.22,-0.221 -0.22,-0.221l-1.699,-1.712l-1.712,-1.712c-0.507,-0.491 -1.004,-0.993 -1.492,-1.504c-0.415,-0.415 -0.843,-0.83 -1.076,-1.271c-0.636,-0.428 -0.856,-1.077 -1.284,-1.492c-0.208,0 -0.208,-0.207 -0.208,-0.207c-0.22,0 -0.22,-0.221 -0.22,-0.221c-0.649,-0.869 -1.077,-1.297 -1.492,-1.919c-0.648,-0.662 -1.076,-1.297 -1.504,-1.92c-0.421,-0.645 -0.849,-1.284 -1.284,-1.919c-0.221,-0.441 -0.428,-1.077 -0.856,-1.492c-0.366,-0.525 -0.65,-1.102 -0.843,-1.712c-0.221,-0.22 -0.221,-0.22 -0.221,-0.428c-0.22,0 -0.22,-0.207 -0.22,-0.207c-0.636,-1.09 -1.284,-1.92 -1.712,-2.802c-0.428,-0.843 -0.856,-1.465 -1.284,-2.347l-1.284,-2.555c-0.221,-0.636 -0.428,-1.492 -0.636,-2.127c-0.441,-0.636 -0.648,-1.505 -0.856,-2.14l0,-0.415c-0.207,-0.247 -0.207,-0.441 -0.207,-0.441c-0.446,-1.033 -0.806,-2.1 -1.077,-3.191c-0.207,-0.856 -0.635,-1.712 -0.856,-2.801l-0.635,-2.542c-0.208,-0.844 -0.428,-1.505 -0.649,-2.348c-0.207,-0.869 -0.428,-1.505 -0.428,-2.361c-0.22,-0.233 -0.22,-0.44 -0.22,-0.44l0,-0.416c-0.183,-0.927 -0.395,-1.848 -0.636,-2.762c-0.207,-1.09 -0.207,-1.92 -0.428,-2.802c0,-0.843 -0.207,-1.465 -0.207,-2.555c0,-0.635 -0.221,-1.284 -0.221,-1.906c0,-0.843 0,-1.505 -0.22,-2.348l0,-0.428l0,-0.441c0,-0.83 -0.221,-1.686 -0.221,-2.762c0,-0.843 -0.207,-1.725 -0.207,-2.555l0,-2.581l0,-1.92l0,-2.347l0,-0.415l0,-0.428c0,-1.284 0,-2.581 0.207,-3.619l0,-3.437c0.221,-1.05 0.221,-2.14 0.221,-3.216c0.22,-0.843 0.22,-1.686 0.441,-2.542c0,-1.064 0.207,-1.933 0.207,-2.776l0,-0.636c0,0 0,-0.233 0.221,-0.44l0.635,-3.412l0.636,-3.203c0.207,-1.09 0.648,-2.14 0.856,-3.217c0.22,-0.843 0.428,-1.712 0.843,-2.555c0.22,-0.83 0.635,-1.712 0.869,-2.555c0,-0.207 0.207,-0.441 0.207,-0.661c0,0 0.221,-0.208 0.221,-0.402c0.428,-1.064 0.635,-2.14 1.063,-3.191c0.441,-0.869 0.856,-1.919 1.297,-2.788c0.415,-0.856 0.636,-1.933 1.284,-2.776c0.208,-0.869 0.636,-1.504 1.064,-2.347c0.428,-0.662 0.856,-1.505 1.284,-2.387c0,-0.207 0.22,-0.207 0.22,-0.415c0.208,-0.22 0.208,-0.22 0.208,-0.415c0.635,-1.076 1.063,-1.919 1.712,-2.996c0.428,-0.843 1.076,-1.712 1.699,-2.555c0.441,-0.83 1.076,-1.712 1.712,-2.542c0.428,-0.674 1.063,-1.504 1.504,-2.14c0.623,-0.661 1.064,-1.297 1.699,-2.14c0,0 0.221,-0.233 0.221,-0.441c0.22,0 0.22,-0.22 0.428,-0.22c0.635,-0.83 1.271,-1.712 1.919,-2.348c0.636,-0.635 1.272,-1.504 1.92,-2.127c0.843,-0.635 1.492,-1.297 2.14,-1.919l1.699,-1.713c0.649,-0.415 1.271,-1.063 1.92,-1.504l0.428,-0.415l0.22,-0.208c0.843,-0.648 1.712,-1.504 2.555,-1.932c0.698,-0.684 1.494,-1.261 2.361,-1.712c0.856,-0.636 1.491,-1.051 2.347,-1.492c0.738,-0.38 1.453,-0.804 2.14,-1.271c0.856,-0.428 1.492,-0.869 2.348,-1.297c0,0 0.22,-0.207 0.428,-0.207l0.22,0c0.487,-0.475 1.071,-0.838 1.712,-1.064c0.649,-0.233 1.064,-0.661 1.712,-0.856c0.604,-0.199 1.176,-0.482 1.699,-0.843c0.428,-0.22 1.077,-0.441 1.505,-0.661c0.635,-0.221 1.063,-0.415 1.712,-0.636l0.22,-0.22l0.208,0c0.635,-0.208 1.284,-0.415 1.919,-0.662l1.92,-0.635c0.635,-0.208 1.284,-0.415 1.712,-0.623c0.635,0 1.076,-0.22 1.491,-0.415c0.636,0 1.077,-0.22 1.712,-0.22c0,0 0.208,0 0.208,-0.247l0.207,0c0.636,-0.207 1.297,-0.207 1.92,-0.415c0.648,0 1.297,-0.22 1.932,-0.22c0.636,-0.221 1.284,-0.221 1.712,-0.415c0.636,0 1.064,-0.221 1.492,-0.221c0.648,-0.207 1.076,-0.207 1.712,-0.441l0.441,0c0.635,0 1.491,-0.22 2.14,-0.22l14.513,0c0.649,0 1.077,0.22 1.712,0.22c0,0.026 0,0 0.221,0l0.207,0c0.696,0.192 1.418,0.276 2.14,0.247c0.636,0.207 1.284,0.207 1.907,0.415c0.648,0.207 1.284,0.207 1.919,0.415c0.428,0 0.856,0.22 1.492,0.22c0.467,0.241 0.979,0.383 1.504,0.415l0.415,0c0,0.247 0.221,0.247 0.221,0.247c0.635,0 1.284,0.22 2.14,0.415c0.415,0.22 1.063,0.22 1.699,0.415l1.919,0.635c0.454,0.264 0.967,0.407 1.492,0.415c0.428,0.247 1.076,0.454 1.712,0.662l0.207,0c0.208,0.22 0.208,0.22 0.428,0.22c0.441,0.221 1.077,0.636 1.725,0.843c0.636,0.234 1.284,0.662 1.712,0.856c0.636,0.221 1.284,0.428 1.699,0.843c0.428,0.221 1.077,0.441 1.492,0.662c0.415,0.22 1.063,0.415 1.504,0.843l0.208,0c0.207,0 0.428,0.207 0.428,0.207c0.843,0.636 1.712,1.077 2.568,1.712c0.843,0.416 1.699,0.844 2.568,1.505c0.843,0.415 1.478,0.83 2.347,1.466c0.636,0.453 1.284,0.869 1.92,1.297c0.648,0.635 1.297,1.076 1.919,1.725c0.208,0 0.208,0.207 0.428,0.207c0,0.221 0.221,0.221 0.428,0.415c0.649,0.662 1.505,1.297 2.14,1.92c0.856,0.661 1.492,1.297 2.141,1.919l2.14,2.166c0.428,0.623 1.076,1.051 1.491,1.673c0.649,0.662 1.064,1.297 1.712,1.92l0.208,0.22c0.233,0.221 0.233,0.441 0.233,0.441c0.843,0.843 1.492,1.686 2.14,2.776c0.636,0.83 1.284,1.504 1.92,2.347c0.635,0.869 1.284,1.712 1.712,2.555c0.635,0.856 1.063,1.492 1.491,2.374c0.415,0.635 0.856,1.491 1.284,2.347l0.428,0.415c0,0.221 0,0.221 0.208,0.415c0.441,1.09 1.076,1.92 1.491,3.009c0.428,0.83 0.856,1.92 1.297,2.763c0.428,0.856 0.843,1.919 1.284,2.788c0.415,0.843 0.649,1.479 0.843,2.361c0.428,0.83 0.649,1.712 1.064,2.555l0,0.402c0.22,0.22 0.22,0.454 0.22,0.661c0.441,1.064 0.856,2.14 1.077,3.191c0.207,1.076 0.635,2.127 0.843,3.216l0.635,3.217l0.649,2.542c0.25,0.905 0.393,1.837 0.428,2.776c0.125,0.114 0.204,0.271 0.22,0.441l0,0.635c0.221,1.051 0.428,2.348 0.428,3.437c0.208,1.038 0.415,2.127 0.415,3.178c0.221,1.076 0.221,2.14 0.428,3.216l0,2.763c0.221,0.869 0.221,1.919 0.221,2.996l0,6.186c-0.221,0.843 -0.221,1.712 -0.221,2.555l0,2.14c0,0.649 -0.207,1.492 -0.207,2.127l0,0.869c-0.221,1.051 -0.221,1.907 -0.428,2.763c0,0.856 -0.208,1.712 -0.208,2.581c-0.25,0.826 -0.394,1.68 -0.428,2.542c-0.25,0.687 -0.395,1.409 -0.428,2.14c-0.22,0.83 -0.441,1.504 -0.648,2.348l0,0.856c-0.221,0.843 -0.428,1.919 -0.636,2.983c-0.239,0.914 -0.451,1.835 -0.635,2.762c-0.241,0.923 -0.453,1.853 -0.636,2.789c-0.207,0.648 -0.428,1.504 -0.648,2.14c-0.221,0.843 -0.428,1.712 -0.843,2.555l0,0.441c-0.221,0 -0.221,0.22 -0.221,0.415c-0.467,0.906 -0.896,1.832 -1.284,2.775c-0.22,0.856 -0.648,1.712 -1.076,2.581c-0.475,0.756 -0.904,1.54 -1.284,2.348c-0.221,0.622 -0.636,1.258 -1.064,2.127c-0.484,0.681 -0.917,1.396 -1.297,2.14l-0.207,0.207c-0.221,0.221 -0.221,0.221 -0.221,0.428c-0.441,0.623 -0.856,1.492 -1.284,2.127c-0.271,0.683 -0.628,1.328 -1.063,1.92c-0.441,0.661 -0.856,1.076 -1.284,1.712c-0.428,0.635 -0.856,1.076 -1.077,1.491c-0.428,0.649 -0.843,1.064 -1.284,1.725l-0.22,0.221l-0.221,0.207c-0.635,0.636 -1.063,1.297 -1.699,1.725c-0.441,0.623 -0.856,1.038 -1.491,1.699c-0.441,0.428 -0.869,1.064 -1.505,1.479c-0.418,0.442 -0.846,0.874 -1.284,1.297c-0.384,0.598 -0.893,1.107 -1.491,1.491c-0.599,0.385 0,0.221 -0.221,0.221c0,0.22 -0.207,0.22 -0.207,0.22c-0.649,0.636 -1.064,1.077 -1.712,1.492c-0.636,0.635 -1.284,1.063 -1.7,1.479c-0.635,0.44 -1.284,0.856 -1.919,1.491c-0.441,0.221 -0.856,0.661 -1.297,1.089c-0.636,0.416 -1.064,0.831 -1.712,1.051c0,0.234 -0.208,0.234 -0.208,0.234c0,0.22 -0.207,0.22 -0.207,0.22c-0.649,0.415 -1.297,0.83 -1.92,1.271l-1.919,1.297c-0.687,0.268 -1.333,0.63 -1.92,1.076c-0.415,0.195 -1.063,0.416 -1.491,0.844c-0.636,0.207 -1.077,0.622 -1.712,0.83c-0.221,0 -0.221,0 -0.428,0.22l-0.208,0c-0.648,0.415 -1.491,0.662 -2.14,0.869c-0.596,0.368 -1.243,0.648 -1.919,0.83c-0.428,0.247 -1.064,0.415 -1.699,0.636c-0.461,0.251 -0.969,0.401 -1.492,0.441c-0.635,0.22 -1.076,0.428 -1.712,0.635c-0.22,0 -0.22,0 -0.428,0.221l-0.207,0c-0.649,0.207 -1.505,0.441 -2.14,0.661c-0.649,0.208 -1.297,0.208 -1.92,0.415c-0.648,0.221 -1.284,0.221 -1.919,0.428c-0.428,0 -1.077,0.208 -1.505,0.208c-0.635,0.22 -1.284,0.22 -1.699,0.22l-0.428,0l-0.22,0c-0.428,0.208 -1.077,0.208 -1.492,0.208c-0.428,0.246 -1.076,0.246 -1.491,0.246c-0.428,0.221 -1.064,0.221 -1.492,0.221c-0.428,0.207 -0.856,0.207 -1.284,0.207c-0.428,0.221 -0.856,0.221 -1.284,0.221l-0.22,0l-7.056,0l-0.221,0.025Zm-0.843,-33.111l0.221,0c0.635,0 1.063,0 1.491,-0.221l1.492,0c0.441,0 0.856,-0.22 1.284,-0.22c0.428,0 0.856,0 1.284,-0.208c0.428,0 0.856,0 1.284,-0.246l0.208,0c0.441,-0.182 0.856,-0.182 1.504,-0.415c0.428,-0.221 0.856,-0.221 1.284,-0.415c0.389,-0.24 0.829,-0.387 1.284,-0.428c0.23,-0.224 0.525,-0.37 0.843,-0.415c0.38,-0.178 0.737,-0.4 1.064,-0.662l0.22,0c0.221,0 0.221,-0.22 0.221,-0.22c0.635,-0.208 1.271,-0.636 1.699,-0.83c0.635,-0.221 1.063,-0.662 1.491,-0.869c0.636,-0.221 1.077,-0.636 1.492,-0.843c0.428,-0.208 0.648,-0.649 1.063,-0.83c0.428,-0.247 0.856,-0.454 1.284,-0.869c0,0 0.221,0 0.221,-0.221c0,0 0.207,0 0.207,-0.207c0.428,-0.415 1.077,-0.856 1.284,-1.297c0.428,-0.415 0.856,-0.83 1.271,-1.271c0.441,-0.441 0.649,-0.856 1.077,-1.297c0.22,-0.415 0.428,-0.83 0.843,-1.297c0.22,-0.399 0.51,-0.755 0.856,-1.051l0,-0.207c0,-0.221 0.22,-0.221 0.22,-0.221c0.428,-0.661 0.636,-1.297 1.064,-1.712c0.357,-0.532 0.644,-1.107 0.856,-1.712c0.405,-0.421 0.695,-0.939 0.843,-1.504c0.428,-0.415 0.428,-0.831 0.648,-1.297c0.208,-0.415 0.415,-1.051 0.636,-1.466c0,-0.22 0,-0.22 0.22,-0.454l0,-0.22c0.428,-0.402 0.636,-1.038 0.856,-1.712c0.208,-0.415 0.415,-1.051 0.636,-1.466c0.22,-0.661 0.22,-1.297 0.428,-1.712c0.22,-0.428 0.22,-0.869 0.428,-1.505c0,-0.415 0.207,-0.843 0.207,-1.504c0,0 0,-0.208 0.208,-0.208l0,-0.415c0.22,-0.635 0.428,-1.297 0.648,-2.14c0,-0.661 0.221,-1.297 0.428,-1.919c0,-0.856 0.208,-1.492 0.208,-2.127c0.207,-0.662 0.207,-1.297 0.428,-1.712c0,-0.662 0.22,-1.297 0.22,-1.92l0,-0.415c0.208,0 0.208,-0.22 0.208,-0.22c0,-0.869 0,-1.712 0.207,-2.581c-0.024,-0.716 0.05,-1.432 0.221,-2.127l0,-2.14c0.22,-0.415 0.22,-1.051 0.22,-1.492l0,-1.919l0,-0.415l0,-0.428c0,-0.83 0.208,-1.712 0.208,-2.789l0,-2.347l0,-2.555l0,-1.712c-0.208,-0.843 -0.208,-1.505 -0.208,-2.14l0,-0.415l0,-0.415c-0.22,-0.869 -0.22,-1.712 -0.441,-2.802c0,-0.83 -0.207,-1.712 -0.207,-2.347c-0.208,-0.831 -0.208,-1.712 -0.428,-2.348c-0.244,-0.608 -0.389,-1.252 -0.428,-1.907c-0.208,-0.869 -0.428,-1.504 -0.636,-2.14l0,-0.428l0,-0.233c-0.19,-0.721 -0.407,-1.435 -0.648,-2.14c-0.208,-0.636 -0.208,-1.271 -0.415,-1.92c-0.221,-0.622 -0.649,-1.271 -0.649,-1.919c-0.22,-0.415 -0.428,-1.051 -0.635,-1.466c-0.208,-0.441 -0.428,-1.076 -0.636,-1.491c-0.207,-0.221 -0.207,-0.221 -0.207,-0.428c0,0 0,-0.208 -0.221,-0.208c-0.22,-0.661 -0.441,-1.504 -0.856,-2.166c-0.234,-0.632 -0.601,-1.207 -1.076,-1.686c-0.225,-0.645 -0.593,-1.23 -1.077,-1.712c-0.207,-0.415 -0.415,-0.869 -0.843,-1.297c-0.428,-0.635 -0.648,-1.05 -1.076,-1.504c0,-0.208 0,-0.208 -0.221,-0.208l0,-0.207c-0.428,-0.649 -0.843,-1.064 -1.284,-1.518c-0.22,-0.415 -0.635,-0.622 -1.063,-1.037c-0.428,-0.428 -0.636,-0.869 -1.077,-1.09c-0.428,-0.415 -0.648,-0.635 -1.076,-0.83c-0.238,-0.461 -0.609,-0.84 -1.064,-1.089c-0.455,-0.249 0,-0.208 -0.207,-0.208l0,-0.22c-0.428,-0.415 -1.077,-0.636 -1.505,-1.051c-0.415,-0.246 -0.856,-0.454 -1.284,-0.661c-0.428,-0.428 -0.856,-0.636 -1.284,-0.843c-0.428,-0.208 -0.856,-0.415 -1.284,-0.415l-1.271,-0.662l-0.22,0l-0.221,-0.22l-1.271,-0.636c-0.428,-0.207 -0.856,-0.207 -1.284,-0.441c-0.428,-0.207 -0.843,-0.415 -1.284,-0.415c-0.294,-0.268 -0.678,-0.416 -1.076,-0.415c-0.208,-0.22 -0.636,-0.22 -1.077,-0.428l-0.428,0c-0.428,0 -1.063,-0.207 -1.504,-0.207c-0.428,-0.221 -0.843,-0.221 -1.284,-0.221c-0.428,0 -0.843,-0.22 -1.284,-0.22l-2.348,0l-0.22,0l-3.009,0c-0.415,0.22 -1.051,0.22 -1.492,0.22c-0.207,0 -0.635,0.221 -1.063,0.221c-0.428,0 -0.856,0.207 -1.284,0.207l-0.428,0c-0.464,0.242 -0.971,0.387 -1.492,0.428c-0.428,0.208 -0.856,0.415 -1.284,0.415c-0.428,0.221 -0.856,0.415 -1.284,0.662c-0.396,0.007 -0.778,0.154 -1.076,0.415c-0.428,0.22 -0.843,0.22 -1.077,0.415c-0.207,0 -0.207,0 -0.207,0.22l-0.234,0c-0.635,0.221 -1.271,0.441 -1.699,0.662c-0.481,0.247 -0.98,0.459 -1.491,0.635c-0.377,0.356 -0.817,0.637 -1.297,0.83c-0.319,0.274 -0.677,0.497 -1.064,0.662c-0.428,0.428 -0.856,0.635 -1.076,0.843c-0.208,0 -0.208,0.22 -0.208,0.22c-0.22,0 -0.22,0.208 -0.22,0.208c-0.428,0.454 -0.856,0.869 -1.284,1.297c-0.428,0.22 -0.843,0.635 -1.284,1.063c-0.428,0.234 -0.636,0.662 -1.077,1.077l-0.843,0.83c-0.22,0.441 -0.648,0.869 -0.843,1.31l-0.22,0.207l-0.221,0.208c-0.428,0.661 -0.856,1.089 -1.284,1.725c-0.207,0.661 -0.635,1.076 -1.076,1.712c-0.441,0.635 -0.636,1.076 -1.064,1.712c-0.22,0.428 -0.428,0.83 -0.648,1.491c-0.428,0.428 -0.636,1.064 -0.856,1.725c0,0 0,0.208 -0.208,0.208l0,0.428c-0.428,0.635 -0.635,1.297 -0.843,1.906c-0.22,0.636 -0.649,1.31 -0.856,1.712c-0.247,0.612 -0.391,1.261 -0.428,1.92c-0.221,0.635 -0.415,1.063 -0.415,1.725c-0.271,0.521 -0.418,1.098 -0.428,1.686l0,0.233c-0.221,0.221 -0.221,0.221 -0.221,0.428l-0.648,2.542c-0.208,0.869 -0.208,1.505 -0.428,2.348c-0.208,0.869 -0.208,1.504 -0.428,2.36c-0.221,0.662 -0.221,1.284 -0.221,2.128c-0.22,0.661 -0.22,1.504 -0.22,2.165l0,0.831c0,0.869 0,1.725 -0.208,2.555l0,8.988c0.208,0.22 0.208,0.22 0.208,0.428l0,4.708c0.22,0.843 0.22,1.478 0.22,2.127c0,0.648 0,1.271 0.221,1.919l0,1.92l0.22,0.22l0,0.415c0.208,0.843 0.208,1.492 0.428,2.348c0,0.635 0.208,1.491 0.208,2.127c0.22,0.661 0.441,1.297 0.441,1.919c0.207,0.636 0.207,1.297 0.428,1.725c0.207,0.623 0.207,1.297 0.428,1.712l0,0.415c0.207,0 0.207,0.208 0.207,0.208c0.221,0.661 0.221,1.31 0.428,1.919c0.221,0.662 0.428,1.09 0.649,1.725c0.22,0.636 0.428,1.077 0.635,1.712c0,0.415 0.208,0.83 0.428,1.297l0.649,1.258l0,0.675c0.158,0.623 0.446,1.206 0.843,1.712c0.22,0.635 0.428,1.271 0.636,1.686c0.428,0.441 0.635,1.076 0.856,1.504c0.428,0.415 0.648,0.856 0.856,1.284c0.207,0.415 0.635,0.843 0.843,1.505c0,0 0.22,0 0.22,0.22l0.221,0.208c0.22,0.415 0.648,0.843 1.063,1.504c0.208,0.415 0.649,0.831 1.077,1.271c0.441,0.416 0.635,0.856 1.076,1.297c0.208,0.415 0.649,0.831 0.856,1.051l1.064,1.077c0,0.207 0.22,0.207 0.22,0.207c0,0.221 0.221,0.221 0.221,0.221c0.635,0.415 1.063,0.635 1.491,1.063c0.649,0.441 1.064,0.649 1.492,1.077c0.428,0.207 1.076,0.635 1.491,0.83c0.845,0.453 1.702,0.886 2.568,1.297l0.208,0.22l0.22,0c0.649,0.208 1.077,0.441 1.505,0.662c0.392,0.23 0.83,0.372 1.284,0.415l1.284,0.635c0.428,0 0.635,0.221 1.076,0.221c0.428,0.246 0.843,0.246 1.077,0.415l0.635,0c0.428,0.246 0.856,0.246 1.505,0.246c0.482,0.171 0.994,0.242 1.504,0.208c0.415,0.22 0.843,0.22 1.479,0.22c0.428,0 0.856,0 1.076,0.22l1.284,0l0.298,-0.077Zm-260.809,31.179l0,-174.301l74.551,0c0,0 0,0.221 0.22,0.221c0.415,0 0.843,0 1.492,0.207l1.491,0c0.428,0 1.077,0.247 1.505,0.247l1.063,0c0.428,0 0.856,0.22 1.297,0.22l2.348,0c0.428,0 0.856,0.208 1.284,0.208c0.635,0 1.063,0 1.491,0.22c0.428,0 0.843,0.208 1.297,0.208c0.415,0.22 0.843,0.22 1.271,0.415l0.428,0c0.649,0 1.077,0.22 1.505,0.22c0.428,0.221 0.856,0.221 1.284,0.415c0.428,0.247 0.843,0.247 1.284,0.454c0.428,0.208 0.856,0.208 1.284,0.415c0.289,0.268 0.669,0.417 1.063,0.415l0.208,0.221l0.22,0c0.389,0.244 0.828,0.394 1.284,0.441l1.284,0.635c0.428,0 0.843,0.221 1.271,0.428c0.428,0.208 0.856,0.415 1.077,0.636c0.428,0 0.843,0.441 1.063,0.661l0.208,0l0.22,0.208c0.649,0.22 1.284,0.635 1.712,0.843c0.636,0.415 1.077,0.648 1.712,1.076c0.542,0.282 1.044,0.636 1.492,1.051c0.428,0.22 0.843,0.661 1.284,0.869c0.635,0.415 1.076,0.83 1.491,1.05c0.221,0 0.221,0.221 0.221,0.221c0.207,0 0.207,0.207 0.207,0.207c0.636,0.454 1.077,0.869 1.505,1.297c0.428,0.428 1.063,0.869 1.491,1.297c0.428,0.636 0.843,1.051 1.284,1.492c0.208,0.428 0.636,0.843 0.843,1.271c0.441,0.428 0.856,0.869 1.284,1.31l0,0.207l0.221,0.208c0.428,0.635 0.869,1.089 1.297,1.725c0.463,0.409 0.827,0.92 1.063,1.491c0.428,0.428 0.636,1.051 1.077,1.479l0.635,1.297c0.221,0.635 0.441,1.076 0.649,1.712c0,0 0.22,0 0.22,0.22l0,0.208c0.428,0.661 0.636,1.297 0.856,1.919l0.636,1.92c0.428,0.635 0.636,1.297 0.636,1.919c0.239,0.464 0.38,0.972 0.415,1.492c0.22,0.636 0.441,1.271 0.441,1.92c0.22,0 0.22,0.22 0.22,0.22l0,0.415c0.208,0.662 0.208,1.297 0.415,1.92c0.221,0.661 0.221,1.297 0.441,1.919c0,0.662 0.208,1.297 0.208,1.92c0,0.622 0.207,1.076 0.207,1.712l0,2.347c0.192,0.767 0.266,1.559 0.221,2.348c0,0.661 0.22,1.297 0.22,1.919l0,2.127c-0.22,0.441 -0.22,1.077 -0.22,1.505c0,0.661 0,1.297 -0.221,1.919l0,2.789c0,0.635 0,1.271 -0.207,1.919l0,1.92c0,0.635 -0.208,1.05 -0.208,1.686c0,0.441 0,1.076 -0.22,1.712l0,0.661c0,0.636 -0.221,1.271 -0.428,1.92c0,0.635 -0.208,1.258 -0.208,1.712l-0.648,1.893c-0.008,0.525 -0.151,1.039 -0.416,1.492l-0.635,1.92l-0.208,0.22l0,0.441c-0.428,0.843 -0.648,1.479 -1.076,2.348c-0.208,0.635 -0.636,1.478 -0.856,2.14c-0.385,0.734 -0.813,1.444 -1.284,2.127c-0.226,0.641 -0.589,1.225 -1.064,1.712c-0.276,0.68 -0.633,1.324 -1.063,1.919l-0.221,0.221c0,0.22 -0.22,0.22 -0.22,0.415c-0.649,0.635 -1.064,1.297 -1.699,1.919c-0.428,0.636 -0.856,1.297 -1.505,1.92c-0.415,0.415 -1.063,1.076 -1.699,1.491c-0.426,0.43 -0.858,0.854 -1.297,1.271c-0.635,0.454 -1.284,0.869 -1.699,1.297c-0.22,0 -0.22,0 -0.428,0.221l-0.22,0.22c-0.636,0.649 -1.271,1.064 -1.92,1.699l-1.919,1.31c-0.649,0.415 -1.284,0.83 -1.92,1.051c-0.518,0.379 -1.097,0.669 -1.712,0.856c-0.635,0.22 -1.284,0.428 -1.919,0.843l-0.221,0c-0.207,0 -0.207,0.22 -0.428,0.22c-0.817,0.179 -1.607,0.467 -2.347,0.856c-0.636,0.221 -1.492,0.415 -2.14,0.636c-0.649,0.22 -1.505,0.415 -2.14,0.635c-0.649,0.247 -1.297,0.441 -1.933,0.662c-0.635,0 -1.284,0.207 -2.14,0.428l-0.207,0c-0.221,0.207 -0.221,0.207 -0.428,0.207c-0.649,0 -1.284,0.208 -1.92,0.415c-0.635,0 -1.063,0.221 -1.712,0.221c-0.635,0.233 -1.271,0.233 -1.919,0.233c-0.428,0.221 -0.856,0.221 -1.271,0.221c-0.649,0.22 -1.077,0.22 -1.725,0.22l-0.208,0c-0.207,0 -0.207,0.208 -0.428,0.208c-0.635,0 -1.284,0 -2.14,0.22c-0.635,0 -1.284,0 -1.919,0.221c-0.415,0 -1.064,0 -1.712,0.207l-1.492,0c-0.428,0.221 -1.076,0.221 -1.504,0.221l-5.137,0l-5.123,0.415l-17.729,0l0,65.601l-42.334,0l0,-0.078Zm42.282,-101.255l21.374,0c0.221,0 0.636,-0.207 0.843,-0.207l0.856,0c0.221,0 0.649,0 0.843,-0.221l3.204,0c0.441,0 0.648,-0.22 0.856,-0.22c0.22,0 0.648,0 0.856,-0.208l0.22,0c0.428,0 0.856,0 1.064,-0.22c0.428,0 0.648,-0.221 0.843,-0.221c0.22,0 0.648,-0.207 0.856,-0.207c0.207,0 0.428,-0.221 0.648,-0.221c0.208,-0.246 0.415,-0.246 0.636,-0.454l0.22,0c0.221,-0.207 0.649,-0.207 0.856,-0.415c0.208,0 0.428,-0.207 0.856,-0.207c0.208,-0.221 0.415,-0.415 0.636,-0.415c0.207,-0.221 0.428,-0.428 0.635,-0.428l0.649,-0.662l0.207,0c0.208,-0.22 0.428,-0.415 0.428,-0.415c0.221,-0.207 0.428,-0.207 0.428,-0.415c0.221,-0.22 0.428,-0.22 0.636,-0.454c0,0 0.22,-0.207 0.441,-0.207c0,-0.221 0.22,-0.428 0.415,-0.636l0.22,0c0,-0.22 0.221,-0.428 0.428,-0.635c0,-0.221 0.208,-0.221 0.208,-0.428c0.207,-0.234 0.207,-0.441 0.428,-0.649c0,0 0,-0.22 0.22,-0.22c0,-0.221 0.208,-0.416 0.208,-0.416l0.22,0l0,-0.22c0,-0.22 0.221,-0.415 0.221,-0.661c0,-0.221 0.22,-0.221 0.22,-0.415c0,-0.221 0,-0.428 0.221,-0.636c0,-0.22 0,-0.22 0.207,-0.428c0,-0.208 0,-0.441 0.221,-0.441l0,-0.22c0,-0.208 0,-0.415 0.207,-0.415l0,-0.416c0,-0.22 0,-0.428 0.221,-0.428l0,-0.402c0,-0.259 0,-0.454 0.207,-0.674l0,-0.208l0,-0.843l0,-0.856c0.221,-0.22 0.221,-0.635 0.221,-0.843l0,-0.635c0.22,-0.441 0.22,-0.662 0.22,-0.869l0,-0.208l0,-0.869l0,-0.83c-0.22,-0.22 -0.22,-0.428 -0.22,-0.635l0,-0.869c-0.221,-0.208 -0.221,-0.415 -0.221,-0.83l0,-0.221c0,-0.246 0,-0.661 -0.207,-0.869l0,-0.635c0,-0.415 -0.221,-0.636 -0.221,-0.83c-0.207,-0.247 -0.207,-0.454 -0.207,-0.662c-0.221,-0.207 -0.221,-0.428 -0.428,-0.635l0,-0.221c-0.221,-0.22 -0.221,-0.661 -0.428,-0.869c0,-0.207 -0.221,-0.415 -0.221,-0.622c-0.22,-0.415 -0.22,-0.636 -0.428,-0.843c0,0 -0.22,-0.234 -0.22,-0.441c-0.221,-0.221 -0.221,-0.415 -0.428,-0.636l-0.208,-0.22c-0.22,0 -0.428,-0.208 -0.428,-0.415c-0.218,-0.214 -0.43,-0.435 -0.635,-0.662c-0.221,-0.22 -0.441,-0.22 -0.649,-0.415c0,-0.22 -0.22,-0.428 -0.428,-0.428c-0.22,-0.207 -0.22,-0.415 -0.428,-0.635l-0.22,0c-0.208,-0.208 -0.208,-0.441 -0.415,-0.441c-0.234,-0.221 -0.441,-0.415 -0.649,-0.415c-0.22,-0.221 -0.428,-0.428 -0.635,-0.428c0,-0.208 -0.221,-0.208 -0.428,-0.208c-0.208,-0.22 -0.428,-0.22 -0.649,-0.22c0,-0.208 0,-0.208 -0.22,-0.208c-0.208,0 -0.415,-0.22 -0.636,-0.428c-0.428,0 -0.635,-0.233 -0.856,-0.233c-0.22,0 -0.415,-0.221 -0.635,-0.221c-0.221,0 -0.428,-0.22 -0.649,-0.22c-0.22,0 -0.428,-0.208 -0.648,-0.208l-0.208,0c-0.428,0 -0.648,-0.22 -1.076,-0.22c-0.221,0 -0.428,0 -0.636,-0.221l-2.14,0l-0.22,0c-0.208,0 -0.428,0 -0.636,-0.207l-1.699,0l-24.357,0l0,36.769l0.013,0Zm1494.16,101.255l53.396,-174.301l69.025,0l53.397,174.301l-47.846,0l-11.75,-34.396l-57.249,0l-11.322,34.396l-47.651,0Zm87.585,-129.853l-17.302,60.867l34.603,0l-17.301,-60.867Zm-556.222,130.073l-91.424,0l-2.14,0c-0.233,-0.22 -0.428,-0.22 -0.428,-0.22l-0.869,0c-0.207,0 -0.428,-0.221 -0.635,-0.221l-0.428,0c-0.234,-0.207 -0.428,-0.207 -0.636,-0.207c0,-0.221 -0.233,-0.221 -0.428,-0.221c0,0 -0.233,-0.246 -0.428,-0.246l-0.233,0c0,-0.207 -0.208,-0.207 -0.402,-0.207c-0.234,0 -0.428,-0.221 -0.428,-0.221c-0.208,0 -0.428,-0.207 -0.662,-0.207c-0.207,0 -0.207,-0.221 -0.428,-0.221c-0.207,0 -0.207,-0.22 -0.402,-0.22l-0.233,0l-0.208,-0.221c-0.233,0 -0.428,-0.233 -0.661,-0.233c0,-0.221 -0.208,-0.221 -0.428,-0.389c0,0 -0.208,0 -0.402,-0.247c-0.234,0 -0.234,-0.207 -0.428,-0.207l-0.234,0l0,-0.221c-0.207,0 -0.402,0 -0.402,-0.22c-0.233,-0.208 -0.454,-0.208 -0.661,-0.415c-0.208,0 -0.208,-0.247 -0.428,-0.247c-0.208,-0.181 -0.208,-0.181 -0.402,-0.415c-0.234,0 -0.234,-0.22 -0.428,-0.428c-0.234,-0.207 -0.428,-0.207 -0.662,-0.415c-0.207,-0.207 -0.428,-0.415 -0.635,-0.415c-0.234,-0.22 -0.234,-0.441 -0.428,-0.441c-0.208,-0.194 -0.208,-0.428 -0.402,-0.428c0,-0.207 -0.234,-0.415 -0.428,-0.635l0,-0.208c-0.234,-0.22 -0.234,-0.415 -0.428,-0.635c-0.234,-0.221 -0.234,-0.221 -0.428,-0.441c-0.234,-0.221 -0.234,-0.428 -0.428,-0.649c0,0 0,-0.207 -0.208,-0.415c0,-0.207 0,-0.207 -0.233,-0.415l0,-0.22c-0.234,-0.234 -0.428,-0.441 -0.428,-0.649c-0.208,-0.22 -0.208,-0.428 -0.428,-0.635c0,-0.221 -0.208,-0.221 -0.208,-0.428c-0.233,-0.208 -0.233,-0.441 -0.233,-0.441c-0.208,-0.221 -0.402,-0.415 -0.402,-0.636l-0.234,-0.22l0,-0.636c-0.207,-0.415 -0.207,-0.648 -0.207,-0.856c-0.208,-0.22 -0.208,-0.428 -0.428,-0.635l0,-0.636c-0.234,0 -0.234,-0.22 -0.234,-0.441l0,-0.22l0,-0.844c-0.207,-0.207 -0.207,-0.415 -0.207,-0.635l0,-0.856c0,-0.221 0,-0.221 -0.234,-0.415l0,-133.731l0,-0.636c0.234,-0.246 0.234,-0.441 0.234,-0.661l0,-0.415c0,-0.195 0.207,-0.208 0.207,-0.415l0,-0.428l0,-0.234c0,-0.22 0,-0.428 0.234,-0.635l0,-0.636c0,-0.22 0,-0.428 0.233,-0.635l0,-0.441c0,0 0.208,-0.221 0.208,-0.415l0,-0.221c0.207,-0.22 0.207,-0.22 0.207,-0.428c0,-0.207 0.234,-0.441 0.234,-0.661c0,-0.208 0.207,-0.208 0.207,-0.415c0,-0.208 0.208,-0.221 0.208,-0.415l0.233,-0.221l0,-0.207c0.208,-0.221 0.208,-0.454 0.208,-0.662c0.233,-0.22 0.233,-0.22 0.233,-0.428c0.208,-0.207 0.208,-0.415 0.402,-0.635c0,0 0,-0.208 0.234,-0.208c0,-0.22 0.233,-0.454 0.233,-0.454l0.208,0l0,-0.207c0.207,-0.221 0.207,-0.428 0.428,-0.636c0,-0.22 0.207,-0.22 0.207,-0.428c0.234,-0.207 0.234,-0.415 0.428,-0.635c0,-0.234 0.234,-0.234 0.234,-0.441c0.207,-0.208 0.207,-0.415 0.428,-0.415l0,-0.208l0.207,0c0,-0.22 0.208,-0.22 0.402,-0.428c0.234,-0.207 0.428,-0.207 0.662,-0.415c0,-0.22 0.207,-0.22 0.428,-0.441c0,-0.22 0.207,-0.22 0.207,-0.428c0.234,0 0.428,-0.207 0.428,-0.207l0,-0.221l0.234,0c0.207,-0.22 0.402,-0.22 0.635,-0.415c0.208,-0.22 0.402,-0.22 0.402,-0.428c0.234,-0.233 0.454,-0.233 0.662,-0.441c0.207,0 0.207,-0.22 0.428,-0.415c0.207,0 0.428,-0.22 0.428,-0.22c0.207,0 0.207,0 0.207,-0.221c0.208,0 0.428,-0.207 0.636,-0.415c0.233,0 0.428,-0.246 0.661,-0.246c0.208,-0.208 0.428,-0.208 0.428,-0.208c0.208,-0.22 0.402,-0.22 0.636,-0.22c0.207,0 0.428,-0.221 0.661,-0.221l0.208,0c0.207,-0.207 0.428,-0.207 0.635,-0.207c0.208,-0.221 0.428,-0.221 0.636,-0.221c0.233,-0.207 0.428,-0.207 0.661,-0.207c0.208,-0.221 0.402,-0.221 0.636,-0.221c0,0 0.207,-0.207 0.428,-0.207l0.207,0c0.234,0 0.662,-0.221 0.856,-0.221l1.492,0c0.207,-0.246 0.402,-0.246 0.635,-0.246l92.293,0l0,38.248l-68.779,0l0,29.687l61.075,0l0,38.663l-61.075,0l0,29.273l68.779,0l0,38.39l-0.078,0Zm-432.918,-0.22l0,-174.301l45.291,0l0,174.301l-45.291,0Zm-177.569,-141.617l0,36.743l22.853,0c0.221,0 0.428,0 0.428,-0.233l0.636,0l0,-0.22l2.568,0c0.207,-0.221 0.415,-0.221 0.635,-0.221l1.077,0c0.207,0 0.415,-0.22 0.622,-0.22c0.221,0 0.221,0 0.441,-0.208l0.428,0c0.208,-0.207 0.428,-0.207 0.649,-0.207l0,-0.221l1.271,0c0.22,-0.22 0.428,-0.22 0.648,-0.22c0,0 0.221,0 0.428,-0.247l0.415,0c0,-0.207 0,-0.207 0.221,-0.207c0.22,0 0.428,0 0.648,-0.221c0.221,0 0.221,-0.22 0.428,-0.22c0.208,0 0.415,-0.208 0.636,-0.208c0,-0.22 0.22,-0.22 0.22,-0.428c0.208,0 0.208,-0.207 0.415,-0.207l0,-0.221c0.221,0 0.441,0 0.441,-0.22c0.208,0 0.415,0 0.415,-0.234l0.636,0c0,-0.22 0,-0.22 0.22,-0.22c0.208,-0.208 0.208,-0.208 0.415,-0.208l0,-0.22c0.221,0 0.221,-0.221 0.441,-0.221c0,-0.207 0,-0.207 0.208,-0.415l0.22,-0.22l0.428,-0.441c0,0 0,-0.221 0.208,-0.221l0,-0.207c0.22,0 0.22,-0.221 0.428,-0.428l0.22,-0.208l0.428,-0.428c0,-0.207 0.208,-0.207 0.208,-0.441c0.207,0 0.207,-0.22 0.207,-0.415l0.221,0l0,-0.22c0,0 0.207,-0.208 0.207,-0.415c0.221,0 0.221,-0.221 0.221,-0.428c0,0 0.233,-0.208 0.233,-0.402l0.208,-0.26c0,-0.207 0,-0.207 0.22,-0.415l0,-0.207c0,-0.221 0.221,-0.636 0.221,-0.843c0,-0.208 0.22,-0.441 0.22,-0.856c0,-0.221 0.208,-0.428 0.208,-0.636c0,-0.22 0.22,-0.428 0.22,-0.635c0,-0.221 0,-0.454 0.221,-0.662l0,-0.22l0,-0.843l0,-0.856l0,-0.636l0,-0.635l0,-0.662l0,-0.207l0,-0.221l0,-0.869l0,-0.83l0,-0.843l0,-0.661l0,-0.856c-0.221,-0.415 -0.221,-0.636 -0.221,-0.831c-0.22,-0.246 -0.22,-0.453 -0.428,-0.868c0,-0.208 0,-0.416 -0.22,-0.623c0,-0.221 0,-0.221 -0.221,-0.428c0,-0.233 -0.22,-0.441 -0.22,-0.661l-0.208,0l0,-0.208c0,-0.22 -0.233,-0.22 -0.233,-0.428c0,-0.208 -0.221,-0.415 -0.221,-0.636c0,-0.207 -0.207,-0.441 -0.207,-0.661c-0.221,0 -0.221,-0.208 -0.428,-0.415c0,-0.221 -0.208,-0.221 -0.208,-0.415l0,-0.221l-0.428,-0.415c0,-0.246 -0.22,-0.246 -0.22,-0.454c-0.221,-0.207 -0.428,-0.207 -0.428,-0.415c-0.208,0 -0.208,-0.22 -0.428,-0.22c0,-0.208 -0.208,-0.415 -0.208,-0.415l-0.22,0l0,-0.208c-0.208,0 -0.208,-0.22 -0.428,-0.428l-0.428,-0.441c-0.208,0 -0.208,-0.22 -0.428,-0.22c0,-0.208 -0.221,-0.208 -0.428,-0.415c0,0 -0.221,0 -0.221,-0.221l-0.22,0c-0.208,-0.207 -0.428,-0.207 -0.649,-0.441c-0.207,0 -0.415,-0.207 -0.415,-0.207c-0.22,-0.221 -0.428,-0.221 -0.428,-0.428l-0.415,0c-0.22,-0.208 -0.22,-0.208 -0.428,-0.208c0,0 0,-0.22 -0.22,-0.22c0,0 -0.221,-0.221 -0.649,-0.415c-0.207,0 -0.415,-0.221 -0.415,-0.221c-0.22,0 -0.648,-0.22 -0.856,-0.22l-1.076,0c-0.208,-0.234 -0.415,-0.234 -0.636,-0.234c-0.22,-0.22 -0.428,-0.22 -0.635,-0.22c-0.221,-0.22 -0.428,-0.22 -0.649,-0.415l-0.622,0c-0.234,-0.221 -0.234,-0.221 -0.428,-0.221l-0.221,0c-0.428,0 -0.648,0 -0.856,-0.22l-0.635,0c-0.208,0 -0.428,0 -0.636,-0.208l-1.284,0l-24.137,0l0,0.156Zm0,73.902l0,67.728l-43.15,0l0,-174.301l80.737,0c0.428,0 0.648,0 1.076,0.221l1.92,0c0.207,0.207 0.635,0.207 0.843,0.207l0.441,0c0.428,0 0.648,0.247 1.076,0.247l1.077,0c0.428,0 0.635,0.22 1.076,0.22c0.208,0 0.636,0 0.856,0.208l1.064,0c0,0 0.207,0 0.207,0.22c0.234,0 0.649,0 1.077,0.208c0.3,-0.011 0.598,0.066 0.856,0.22c0.22,0 0.428,0 0.856,0.208c0.207,0 0.428,0 0.635,0.22l1.284,0c0.208,0.221 0.636,0.221 0.843,0.415c0.428,0 0.649,0 1.077,0.247c0.207,0 0.635,0.22 0.843,0.22c0.22,0.208 0.441,0.208 0.648,0.415c0.208,0 0.636,0 0.843,0.221c0,0 0.221,0 0.221,0.207c0.415,0 1.063,0.221 1.478,0.428c0.428,0 0.856,0.234 1.297,0.441c0.428,0 0.843,0.221 1.271,0.415c0.221,0.221 0.649,0.221 0.856,0.428c0.428,0.208 0.636,0.208 1.064,0.415l0.22,0.221l0.234,0c0.428,0.441 1.063,0.661 1.491,0.856c0.428,0.22 0.856,0.428 1.284,0.843c0.208,0.207 0.636,0.415 1.064,0.648c0.22,0.221 0.648,0.428 0.856,0.636c0.314,0.164 0.599,0.378 0.843,0.635l0.22,0.221c0,0 0.221,0 0.221,0.22c0.415,0.208 0.623,0.441 1.076,0.662c0.208,0.207 0.636,0.415 0.856,0.635c0.4,0.213 0.76,0.494 1.064,0.83c0.233,0.281 0.525,0.507 0.856,0.662l1.92,1.919l0.856,0.843c0.207,0.441 0.428,0.649 0.843,0.856c0.22,0.428 0.22,0.636 0.428,0.843c0.22,0.208 0.428,0.636 0.635,0.856l0,0.221c0.221,0 0.221,0 0.221,0.22c0.207,0.221 0.635,0.623 0.856,1.051c0.22,0.207 0.428,0.661 0.843,0.869c0.22,0.415 0.428,0.635 0.635,1.037c0.221,0.26 0.221,0.662 0.441,0.869c0.208,0.428 0.428,0.636 0.636,1.051l0,0.22l0.207,0c0.252,0.484 0.465,0.987 0.636,1.505c0.262,0.329 0.481,0.691 0.648,1.076l0.636,1.271c0,0.208 0.22,0.662 0.22,0.869c0.221,0.415 0.221,0.636 0.428,1.038l0,0.467c0.255,0.325 0.472,0.677 0.649,1.05c0,0.221 0.22,0.636 0.428,1.09c0,0.207 0.207,0.622 0.207,1.05c0.221,0.208 0.221,0.636 0.221,0.856c0.22,0.428 0.22,0.844 0.22,1.064l0.221,0.208l0,0.22c0,0.415 0,0.856 0.22,1.077c0,0.415 0,0.843 0.208,1.076c-0.035,0.435 0.041,0.873 0.22,1.271c0,0.221 0,0.636 0.208,0.869l0,1.051c0,0 0,0.22 0.207,0.22l0,1.297c0.221,0.208 0.221,0.636 0.221,1.051c0,0.22 0,0.661 0.22,1.076l0,0.83c0,0.221 0.221,0.662 0.221,0.869l0,6.965c0,0.454 -0.221,0.661 -0.221,1.089l0,1.077c0,0.22 -0.22,0.415 -0.22,0.843l0,1.297c0,0.207 -0.221,0.622 -0.221,1.05c0,0.208 -0.207,0.623 -0.207,0.869c0,0.402 -0.208,0.623 -0.208,1.051c0,0.207 -0.22,0.415 -0.22,0.622c0,0.454 0,0.662 -0.208,0.869l0,1.518c0,0.207 -0.22,0.635 -0.22,0.83c0,0.22 0,0.428 -0.221,0.843c0,0.233 -0.22,0.441 -0.22,0.661c-0.221,0.208 -0.221,0.415 -0.415,0.831l0,0.22c0,0.22 -0.221,0.661 -0.221,0.869c0,0.415 -0.22,0.623 -0.22,0.83c0,0.428 -0.221,0.661 -0.221,0.869c-0.22,0.22 -0.22,0.415 -0.22,0.636c-0.208,0.415 -0.208,0.622 -0.415,0.83c0,0.246 -0.221,0.246 -0.221,0.246c0,0.415 -0.22,0.636 -0.428,1.051c0,0.428 -0.22,0.635 -0.428,1.089c-0.054,0.317 -0.208,0.608 -0.441,0.83c0,0.208 -0.207,0.415 -0.207,0.843c-0.208,0.208 -0.208,0.662 -0.415,0.856l0,0.221l-0.221,0c-0.207,0.415 -0.415,0.83 -0.635,1.076c-0.208,0.415 -0.208,0.636 -0.428,1.051c-0.221,0.22 -0.428,0.635 -0.636,0.869c-0.164,0.314 -0.379,0.599 -0.635,0.843c-0.208,0.207 -0.428,0.635 -0.649,0.83l0,0.22l-0.22,0c-0.208,0.441 -0.415,0.662 -0.415,1.077c-0.221,0.22 -0.428,0.415 -0.636,0.83c-0.22,0.246 -0.428,0.454 -0.648,0.869l-0.649,0.635c0,0.221 -0.207,0.415 -0.428,0.662c-0.207,0 -0.207,0.22 -0.207,0.22l-0.221,0c-0.151,0.318 -0.368,0.601 -0.635,0.83c-0.441,0.221 -0.649,0.636 -0.856,0.843c-0.237,0.277 -0.529,0.503 -0.856,0.662c-0.221,0.22 -0.221,0.415 -0.428,0.635c-0.392,0.161 -0.701,0.475 -0.856,0.869c-0.221,0 -0.221,0 -0.221,0.208c-0.207,0.22 -0.635,0.415 -0.843,0.635c-0.208,0.221 -0.648,0.428 -0.856,0.636c-0.208,0.246 -0.636,0.454 -0.843,0.661l-0.636,0.636c-0.207,0.207 -0.635,0.415 -0.856,0.635l0,0.234l-0.22,0c-0.428,0.22 -0.636,0.428 -1.064,0.635c-0.319,0.161 -0.609,0.376 -0.856,0.636c-0.394,0.009 -0.772,0.161 -1.063,0.428c-0.221,0.207 -0.428,0.207 -0.843,0.441c-0.234,0.22 -0.441,0.415 -0.856,0.415c0,0.22 0,0.22 -0.208,0.22l-1.297,0.636l35.46,77.974l-48.481,0l-28.417,-67.728l-19.04,0l0,0.039Zm338.446,67.715l0,-135.21l-31.814,0l0,-39.091l115.56,0l0,39.091l-34.175,0l0,135.21l-49.571,0Zm-1004.03,-31.607l28.404,-22.438c0.428,0.661 0.648,1.076 1.076,1.504c0.428,0.869 1.064,1.492 1.699,2.348l2.568,3.204c2.14,2.555 4.267,4.941 6.615,6.835c2.14,1.906 4.708,3.618 7.276,4.915c2.555,1.297 5.551,2.14 8.327,2.776c2.14,0.415 4.059,0.661 6.199,0.856c2.348,0.22 4.916,0.22 7.263,0c1.284,0 2.568,-0.208 3.839,-0.441c1.492,0 2.983,-0.415 4.488,-0.636c2.14,-0.635 4.059,-1.271 5.979,-2.127c1.491,-0.843 2.775,-1.725 4.059,-2.775c0.843,-1.077 1.699,-2.127 2.348,-3.424c0.548,-0.998 0.909,-2.089 1.063,-3.217c0.221,-1.05 0.428,-2.347 0.221,-3.606c0.04,-1.475 -0.248,-2.942 -0.843,-4.293c-0.457,-0.859 -1.033,-1.649 -1.712,-2.347c-0.92,-1.215 -2.081,-2.226 -3.411,-2.97c-1.89,-1.436 -3.978,-2.589 -6.2,-3.424c-4.819,-1.861 -9.743,-3.437 -14.746,-4.721c-8.34,-2.555 -16.667,-4.903 -24.565,-8.327c-5.706,-2.137 -11.041,-5.157 -15.81,-8.949c-4.275,-3.462 -7.891,-7.667 -10.674,-12.412c-4.083,-7.462 -6.212,-15.838 -6.187,-24.344c-0.489,-6.741 0.457,-13.509 2.776,-19.857c1.491,-4.682 3.839,-8.975 6.627,-13.047c3.411,-4.89 7.899,-8.937 12.814,-12.374c4.952,-3.354 10.342,-6.011 16.018,-7.898c7.181,-2.331 14.658,-3.624 22.204,-3.839c4.916,-0.221 9.818,0 14.526,0.635c3.688,0.383 7.334,1.095 10.895,2.127c4.323,1.104 8.486,2.76 12.386,4.929c4.102,2.16 7.97,4.737 11.543,7.691c2.348,1.919 4.695,4.059 6.628,6.199c2.127,2.14 3.839,4.475 5.758,6.823l-26.264,21.568c-0.365,-0.343 -0.724,-0.694 -1.076,-1.05c-1.712,-1.712 -3.424,-3.632 -5.344,-5.344c-1.504,-1.271 -2.996,-2.775 -4.708,-4.059c-1.991,-1.328 -4.057,-2.54 -6.186,-3.632c-2.244,-1.027 -4.618,-1.743 -7.056,-2.127c-3.479,-0.914 -7.095,-1.195 -10.674,-0.83c-1.712,0 -3.424,0.402 -5.136,0.83c-1.634,0.457 -3.209,1.101 -4.695,1.92c-1.483,0.809 -2.849,1.817 -4.059,2.996c-1.081,0.94 -1.952,2.098 -2.556,3.398c-0.428,0.869 -0.635,1.712 -0.856,2.373c-0.207,0.843 -0.207,1.699 -0.428,2.555c0,1.492 0.428,3.217 1.064,4.488c0.428,0.83 1.076,1.712 1.504,2.347c1.064,1.297 2.14,2.568 3.412,3.424c1.919,1.505 4.28,2.348 6.407,3.217c4.915,1.906 9.831,3.398 14.954,4.682c8.326,2.14 16.886,4.046 24.772,7.483c5.772,2.127 11.336,5.11 16.018,8.975c4.267,3.399 7.911,7.458 10.466,12.166c4.488,7.25 6.407,16.005 6.615,24.759c0.426,6.939 -0.44,13.897 -2.555,20.519c-1.309,4.799 -3.403,9.348 -6.2,13.462c-3.295,5.112 -7.405,9.651 -12.165,13.437c-4.903,3.631 -10.26,6.64 -16.018,8.767c-4.476,1.724 -9.131,2.942 -13.878,3.632l-5.758,0.635c-1.92,0.221 -3.852,0.221 -5.772,0.221c-5.123,0 -10.038,0 -15.162,-0.636c-4.539,-0.299 -9.041,-1.016 -13.449,-2.14c-5.481,-1.282 -10.789,-3.216 -15.81,-5.758c-5.101,-2.402 -9.845,-5.496 -14.098,-9.196c-5.048,-3.997 -9.445,-8.753 -13.035,-14.098c-0.428,-0.635 -0.856,-1.05 -1.271,-1.712c-0.247,-0.22 -0.247,-0.441 -0.454,-0.648Zm1363.2,-142.694l45.303,0l0,139.062l53.617,0l0,35.239l-98.92,0l0,-174.301Z" style="fill:#1a5590;"/><path d="M1615.6,714.422l21.581,-11.958l22.217,-45.926l-29.921,18.819l-13.877,39.065Zm173.237,-42.93l60.244,108.077l0,-108.077l41.672,0l0,174.301l-42.515,0l-62.164,-108.946l0,108.946l-41.438,0l0,-174.301l44.201,0Zm19.026,-2.983l-32.048,-32.697l25.836,0l17.107,17.108l17.937,-17.108l25.434,0l-32.282,32.697l-21.984,0Zm-100.619,-296.489l-0.221,0l45.291,-38.027l46.146,0l-53.617,38.027l-37.599,0Zm-87.572,230.486l67.287,-219.15l86.937,0l67.287,219.15l-60.219,0l-14.747,-43.15l-72.215,0l-14.293,43.15l-60.037,0Zm110.425,-163.419l-21.764,76.69l43.54,0l-21.776,-76.69Z" style="fill:#1a5590;"/></g></svg>