<svg id="logo" xmlns="http://www.w3.org/2000/svg" width="129" height="70" viewBox="0 0 129 70">
  <defs>
    <style>
      .cls-1, .cls-4 {
        fill-rule: evenodd;
      }

      .cls-2 {
        fill: #c03;
      }

      .cls-3 {
        fill: #fff;
      }

      .cls-4 {
        opacity: 0.4;
      }
    </style>
  </defs>
  <path id="kb" class="cls-1" d="M70.76,45.4l14.256-8.516c1.264-.767.546-1.558-0.318-1.558V34.991H94.871v0.335A13.217,13.217,0,0,0,90.108,37.3L77.28,44.844,92.219,56.781c1.129,0.861,2.109,1.745,3.382,1.889v0.339l-10.214,0L70.76,46.868v9.35a2.18,2.18,0,0,0,2.352,2.451v0.339l-10.554,0V58.67c1.5,0,1.883-.885,1.883-2.451V37.778c0-1.565-.381-2.452-1.883-2.452V34.991H73.111v0.335a2.18,2.18,0,0,0-2.352,2.452V45.4Zm58.305,6.756c0,4.147-3.741,6.8-12.727,6.851L98.98,59V58.67a2.181,2.181,0,0,0,2.354-2.451V37.778a2.182,2.182,0,0,0-2.354-2.452V34.991h18.395c7.6,0,10.282,2.564,10.282,5.543,0,4.022-4.111,5.39-7.924,5.76C123.75,46.294,129.065,47.665,129.065,52.157ZM120.824,41.3c0-3.3-3.721-3.731-7.535-3.7a48.859,48.859,0,0,0-5.638.314V45s2.256,0.1,3.763.1C119,45.047,120.824,44.042,120.824,41.3Zm-5.961,14.973c3.251,0,7.268-.528,7.268-4.188,0-5.032-8.272-4.5-14.48-4.118v6.413a2.263,2.263,0,0,0,2.29,1.823C111.393,56.268,114.863,56.275,114.863,56.275Z"/>
  <rect id="tvar" class="cls-2" y="24" width="46" height="23"/>
  <rect id="tvar-2" data-name="tvar" y="47" width="46" height="23"/>
  <rect id="tvar-3" data-name="tvar" class="cls-3" x="10" y="47" width="26" height="2"/>
  <path id="claim" class="cls-1" d="M126.285,0.848H127l1.133-.854H127Zm0.008,6.024h1v-5.7h-1v5.7ZM123.041-.014h-0.783l-0.567.479-0.559-.479h-0.784L121.2,0.841h0.974Zm-3.548,2.044h3.069l-3.325,4.028V6.872h4.674V6.011h-3.4l3.324-4.084V1.168h-4.338V2.031ZM113.03,6.872h4.163V6.011h-3.166V4.339H116.9V3.526h-2.876V2.031h3.108V1.168H113.03v5.7Zm-6.185,0h3.9V6.011h-2.9V1.168h-1v5.7Zm-5.4-6.024h0.712l1.133-.854h-1.126Zm0.511,1.3h0.024L102.834,4.6h-1.743Zm-2.7,4.721h1.032l0.535-1.51H103.1l0.535,1.51h1.07l-2.2-5.7h-1.063ZM93.118,2.031h3.068L92.862,6.059V6.872h4.674V6.011h-3.4l3.324-4.084V1.168H93.118V2.031ZM85.665,0.848h0.71L87.51-.005H86.383Zm0.007,6.024h1v-5.7h-1v5.7Zm-5.226,0h1.111l1.951-5.7H82.492L81.031,5.682H81.015L79.584,1.168H78.545ZM72.314,2.031h1.805V6.872h1V2.031h1.814V1.168H72.314V2.031ZM65.738,4.972c0.024,1.414,1.078,2.037,2.38,2.037,1.135,0,2.269-.511,2.269-1.789a1.509,1.509,0,0,0-1.109-1.455c-0.3-.088-1.559-0.415-1.647-0.44a0.768,0.768,0,0,1-.68-0.735A0.884,0.884,0,0,1,68,1.847,1.049,1.049,0,0,1,69.23,2.854h1a1.923,1.923,0,0,0-2.189-1.821A1.84,1.84,0,0,0,65.954,2.71a1.449,1.449,0,0,0,1.261,1.447c0.783,0.215,1.3.32,1.7,0.471a0.68,0.68,0,0,1,.471.7,0.982,0.982,0,0,1-1.207.862,1.229,1.229,0,0,1-1.447-1.222h-1Zm-6.88,1.9h1V4.523h1.471c0.919,0,1.135.464,1.135,1.511a1.6,1.6,0,0,0,.151.839h1.07a2.59,2.59,0,0,1-.312-1.5,1.038,1.038,0,0,0-.846-1.207V4.149a1.386,1.386,0,0,0,.941-1.439c0-.966-0.638-1.542-1.885-1.542H58.858v5.7Zm1-4.89h1.623a0.819,0.819,0,0,1,.991.871,0.845,0.845,0,0,1-.975.911H59.855V1.983Zm-7.629,4.89h4.162V6.011H53.224V4.339H56.1V3.526H53.224V2.031h3.108V1.168H52.226v5.7Zm-7.406,0h0.949V2.679h0.025l2.6,4.193h1.053v-5.7H48.5v4.2H48.479l-2.605-4.2H44.82v5.7ZM37.981,2.031h1.805V6.872h1V2.031H42.6V1.168H37.981V2.031ZM31.445,6.872h1V4.523h1.47c0.919,0,1.135.464,1.135,1.511a1.586,1.586,0,0,0,.152.839h1.07a2.589,2.589,0,0,1-.312-1.5,1.038,1.038,0,0,0-.846-1.207V4.149a1.386,1.386,0,0,0,.942-1.439c0-.966-0.639-1.542-1.885-1.542H31.445v5.7Zm1-4.89h1.623a0.819,0.819,0,0,1,.991.871,0.846,0.846,0,0,1-.975.911H32.443V1.983Zm-5.888.169h0.024L27.434,4.6H25.692Zm-2.7,4.721h1.031l0.535-1.51H27.7l0.535,1.51H29.3l-2.2-5.7H26.043Zm-5.672,0h1V4.683H20.7a1.669,1.669,0,0,0,1.941-1.749A1.68,1.68,0,0,0,20.7,1.168H18.181v5.7Zm1-4.89h1.478a0.85,0.85,0,0,1,.984.944,0.91,0.91,0,0,1-1,.944H19.179V1.983ZM9.5,2.152H9.52L10.375,4.6H8.633ZM6.8,6.872H7.827l0.535-1.51h2.277l0.535,1.51h1.071l-2.2-5.7H8.986Zm-6.743,0H1V2.679H1.027l2.6,4.193H4.679v-5.7H3.728v4.2H3.712l-2.605-4.2H0.053v5.7Z"/>
  <path id="claim-2" data-name="claim" class="cls-4" d="M126.285,0.848H127l1.133-.854H127Zm0.008,6.024h1v-5.7h-1v5.7ZM123.041-.014h-0.783l-0.567.479-0.559-.479h-0.784L121.2,0.841h0.974Zm-3.548,2.044h3.069l-3.325,4.028V6.872h4.674V6.011h-3.4l3.324-4.084V1.168h-4.338V2.031ZM113.03,6.872h4.163V6.011h-3.166V4.339H116.9V3.526h-2.876V2.031h3.108V1.168H113.03v5.7Zm-6.185,0h3.9V6.011h-2.9V1.168h-1v5.7Zm-5.4-6.024h0.712l1.133-.854h-1.126Zm0.511,1.3h0.024L102.834,4.6h-1.743Zm-2.7,4.721h1.032l0.535-1.51H103.1l0.535,1.51h1.07l-2.2-5.7h-1.063ZM93.118,2.031h3.068L92.862,6.059V6.872h4.674V6.011h-3.4l3.324-4.084V1.168H93.118V2.031ZM85.665,0.848h0.71L87.51-.005H86.383Zm0.007,6.024h1v-5.7h-1v5.7Zm-5.226,0h1.111l1.951-5.7H82.492L81.031,5.682H81.015L79.584,1.168H78.545ZM72.314,2.031h1.805V6.872h1V2.031h1.814V1.168H72.314V2.031ZM65.738,4.972c0.024,1.414,1.078,2.037,2.38,2.037,1.135,0,2.269-.511,2.269-1.789a1.509,1.509,0,0,0-1.109-1.455c-0.3-.088-1.559-0.415-1.647-0.44a0.768,0.768,0,0,1-.68-0.735A0.884,0.884,0,0,1,68,1.847,1.049,1.049,0,0,1,69.23,2.854h1a1.923,1.923,0,0,0-2.189-1.821A1.84,1.84,0,0,0,65.954,2.71a1.449,1.449,0,0,0,1.261,1.447c0.783,0.215,1.3.32,1.7,0.471a0.68,0.68,0,0,1,.471.7,0.982,0.982,0,0,1-1.207.862,1.229,1.229,0,0,1-1.447-1.222h-1Zm-6.88,1.9h1V4.523h1.471c0.919,0,1.135.464,1.135,1.511a1.6,1.6,0,0,0,.151.839h1.07a2.59,2.59,0,0,1-.312-1.5,1.038,1.038,0,0,0-.846-1.207V4.149a1.386,1.386,0,0,0,.941-1.439c0-.966-0.638-1.542-1.885-1.542H58.858v5.7Zm1-4.89h1.623a0.819,0.819,0,0,1,.991.871,0.845,0.845,0,0,1-.975.911H59.855V1.983Zm-7.629,4.89h4.162V6.011H53.224V4.339H56.1V3.526H53.224V2.031h3.108V1.168H52.226v5.7Zm-7.406,0h0.949V2.679h0.025l2.6,4.193h1.053v-5.7H48.5v4.2H48.479l-2.605-4.2H44.82v5.7ZM37.981,2.031h1.805V6.872h1V2.031H42.6V1.168H37.981V2.031ZM31.445,6.872h1V4.523h1.47c0.919,0,1.135.464,1.135,1.511a1.586,1.586,0,0,0,.152.839h1.07a2.589,2.589,0,0,1-.312-1.5,1.038,1.038,0,0,0-.846-1.207V4.149a1.386,1.386,0,0,0,.942-1.439c0-.966-0.639-1.542-1.885-1.542H31.445v5.7Zm1-4.89h1.623a0.819,0.819,0,0,1,.991.871,0.846,0.846,0,0,1-.975.911H32.443V1.983Zm-5.888.169h0.024L27.434,4.6H25.692Zm-2.7,4.721h1.031l0.535-1.51H27.7l0.535,1.51H29.3l-2.2-5.7H26.043Zm-5.672,0h1V4.683H20.7a1.669,1.669,0,0,0,1.941-1.749A1.68,1.68,0,0,0,20.7,1.168H18.181v5.7Zm1-4.89h1.478a0.85,0.85,0,0,1,.984.944,0.91,0.91,0,0,1-1,.944H19.179V1.983ZM9.5,2.152H9.52L10.375,4.6H8.633ZM6.8,6.872H7.827l0.535-1.51h2.277l0.535,1.51h1.071l-2.2-5.7H8.986Zm-6.743,0H1V2.679H1.027l2.6,4.193H4.679v-5.7H3.728v4.2H3.712l-2.605-4.2H0.053v5.7Z"/>
</svg>
